G04 #@! TF.FileFunction,Legend,Bot*
%FSLAX46Y46*%
G04 Gerber Fmt 4.6, Leading zero omitted, Abs format (unit mm)*
G04 Created by KiCad (PCBNEW (2015-04-17 BZR 5609)-product) date Sunday, 21 June 2015 08:11:59 pm*
%MOMM*%
G01*
G04 APERTURE LIST*
%ADD10C,0.100000*%
%ADD11C,0.300000*%
%ADD12C,0.150000*%
G04 APERTURE END LIST*
D10*
D11*
X144970499Y-118368071D02*
X144970499Y-118725214D01*
X145327642Y-118582357D02*
X144970499Y-118725214D01*
X144613357Y-118582357D01*
X145184785Y-119010929D02*
X144970499Y-118725214D01*
X144756214Y-119010929D01*
D12*
X137800800Y-104394000D02*
X141800800Y-104394000D01*
X141800800Y-104394000D02*
X137800800Y-104394000D01*
X178800800Y-104394000D02*
X174800800Y-104394000D01*
X174800800Y-104394000D02*
X178800800Y-104394000D01*
X176800800Y-102394000D02*
X176800800Y-106394000D01*
X176800800Y-106394000D02*
X176800800Y-102394000D01*
X176800800Y-102394000D02*
X176800800Y-106394000D01*
X184050800Y-104394000D02*
X183990800Y-97804000D01*
X183990800Y-97804000D02*
X133550800Y-98004000D01*
X133550800Y-98004000D02*
X133550800Y-110984000D01*
X133550800Y-110984000D02*
X184050800Y-110984000D01*
X184050800Y-110984000D02*
X184050800Y-104394000D01*
X130944881Y-91717905D02*
X129944881Y-91717905D01*
X129944881Y-92098858D01*
X129992500Y-92194096D01*
X130040119Y-92241715D01*
X130135357Y-92289334D01*
X130278214Y-92289334D01*
X130373452Y-92241715D01*
X130421071Y-92194096D01*
X130468690Y-92098858D01*
X130468690Y-91717905D01*
X129944881Y-93146477D02*
X129944881Y-92956000D01*
X129992500Y-92860762D01*
X130040119Y-92813143D01*
X130182976Y-92717905D01*
X130373452Y-92670286D01*
X130754405Y-92670286D01*
X130849643Y-92717905D01*
X130897262Y-92765524D01*
X130944881Y-92860762D01*
X130944881Y-93051239D01*
X130897262Y-93146477D01*
X130849643Y-93194096D01*
X130754405Y-93241715D01*
X130516310Y-93241715D01*
X130421071Y-93194096D01*
X130373452Y-93146477D01*
X130325833Y-93051239D01*
X130325833Y-92860762D01*
X130373452Y-92765524D01*
X130421071Y-92717905D01*
X130516310Y-92670286D01*
X160624781Y-108028362D02*
X159624781Y-108028362D01*
X159624781Y-108409315D01*
X159672400Y-108504553D01*
X159720019Y-108552172D01*
X159815257Y-108599791D01*
X159958114Y-108599791D01*
X160053352Y-108552172D01*
X160100971Y-108504553D01*
X160148590Y-108409315D01*
X160148590Y-108028362D01*
X160339067Y-108980743D02*
X160339067Y-109456934D01*
X160624781Y-108885505D02*
X159624781Y-109218838D01*
X160624781Y-109552172D01*
X159624781Y-110075981D02*
X159624781Y-110171220D01*
X159672400Y-110266458D01*
X159720019Y-110314077D01*
X159815257Y-110361696D01*
X160005733Y-110409315D01*
X160243829Y-110409315D01*
X160434305Y-110361696D01*
X160529543Y-110314077D01*
X160577162Y-110266458D01*
X160624781Y-110171220D01*
X160624781Y-110075981D01*
X160577162Y-109980743D01*
X160529543Y-109933124D01*
X160434305Y-109885505D01*
X160243829Y-109837886D01*
X160005733Y-109837886D01*
X159815257Y-109885505D01*
X159720019Y-109933124D01*
X159672400Y-109980743D01*
X159624781Y-110075981D01*
X160720019Y-110599791D02*
X160720019Y-111361696D01*
X160339067Y-111552172D02*
X160339067Y-112028363D01*
X160624781Y-111456934D02*
X159624781Y-111790267D01*
X160624781Y-112123601D01*
X160624781Y-112456934D02*
X159624781Y-112456934D01*
X159624781Y-112695029D01*
X159672400Y-112837887D01*
X159767638Y-112933125D01*
X159862876Y-112980744D01*
X160053352Y-113028363D01*
X160196210Y-113028363D01*
X160386686Y-112980744D01*
X160481924Y-112933125D01*
X160577162Y-112837887D01*
X160624781Y-112695029D01*
X160624781Y-112456934D01*
X160529543Y-114028363D02*
X160577162Y-113980744D01*
X160624781Y-113837887D01*
X160624781Y-113742649D01*
X160577162Y-113599791D01*
X160481924Y-113504553D01*
X160386686Y-113456934D01*
X160196210Y-113409315D01*
X160053352Y-113409315D01*
X159862876Y-113456934D01*
X159767638Y-113504553D01*
X159672400Y-113599791D01*
X159624781Y-113742649D01*
X159624781Y-113837887D01*
X159672400Y-113980744D01*
X159720019Y-114028363D01*
X160720019Y-114218839D02*
X160720019Y-114980744D01*
X160624781Y-115218839D02*
X159624781Y-115218839D01*
X160624781Y-115695029D02*
X159624781Y-115695029D01*
X160624781Y-116266458D01*
X159624781Y-116266458D01*
X159624781Y-116933124D02*
X159624781Y-117028363D01*
X159672400Y-117123601D01*
X159720019Y-117171220D01*
X159815257Y-117218839D01*
X160005733Y-117266458D01*
X160243829Y-117266458D01*
X160434305Y-117218839D01*
X160529543Y-117171220D01*
X160577162Y-117123601D01*
X160624781Y-117028363D01*
X160624781Y-116933124D01*
X160577162Y-116837886D01*
X160529543Y-116790267D01*
X160434305Y-116742648D01*
X160243829Y-116695029D01*
X160005733Y-116695029D01*
X159815257Y-116742648D01*
X159720019Y-116790267D01*
X159672400Y-116837886D01*
X159624781Y-116933124D01*
X163977581Y-108866514D02*
X162977581Y-108866514D01*
X162977581Y-109247467D01*
X163025200Y-109342705D01*
X163072819Y-109390324D01*
X163168057Y-109437943D01*
X163310914Y-109437943D01*
X163406152Y-109390324D01*
X163453771Y-109342705D01*
X163501390Y-109247467D01*
X163501390Y-108866514D01*
X163691867Y-109818895D02*
X163691867Y-110295086D01*
X163977581Y-109723657D02*
X162977581Y-110056990D01*
X163977581Y-110390324D01*
X163977581Y-111247467D02*
X163977581Y-110676038D01*
X163977581Y-110961752D02*
X162977581Y-110961752D01*
X163120438Y-110866514D01*
X163215676Y-110771276D01*
X163263295Y-110676038D01*
X164072819Y-111437943D02*
X164072819Y-112199848D01*
X163691867Y-112390324D02*
X163691867Y-112866515D01*
X163977581Y-112295086D02*
X162977581Y-112628419D01*
X163977581Y-112961753D01*
X163977581Y-113295086D02*
X162977581Y-113295086D01*
X162977581Y-113533181D01*
X163025200Y-113676039D01*
X163120438Y-113771277D01*
X163215676Y-113818896D01*
X163406152Y-113866515D01*
X163549010Y-113866515D01*
X163739486Y-113818896D01*
X163834724Y-113771277D01*
X163929962Y-113676039D01*
X163977581Y-113533181D01*
X163977581Y-113295086D01*
X163882343Y-114866515D02*
X163929962Y-114818896D01*
X163977581Y-114676039D01*
X163977581Y-114580801D01*
X163929962Y-114437943D01*
X163834724Y-114342705D01*
X163739486Y-114295086D01*
X163549010Y-114247467D01*
X163406152Y-114247467D01*
X163215676Y-114295086D01*
X163120438Y-114342705D01*
X163025200Y-114437943D01*
X162977581Y-114580801D01*
X162977581Y-114676039D01*
X163025200Y-114818896D01*
X163072819Y-114866515D01*
X163977581Y-115295086D02*
X162977581Y-115295086D01*
X163977581Y-115771276D02*
X162977581Y-115771276D01*
X163977581Y-116342705D01*
X162977581Y-116342705D01*
X163977581Y-117342705D02*
X163977581Y-116771276D01*
X163977581Y-117056990D02*
X162977581Y-117056990D01*
X163120438Y-116961752D01*
X163215676Y-116866514D01*
X163263295Y-116771276D01*
X167482781Y-106042533D02*
X166482781Y-106042533D01*
X166482781Y-106423486D01*
X166530400Y-106518724D01*
X166578019Y-106566343D01*
X166673257Y-106613962D01*
X166816114Y-106613962D01*
X166911352Y-106566343D01*
X166958971Y-106518724D01*
X167006590Y-106423486D01*
X167006590Y-106042533D01*
X167197067Y-106994914D02*
X167197067Y-107471105D01*
X167482781Y-106899676D02*
X166482781Y-107233009D01*
X167482781Y-107566343D01*
X166578019Y-107852057D02*
X166530400Y-107899676D01*
X166482781Y-107994914D01*
X166482781Y-108233010D01*
X166530400Y-108328248D01*
X166578019Y-108375867D01*
X166673257Y-108423486D01*
X166768495Y-108423486D01*
X166911352Y-108375867D01*
X167482781Y-107804438D01*
X167482781Y-108423486D01*
X167578019Y-108613962D02*
X167578019Y-109375867D01*
X166482781Y-109613962D02*
X167292305Y-109613962D01*
X167387543Y-109661581D01*
X167435162Y-109709200D01*
X167482781Y-109804438D01*
X167482781Y-109994915D01*
X167435162Y-110090153D01*
X167387543Y-110137772D01*
X167292305Y-110185391D01*
X166482781Y-110185391D01*
X167435162Y-110613962D02*
X167482781Y-110756819D01*
X167482781Y-110994915D01*
X167435162Y-111090153D01*
X167387543Y-111137772D01*
X167292305Y-111185391D01*
X167197067Y-111185391D01*
X167101829Y-111137772D01*
X167054210Y-111090153D01*
X167006590Y-110994915D01*
X166958971Y-110804438D01*
X166911352Y-110709200D01*
X166863733Y-110661581D01*
X166768495Y-110613962D01*
X166673257Y-110613962D01*
X166578019Y-110661581D01*
X166530400Y-110709200D01*
X166482781Y-110804438D01*
X166482781Y-111042534D01*
X166530400Y-111185391D01*
X167197067Y-111566343D02*
X167197067Y-112042534D01*
X167482781Y-111471105D02*
X166482781Y-111804438D01*
X167482781Y-112137772D01*
X167482781Y-113042534D02*
X167006590Y-112709200D01*
X167482781Y-112471105D02*
X166482781Y-112471105D01*
X166482781Y-112852058D01*
X166530400Y-112947296D01*
X166578019Y-112994915D01*
X166673257Y-113042534D01*
X166816114Y-113042534D01*
X166911352Y-112994915D01*
X166958971Y-112947296D01*
X167006590Y-112852058D01*
X167006590Y-112471105D01*
X166482781Y-113328248D02*
X166482781Y-113899677D01*
X167482781Y-113613962D02*
X166482781Y-113613962D01*
X167482781Y-114756820D02*
X167482781Y-114185391D01*
X167482781Y-114471105D02*
X166482781Y-114471105D01*
X166625638Y-114375867D01*
X166720876Y-114280629D01*
X166768495Y-114185391D01*
X166482781Y-115042534D02*
X166482781Y-115613963D01*
X167482781Y-115328248D02*
X166482781Y-115328248D01*
X166482781Y-115852058D02*
X167482781Y-116518725D01*
X166482781Y-116518725D02*
X167482781Y-115852058D01*
X167482781Y-117423487D02*
X167482781Y-116852058D01*
X167482781Y-117137772D02*
X166482781Y-117137772D01*
X166625638Y-117042534D01*
X166720876Y-116947296D01*
X166768495Y-116852058D01*
X171140381Y-105771085D02*
X170140381Y-105771085D01*
X170140381Y-106152038D01*
X170188000Y-106247276D01*
X170235619Y-106294895D01*
X170330857Y-106342514D01*
X170473714Y-106342514D01*
X170568952Y-106294895D01*
X170616571Y-106247276D01*
X170664190Y-106152038D01*
X170664190Y-105771085D01*
X170854667Y-106723466D02*
X170854667Y-107199657D01*
X171140381Y-106628228D02*
X170140381Y-106961561D01*
X171140381Y-107294895D01*
X170140381Y-107532990D02*
X170140381Y-108152038D01*
X170521333Y-107818704D01*
X170521333Y-107961562D01*
X170568952Y-108056800D01*
X170616571Y-108104419D01*
X170711810Y-108152038D01*
X170949905Y-108152038D01*
X171045143Y-108104419D01*
X171092762Y-108056800D01*
X171140381Y-107961562D01*
X171140381Y-107675847D01*
X171092762Y-107580609D01*
X171045143Y-107532990D01*
X171235619Y-108342514D02*
X171235619Y-109104419D01*
X170140381Y-109342514D02*
X170949905Y-109342514D01*
X171045143Y-109390133D01*
X171092762Y-109437752D01*
X171140381Y-109532990D01*
X171140381Y-109723467D01*
X171092762Y-109818705D01*
X171045143Y-109866324D01*
X170949905Y-109913943D01*
X170140381Y-109913943D01*
X171092762Y-110342514D02*
X171140381Y-110485371D01*
X171140381Y-110723467D01*
X171092762Y-110818705D01*
X171045143Y-110866324D01*
X170949905Y-110913943D01*
X170854667Y-110913943D01*
X170759429Y-110866324D01*
X170711810Y-110818705D01*
X170664190Y-110723467D01*
X170616571Y-110532990D01*
X170568952Y-110437752D01*
X170521333Y-110390133D01*
X170426095Y-110342514D01*
X170330857Y-110342514D01*
X170235619Y-110390133D01*
X170188000Y-110437752D01*
X170140381Y-110532990D01*
X170140381Y-110771086D01*
X170188000Y-110913943D01*
X170854667Y-111294895D02*
X170854667Y-111771086D01*
X171140381Y-111199657D02*
X170140381Y-111532990D01*
X171140381Y-111866324D01*
X171140381Y-112771086D02*
X170664190Y-112437752D01*
X171140381Y-112199657D02*
X170140381Y-112199657D01*
X170140381Y-112580610D01*
X170188000Y-112675848D01*
X170235619Y-112723467D01*
X170330857Y-112771086D01*
X170473714Y-112771086D01*
X170568952Y-112723467D01*
X170616571Y-112675848D01*
X170664190Y-112580610D01*
X170664190Y-112199657D01*
X170140381Y-113056800D02*
X170140381Y-113628229D01*
X171140381Y-113342514D02*
X170140381Y-113342514D01*
X171140381Y-114485372D02*
X171140381Y-113913943D01*
X171140381Y-114199657D02*
X170140381Y-114199657D01*
X170283238Y-114104419D01*
X170378476Y-114009181D01*
X170426095Y-113913943D01*
X171140381Y-115485372D02*
X170664190Y-115152038D01*
X171140381Y-114913943D02*
X170140381Y-114913943D01*
X170140381Y-115294896D01*
X170188000Y-115390134D01*
X170235619Y-115437753D01*
X170330857Y-115485372D01*
X170473714Y-115485372D01*
X170568952Y-115437753D01*
X170616571Y-115390134D01*
X170664190Y-115294896D01*
X170664190Y-114913943D01*
X170140381Y-115818705D02*
X171140381Y-116485372D01*
X170140381Y-116485372D02*
X171140381Y-115818705D01*
X171140381Y-117390134D02*
X171140381Y-116818705D01*
X171140381Y-117104419D02*
X170140381Y-117104419D01*
X170283238Y-117009181D01*
X170378476Y-116913943D01*
X170426095Y-116818705D01*
X157042881Y-92019381D02*
X157042881Y-91019381D01*
X156661928Y-91019381D01*
X156566690Y-91067000D01*
X156519071Y-91114619D01*
X156471452Y-91209857D01*
X156471452Y-91352714D01*
X156519071Y-91447952D01*
X156566690Y-91495571D01*
X156661928Y-91543190D01*
X157042881Y-91543190D01*
X156090500Y-91733667D02*
X155614309Y-91733667D01*
X156185738Y-92019381D02*
X155852405Y-91019381D01*
X155519071Y-92019381D01*
X155042881Y-91447952D02*
X155138119Y-91400333D01*
X155185738Y-91352714D01*
X155233357Y-91257476D01*
X155233357Y-91209857D01*
X155185738Y-91114619D01*
X155138119Y-91067000D01*
X155042881Y-91019381D01*
X154852404Y-91019381D01*
X154757166Y-91067000D01*
X154709547Y-91114619D01*
X154661928Y-91209857D01*
X154661928Y-91257476D01*
X154709547Y-91352714D01*
X154757166Y-91400333D01*
X154852404Y-91447952D01*
X155042881Y-91447952D01*
X155138119Y-91495571D01*
X155185738Y-91543190D01*
X155233357Y-91638429D01*
X155233357Y-91828905D01*
X155185738Y-91924143D01*
X155138119Y-91971762D01*
X155042881Y-92019381D01*
X154852404Y-92019381D01*
X154757166Y-91971762D01*
X154709547Y-91924143D01*
X154661928Y-91828905D01*
X154661928Y-91638429D01*
X154709547Y-91543190D01*
X154757166Y-91495571D01*
X154852404Y-91447952D01*
X154471452Y-92114619D02*
X153709547Y-92114619D01*
X152947642Y-91067000D02*
X153042880Y-91019381D01*
X153185737Y-91019381D01*
X153328595Y-91067000D01*
X153423833Y-91162238D01*
X153471452Y-91257476D01*
X153519071Y-91447952D01*
X153519071Y-91590810D01*
X153471452Y-91781286D01*
X153423833Y-91876524D01*
X153328595Y-91971762D01*
X153185737Y-92019381D01*
X153090499Y-92019381D01*
X152947642Y-91971762D01*
X152900023Y-91924143D01*
X152900023Y-91590810D01*
X153090499Y-91590810D01*
X151900023Y-92019381D02*
X152233357Y-91543190D01*
X152471452Y-92019381D02*
X152471452Y-91019381D01*
X152090499Y-91019381D01*
X151995261Y-91067000D01*
X151947642Y-91114619D01*
X151900023Y-91209857D01*
X151900023Y-91352714D01*
X151947642Y-91447952D01*
X151995261Y-91495571D01*
X152090499Y-91543190D01*
X152471452Y-91543190D01*
X151471452Y-91495571D02*
X151138118Y-91495571D01*
X150995261Y-92019381D02*
X151471452Y-92019381D01*
X151471452Y-91019381D01*
X150995261Y-91019381D01*
X150566690Y-91495571D02*
X150233356Y-91495571D01*
X150090499Y-92019381D02*
X150566690Y-92019381D01*
X150566690Y-91019381D01*
X150090499Y-91019381D01*
X149661928Y-92019381D02*
X149661928Y-91019381D01*
X149090499Y-92019381D01*
X149090499Y-91019381D01*
X148090499Y-92019381D02*
X148661928Y-92019381D01*
X148376214Y-92019381D02*
X148376214Y-91019381D01*
X148471452Y-91162238D01*
X148566690Y-91257476D01*
X148661928Y-91305095D01*
X158987691Y-87891881D02*
X158987691Y-86891881D01*
X158606738Y-86891881D01*
X158511500Y-86939500D01*
X158463881Y-86987119D01*
X158416262Y-87082357D01*
X158416262Y-87225214D01*
X158463881Y-87320452D01*
X158511500Y-87368071D01*
X158606738Y-87415690D01*
X158987691Y-87415690D01*
X158035310Y-87606167D02*
X157559119Y-87606167D01*
X158130548Y-87891881D02*
X157797215Y-86891881D01*
X157463881Y-87891881D01*
X157082929Y-87891881D02*
X156892453Y-87891881D01*
X156797214Y-87844262D01*
X156749595Y-87796643D01*
X156654357Y-87653786D01*
X156606738Y-87463310D01*
X156606738Y-87082357D01*
X156654357Y-86987119D01*
X156701976Y-86939500D01*
X156797214Y-86891881D01*
X156987691Y-86891881D01*
X157082929Y-86939500D01*
X157130548Y-86987119D01*
X157178167Y-87082357D01*
X157178167Y-87320452D01*
X157130548Y-87415690D01*
X157082929Y-87463310D01*
X156987691Y-87510929D01*
X156797214Y-87510929D01*
X156701976Y-87463310D01*
X156654357Y-87415690D01*
X156606738Y-87320452D01*
X156416262Y-87987119D02*
X155654357Y-87987119D01*
X154844833Y-87891881D02*
X155178167Y-87415690D01*
X155416262Y-87891881D02*
X155416262Y-86891881D01*
X155035309Y-86891881D01*
X154940071Y-86939500D01*
X154892452Y-86987119D01*
X154844833Y-87082357D01*
X154844833Y-87225214D01*
X154892452Y-87320452D01*
X154940071Y-87368071D01*
X155035309Y-87415690D01*
X155416262Y-87415690D01*
X154416262Y-87368071D02*
X154082928Y-87368071D01*
X153940071Y-87891881D02*
X154416262Y-87891881D01*
X154416262Y-86891881D01*
X153940071Y-86891881D01*
X153511500Y-87891881D02*
X153511500Y-86891881D01*
X153273405Y-86891881D01*
X153130547Y-86939500D01*
X153035309Y-87034738D01*
X152987690Y-87129976D01*
X152940071Y-87320452D01*
X152940071Y-87463310D01*
X152987690Y-87653786D01*
X153035309Y-87749024D01*
X153130547Y-87844262D01*
X153273405Y-87891881D01*
X153511500Y-87891881D01*
X151987690Y-87891881D02*
X152559119Y-87891881D01*
X152273405Y-87891881D02*
X152273405Y-86891881D01*
X152368643Y-87034738D01*
X152463881Y-87129976D01*
X152559119Y-87177595D01*
X148851881Y-86344785D02*
X147851881Y-86344785D01*
X147851881Y-86725738D01*
X147899500Y-86820976D01*
X147947119Y-86868595D01*
X148042357Y-86916214D01*
X148185214Y-86916214D01*
X148280452Y-86868595D01*
X148328071Y-86820976D01*
X148375690Y-86725738D01*
X148375690Y-86344785D01*
X148566167Y-87297166D02*
X148566167Y-87773357D01*
X148851881Y-87201928D02*
X147851881Y-87535261D01*
X148851881Y-87868595D01*
X148851881Y-88725738D02*
X148851881Y-88154309D01*
X148851881Y-88440023D02*
X147851881Y-88440023D01*
X147994738Y-88344785D01*
X148089976Y-88249547D01*
X148137595Y-88154309D01*
X147851881Y-89344785D02*
X147851881Y-89440024D01*
X147899500Y-89535262D01*
X147947119Y-89582881D01*
X148042357Y-89630500D01*
X148232833Y-89678119D01*
X148470929Y-89678119D01*
X148661405Y-89630500D01*
X148756643Y-89582881D01*
X148804262Y-89535262D01*
X148851881Y-89440024D01*
X148851881Y-89344785D01*
X148804262Y-89249547D01*
X148756643Y-89201928D01*
X148661405Y-89154309D01*
X148470929Y-89106690D01*
X148232833Y-89106690D01*
X148042357Y-89154309D01*
X147947119Y-89201928D01*
X147899500Y-89249547D01*
X147851881Y-89344785D01*
X148947119Y-89868595D02*
X148947119Y-90630500D01*
X148375690Y-91059071D02*
X148851881Y-91059071D01*
X147851881Y-90725738D02*
X148375690Y-91059071D01*
X147851881Y-91392405D01*
X148328071Y-91725738D02*
X148328071Y-92059072D01*
X148851881Y-92201929D02*
X148851881Y-91725738D01*
X147851881Y-91725738D01*
X147851881Y-92201929D01*
X148851881Y-93106691D02*
X148851881Y-92630500D01*
X147851881Y-92630500D01*
X148851881Y-93916215D02*
X148851881Y-93440024D01*
X147851881Y-93440024D01*
X147851881Y-94440024D02*
X147851881Y-94630501D01*
X147899500Y-94725739D01*
X147994738Y-94820977D01*
X148185214Y-94868596D01*
X148518548Y-94868596D01*
X148709024Y-94820977D01*
X148804262Y-94725739D01*
X148851881Y-94630501D01*
X148851881Y-94440024D01*
X148804262Y-94344786D01*
X148709024Y-94249548D01*
X148518548Y-94201929D01*
X148185214Y-94201929D01*
X147994738Y-94249548D01*
X147899500Y-94344786D01*
X147851881Y-94440024D01*
X147851881Y-95201929D02*
X148851881Y-95440024D01*
X148137595Y-95630501D01*
X148851881Y-95820977D01*
X147851881Y-96059072D01*
X148851881Y-96963834D02*
X148851881Y-96392405D01*
X148851881Y-96678119D02*
X147851881Y-96678119D01*
X147994738Y-96582881D01*
X148089976Y-96487643D01*
X148137595Y-96392405D01*
X145105381Y-86114143D02*
X144105381Y-86114143D01*
X144105381Y-86495096D01*
X144153000Y-86590334D01*
X144200619Y-86637953D01*
X144295857Y-86685572D01*
X144438714Y-86685572D01*
X144533952Y-86637953D01*
X144581571Y-86590334D01*
X144629190Y-86495096D01*
X144629190Y-86114143D01*
X144819667Y-87066524D02*
X144819667Y-87542715D01*
X145105381Y-86971286D02*
X144105381Y-87304619D01*
X145105381Y-87637953D01*
X145105381Y-88495096D02*
X145105381Y-87923667D01*
X145105381Y-88209381D02*
X144105381Y-88209381D01*
X144248238Y-88114143D01*
X144343476Y-88018905D01*
X144391095Y-87923667D01*
X145105381Y-89447477D02*
X145105381Y-88876048D01*
X145105381Y-89161762D02*
X144105381Y-89161762D01*
X144248238Y-89066524D01*
X144343476Y-88971286D01*
X144391095Y-88876048D01*
X142549357Y-87383881D02*
X142549357Y-86383881D01*
X142168404Y-86383881D01*
X142073166Y-86431500D01*
X142025547Y-86479119D01*
X141977928Y-86574357D01*
X141977928Y-86717214D01*
X142025547Y-86812452D01*
X142073166Y-86860071D01*
X142168404Y-86907690D01*
X142549357Y-86907690D01*
X141596976Y-87098167D02*
X141120785Y-87098167D01*
X141692214Y-87383881D02*
X141358881Y-86383881D01*
X141025547Y-87383881D01*
X140168404Y-87383881D02*
X140739833Y-87383881D01*
X140454119Y-87383881D02*
X140454119Y-86383881D01*
X140549357Y-86526738D01*
X140644595Y-86621976D01*
X140739833Y-86669595D01*
X139787452Y-86479119D02*
X139739833Y-86431500D01*
X139644595Y-86383881D01*
X139406499Y-86383881D01*
X139311261Y-86431500D01*
X139263642Y-86479119D01*
X139216023Y-86574357D01*
X139216023Y-86669595D01*
X139263642Y-86812452D01*
X139835071Y-87383881D01*
X139216023Y-87383881D01*
X171536667Y-96464381D02*
X171536667Y-95464381D01*
X171155714Y-95464381D01*
X171060476Y-95512000D01*
X171012857Y-95559619D01*
X170965238Y-95654857D01*
X170965238Y-95797714D01*
X171012857Y-95892952D01*
X171060476Y-95940571D01*
X171155714Y-95988190D01*
X171536667Y-95988190D01*
X170203333Y-95940571D02*
X170060476Y-95988190D01*
X170012857Y-96035810D01*
X169965238Y-96131048D01*
X169965238Y-96273905D01*
X170012857Y-96369143D01*
X170060476Y-96416762D01*
X170155714Y-96464381D01*
X170536667Y-96464381D01*
X170536667Y-95464381D01*
X170203333Y-95464381D01*
X170108095Y-95512000D01*
X170060476Y-95559619D01*
X170012857Y-95654857D01*
X170012857Y-95750095D01*
X170060476Y-95845333D01*
X170108095Y-95892952D01*
X170203333Y-95940571D01*
X170536667Y-95940571D01*
X169346191Y-95464381D02*
X169250952Y-95464381D01*
X169155714Y-95512000D01*
X169108095Y-95559619D01*
X169060476Y-95654857D01*
X169012857Y-95845333D01*
X169012857Y-96083429D01*
X169060476Y-96273905D01*
X169108095Y-96369143D01*
X169155714Y-96416762D01*
X169250952Y-96464381D01*
X169346191Y-96464381D01*
X169441429Y-96416762D01*
X169489048Y-96369143D01*
X169536667Y-96273905D01*
X169584286Y-96083429D01*
X169584286Y-95845333D01*
X169536667Y-95654857D01*
X169489048Y-95559619D01*
X169441429Y-95512000D01*
X169346191Y-95464381D01*
X168822381Y-96559619D02*
X168060476Y-96559619D01*
X167822381Y-96464381D02*
X167822381Y-95464381D01*
X167393810Y-95559619D02*
X167346191Y-95512000D01*
X167250953Y-95464381D01*
X167012857Y-95464381D01*
X166917619Y-95512000D01*
X166870000Y-95559619D01*
X166822381Y-95654857D01*
X166822381Y-95750095D01*
X166870000Y-95892952D01*
X167441429Y-96464381D01*
X166822381Y-96464381D01*
X165822381Y-96369143D02*
X165870000Y-96416762D01*
X166012857Y-96464381D01*
X166108095Y-96464381D01*
X166250953Y-96416762D01*
X166346191Y-96321524D01*
X166393810Y-96226286D01*
X166441429Y-96035810D01*
X166441429Y-95892952D01*
X166393810Y-95702476D01*
X166346191Y-95607238D01*
X166250953Y-95512000D01*
X166108095Y-95464381D01*
X166012857Y-95464381D01*
X165870000Y-95512000D01*
X165822381Y-95559619D01*
X164870000Y-96464381D02*
X165441429Y-96464381D01*
X165155715Y-96464381D02*
X165155715Y-95464381D01*
X165250953Y-95607238D01*
X165346191Y-95702476D01*
X165441429Y-95750095D01*
X164489048Y-96416762D02*
X164346191Y-96464381D01*
X164108095Y-96464381D01*
X164012857Y-96416762D01*
X163965238Y-96369143D01*
X163917619Y-96273905D01*
X163917619Y-96178667D01*
X163965238Y-96083429D01*
X164012857Y-96035810D01*
X164108095Y-95988190D01*
X164298572Y-95940571D01*
X164393810Y-95892952D01*
X164441429Y-95845333D01*
X164489048Y-95750095D01*
X164489048Y-95654857D01*
X164441429Y-95559619D01*
X164393810Y-95512000D01*
X164298572Y-95464381D01*
X164060476Y-95464381D01*
X163917619Y-95512000D01*
X162917619Y-96369143D02*
X162965238Y-96416762D01*
X163108095Y-96464381D01*
X163203333Y-96464381D01*
X163346191Y-96416762D01*
X163441429Y-96321524D01*
X163489048Y-96226286D01*
X163536667Y-96035810D01*
X163536667Y-95892952D01*
X163489048Y-95702476D01*
X163441429Y-95607238D01*
X163346191Y-95512000D01*
X163203333Y-95464381D01*
X163108095Y-95464381D01*
X162965238Y-95512000D01*
X162917619Y-95559619D01*
X162012857Y-96464381D02*
X162489048Y-96464381D01*
X162489048Y-95464381D01*
X161155714Y-96464381D02*
X161727143Y-96464381D01*
X161441429Y-96464381D02*
X161441429Y-95464381D01*
X161536667Y-95607238D01*
X161631905Y-95702476D01*
X161727143Y-95750095D01*
X159562705Y-104346381D02*
X159562705Y-105155905D01*
X159515086Y-105251143D01*
X159467467Y-105298762D01*
X159372229Y-105346381D01*
X159181752Y-105346381D01*
X159086514Y-105298762D01*
X159038895Y-105251143D01*
X158991276Y-105155905D01*
X158991276Y-104346381D01*
X157991276Y-105346381D02*
X158562705Y-105346381D01*
X158276991Y-105346381D02*
X158276991Y-104346381D01*
X158372229Y-104489238D01*
X158467467Y-104584476D01*
X158562705Y-104632095D01*
M02*
