M48
;DRILL file {kicad (2015-04-17 BZR 5609)-product} date Friday, 04 September 2015 01:21:16 pm
;FORMAT={-:-/ absolute / inch / decimal}
FMAT,2
INCH,TZ
T1C0.016
T2C0.040
%
G90
G05
M72
T1
X4.704Y-4.746
X5.4Y-4.46
X5.63Y-3.975
X5.665Y-4.213
X5.721Y-4.344
X5.75Y-5.28
X5.7725Y-4.505
X5.785Y-4.06
X5.904Y-4.428
X6.Y-4.2
X6.192Y-3.486
X6.21Y-3.99
T2
X5.142Y-3.524
X5.242Y-3.524
X5.342Y-3.524
X5.424Y-4.968
X5.442Y-3.524
X5.542Y-3.524
X5.5512Y-3.315
X5.562Y-4.968
X5.642Y-3.524
X5.6449Y-5.1732
X5.6929Y-3.315
X5.7449Y-5.1732
X5.8346Y-3.315
X5.8449Y-5.1732
X5.9449Y-5.1732
X6.036Y-3.81
X6.1575Y-3.3386
X6.2598Y-3.6063
X6.26Y-3.76
X6.3Y-4.698
X6.438Y-4.698
X6.576Y-4.698
X6.714Y-4.698
X7.5512Y-3.6378
X7.5512Y-3.7378
X7.5512Y-3.8378
X7.5512Y-3.9378
X7.5512Y-4.0378
X7.5512Y-4.1378
X7.5512Y-4.2378
T0
M30
