G04 #@! TF.FileFunction,Soldermask,Top*
%FSLAX46Y46*%
G04 Gerber Fmt 4.6, Leading zero omitted, Abs format (unit mm)*
G04 Created by KiCad (PCBNEW (2015-04-17 BZR 5609)-product) date Friday, 04 September 2015 01:49:06 pm*
%MOMM*%
G01*
G04 APERTURE LIST*
%ADD10C,0.100000*%
%ADD11C,2.235200*%
%ADD12R,1.250000X1.500000*%
%ADD13R,1.500000X1.250000*%
%ADD14R,1.198880X1.198880*%
%ADD15R,1.727200X2.032000*%
%ADD16O,1.727200X2.032000*%
%ADD17R,2.235200X2.235200*%
%ADD18R,1.300000X1.500000*%
%ADD19R,1.500000X1.300000*%
%ADD20R,0.600000X1.200000*%
%ADD21R,1.200000X0.600000*%
%ADD22R,2.032000X1.727200*%
%ADD23O,2.032000X1.727200*%
%ADD24R,1.500000X2.200000*%
%ADD25R,2.200000X1.500000*%
G04 APERTURE END LIST*
D10*
D11*
X137769600Y-126187200D03*
D12*
X155181300Y-102166100D03*
X155181300Y-104666100D03*
X148259800Y-120339800D03*
X148259800Y-122839800D03*
X152857200Y-102229600D03*
X152857200Y-104729600D03*
D13*
X142347000Y-119888000D03*
X139847000Y-119888000D03*
D14*
X153255980Y-92710000D03*
X155354020Y-92710000D03*
X153255980Y-90678000D03*
X155354020Y-90678000D03*
X153255980Y-88646000D03*
X155354020Y-88646000D03*
D15*
X130606800Y-89509600D03*
D16*
X133146800Y-89509600D03*
X135686800Y-89509600D03*
X138226800Y-89509600D03*
X140766800Y-89509600D03*
X143306800Y-89509600D03*
D17*
X160020000Y-119329200D03*
X163525200Y-119329200D03*
X167030400Y-119329200D03*
X170535600Y-119329200D03*
X159000000Y-91600000D03*
X156400000Y-84800000D03*
X148200000Y-84200000D03*
X144600000Y-84200000D03*
X141000000Y-84200000D03*
X159004000Y-95504000D03*
D18*
X188976000Y-106981000D03*
X188976000Y-109681000D03*
D19*
X148256000Y-92710000D03*
X150956000Y-92710000D03*
X148294100Y-90754200D03*
X150994100Y-90754200D03*
X148256000Y-88646000D03*
X150956000Y-88646000D03*
D20*
X145028000Y-117153000D03*
X145828000Y-117153000D03*
X146628000Y-117153000D03*
X147428000Y-117153000D03*
X148228000Y-117153000D03*
X149028000Y-117153000D03*
X149828000Y-117153000D03*
X150628000Y-117153000D03*
D21*
X152078000Y-115703000D03*
X152078000Y-114903000D03*
X152078000Y-114103000D03*
X152078000Y-113303000D03*
X152078000Y-112503000D03*
X152078000Y-111703000D03*
X152078000Y-110903000D03*
X152078000Y-110103000D03*
D20*
X150628000Y-108653000D03*
X149828000Y-108653000D03*
X149028000Y-108653000D03*
X148228000Y-108653000D03*
X147428000Y-108653000D03*
X146628000Y-108653000D03*
X145828000Y-108653000D03*
X145028000Y-108653000D03*
D21*
X143578000Y-110103000D03*
X143578000Y-110903000D03*
X143578000Y-111703000D03*
X143578000Y-112503000D03*
X143578000Y-113303000D03*
X143578000Y-114103000D03*
X143578000Y-114903000D03*
X143578000Y-115703000D03*
D15*
X151000000Y-131400000D03*
D16*
X148460000Y-131400000D03*
X145920000Y-131400000D03*
X143380000Y-131400000D03*
D18*
X137769600Y-119960400D03*
X137769600Y-122660400D03*
D17*
X141274800Y-126187200D03*
D22*
X191800000Y-92400000D03*
D23*
X191800000Y-94940000D03*
X191800000Y-97480000D03*
X191800000Y-100020000D03*
X191800000Y-102560000D03*
X191800000Y-105100000D03*
X191800000Y-107640000D03*
D17*
X153314400Y-96774000D03*
D24*
X119548000Y-117428400D03*
X115148000Y-117428400D03*
X115148000Y-108428400D03*
X119548000Y-108428400D03*
D25*
X122906400Y-114518800D03*
X122906400Y-110118800D03*
X131906400Y-110118800D03*
X131906400Y-114518800D03*
X122906400Y-121834000D03*
X122906400Y-117434000D03*
X131906400Y-117434000D03*
X131906400Y-121834000D03*
X123058800Y-107051200D03*
X123058800Y-102651200D03*
X132058800Y-102651200D03*
X132058800Y-107051200D03*
D24*
X139512400Y-117428400D03*
X135112400Y-117428400D03*
X135112400Y-108428400D03*
X139512400Y-108428400D03*
M02*
