G04 #@! TF.FileFunction,Legend,Top*
%FSLAX46Y46*%
G04 Gerber Fmt 4.6, Leading zero omitted, Abs format (unit mm)*
G04 Created by KiCad (PCBNEW (2015-04-17 BZR 5609)-product) date Wednesday, 23 September 2015 11:50:23 am*
%MOMM*%
G01*
G04 APERTURE LIST*
%ADD10C,0.100000*%
%ADD11C,0.300000*%
%ADD12C,0.150000*%
%ADD13C,2.235200*%
%ADD14R,1.250000X1.500000*%
%ADD15R,1.500000X1.250000*%
%ADD16R,1.198880X1.198880*%
%ADD17R,1.727200X2.032000*%
%ADD18O,1.727200X2.032000*%
%ADD19R,2.235200X2.235200*%
%ADD20R,1.300000X1.500000*%
%ADD21R,1.500000X1.300000*%
%ADD22R,0.600000X1.200000*%
%ADD23R,1.200000X0.600000*%
%ADD24R,2.032000X1.727200*%
%ADD25O,2.032000X1.727200*%
%ADD26R,1.500000X2.200000*%
%ADD27R,2.200000X1.500000*%
G04 APERTURE END LIST*
D10*
D11*
X144145000Y-119344214D02*
X144073572Y-119415643D01*
X144145000Y-119487071D01*
X144216429Y-119415643D01*
X144145000Y-119344214D01*
X144145000Y-119487071D01*
D12*
X139496800Y-127457200D02*
X139496800Y-124917200D01*
X136676800Y-124637200D02*
X138226800Y-124637200D01*
X136676800Y-124637200D02*
X136676800Y-127737200D01*
X136676800Y-127737200D02*
X138226800Y-127737200D01*
X156031300Y-103916100D02*
X156031300Y-102916100D01*
X154331300Y-102916100D02*
X154331300Y-103916100D01*
X149109800Y-122089800D02*
X149109800Y-121089800D01*
X147409800Y-121089800D02*
X147409800Y-122089800D01*
X153707200Y-103979600D02*
X153707200Y-102979600D01*
X152007200Y-102979600D02*
X152007200Y-103979600D01*
X140597000Y-120738000D02*
X141597000Y-120738000D01*
X141597000Y-119038000D02*
X140597000Y-119038000D01*
X154802840Y-92410280D02*
X154802840Y-92085160D01*
X154802840Y-92085160D02*
X155303220Y-92085160D01*
X155303220Y-92410280D02*
X155303220Y-92085160D01*
X154802840Y-92410280D02*
X155303220Y-92410280D01*
X154802840Y-93032580D02*
X154802840Y-92882720D01*
X154802840Y-92882720D02*
X155054300Y-92882720D01*
X155054300Y-93032580D02*
X155054300Y-92882720D01*
X154802840Y-93032580D02*
X155054300Y-93032580D01*
X154802840Y-92537280D02*
X154802840Y-92387420D01*
X154802840Y-92387420D02*
X155054300Y-92387420D01*
X155054300Y-92537280D02*
X155054300Y-92387420D01*
X154802840Y-92537280D02*
X155054300Y-92537280D01*
X154802840Y-92908120D02*
X154802840Y-92511880D01*
X154802840Y-92511880D02*
X154978100Y-92511880D01*
X154978100Y-92908120D02*
X154978100Y-92511880D01*
X154802840Y-92908120D02*
X154978100Y-92908120D01*
X153306780Y-92410280D02*
X153306780Y-92085160D01*
X153306780Y-92085160D02*
X153807160Y-92085160D01*
X153807160Y-92410280D02*
X153807160Y-92085160D01*
X153306780Y-92410280D02*
X153807160Y-92410280D01*
X153306780Y-93334840D02*
X153306780Y-93009720D01*
X153306780Y-93009720D02*
X153807160Y-93009720D01*
X153807160Y-93334840D02*
X153807160Y-93009720D01*
X153306780Y-93334840D02*
X153807160Y-93334840D01*
X153555700Y-92537280D02*
X153555700Y-92387420D01*
X153555700Y-92387420D02*
X153807160Y-92387420D01*
X153807160Y-92537280D02*
X153807160Y-92387420D01*
X153555700Y-92537280D02*
X153807160Y-92537280D01*
X153555700Y-93032580D02*
X153555700Y-92882720D01*
X153555700Y-92882720D02*
X153807160Y-92882720D01*
X153807160Y-93032580D02*
X153807160Y-92882720D01*
X153555700Y-93032580D02*
X153807160Y-93032580D01*
X153631900Y-92908120D02*
X153631900Y-92511880D01*
X153631900Y-92511880D02*
X153807160Y-92511880D01*
X153807160Y-92908120D02*
X153807160Y-92511880D01*
X153631900Y-92908120D02*
X153807160Y-92908120D01*
X154305000Y-92809060D02*
X154305000Y-92610940D01*
X154305000Y-92610940D02*
X154503120Y-92610940D01*
X154503120Y-92809060D02*
X154503120Y-92610940D01*
X154305000Y-92809060D02*
X154503120Y-92809060D01*
X154802840Y-93309440D02*
X154802840Y-93009720D01*
X154802840Y-93009720D02*
X155102560Y-93009720D01*
X155102560Y-93309440D02*
X155102560Y-93009720D01*
X154802840Y-93309440D02*
X155102560Y-93309440D01*
X155229560Y-93334840D02*
X155229560Y-93108780D01*
X155229560Y-93108780D02*
X155303220Y-93108780D01*
X155303220Y-93334840D02*
X155303220Y-93108780D01*
X155229560Y-93334840D02*
X155303220Y-93334840D01*
X154828240Y-92135960D02*
X153781760Y-92135960D01*
X153807160Y-93284040D02*
X155229560Y-93284040D01*
X155225202Y-93159580D02*
G75*
G03X155225202Y-93159580I-71842J0D01*
G01*
X155303220Y-93057980D02*
G75*
G02X155303220Y-92362020I0J347980D01*
G01*
X153306780Y-92362020D02*
G75*
G02X153306780Y-93057980I0J-347980D01*
G01*
X154802840Y-90378280D02*
X154802840Y-90053160D01*
X154802840Y-90053160D02*
X155303220Y-90053160D01*
X155303220Y-90378280D02*
X155303220Y-90053160D01*
X154802840Y-90378280D02*
X155303220Y-90378280D01*
X154802840Y-91000580D02*
X154802840Y-90850720D01*
X154802840Y-90850720D02*
X155054300Y-90850720D01*
X155054300Y-91000580D02*
X155054300Y-90850720D01*
X154802840Y-91000580D02*
X155054300Y-91000580D01*
X154802840Y-90505280D02*
X154802840Y-90355420D01*
X154802840Y-90355420D02*
X155054300Y-90355420D01*
X155054300Y-90505280D02*
X155054300Y-90355420D01*
X154802840Y-90505280D02*
X155054300Y-90505280D01*
X154802840Y-90876120D02*
X154802840Y-90479880D01*
X154802840Y-90479880D02*
X154978100Y-90479880D01*
X154978100Y-90876120D02*
X154978100Y-90479880D01*
X154802840Y-90876120D02*
X154978100Y-90876120D01*
X153306780Y-90378280D02*
X153306780Y-90053160D01*
X153306780Y-90053160D02*
X153807160Y-90053160D01*
X153807160Y-90378280D02*
X153807160Y-90053160D01*
X153306780Y-90378280D02*
X153807160Y-90378280D01*
X153306780Y-91302840D02*
X153306780Y-90977720D01*
X153306780Y-90977720D02*
X153807160Y-90977720D01*
X153807160Y-91302840D02*
X153807160Y-90977720D01*
X153306780Y-91302840D02*
X153807160Y-91302840D01*
X153555700Y-90505280D02*
X153555700Y-90355420D01*
X153555700Y-90355420D02*
X153807160Y-90355420D01*
X153807160Y-90505280D02*
X153807160Y-90355420D01*
X153555700Y-90505280D02*
X153807160Y-90505280D01*
X153555700Y-91000580D02*
X153555700Y-90850720D01*
X153555700Y-90850720D02*
X153807160Y-90850720D01*
X153807160Y-91000580D02*
X153807160Y-90850720D01*
X153555700Y-91000580D02*
X153807160Y-91000580D01*
X153631900Y-90876120D02*
X153631900Y-90479880D01*
X153631900Y-90479880D02*
X153807160Y-90479880D01*
X153807160Y-90876120D02*
X153807160Y-90479880D01*
X153631900Y-90876120D02*
X153807160Y-90876120D01*
X154305000Y-90777060D02*
X154305000Y-90578940D01*
X154305000Y-90578940D02*
X154503120Y-90578940D01*
X154503120Y-90777060D02*
X154503120Y-90578940D01*
X154305000Y-90777060D02*
X154503120Y-90777060D01*
X154802840Y-91277440D02*
X154802840Y-90977720D01*
X154802840Y-90977720D02*
X155102560Y-90977720D01*
X155102560Y-91277440D02*
X155102560Y-90977720D01*
X154802840Y-91277440D02*
X155102560Y-91277440D01*
X155229560Y-91302840D02*
X155229560Y-91076780D01*
X155229560Y-91076780D02*
X155303220Y-91076780D01*
X155303220Y-91302840D02*
X155303220Y-91076780D01*
X155229560Y-91302840D02*
X155303220Y-91302840D01*
X154828240Y-90103960D02*
X153781760Y-90103960D01*
X153807160Y-91252040D02*
X155229560Y-91252040D01*
X155225202Y-91127580D02*
G75*
G03X155225202Y-91127580I-71842J0D01*
G01*
X155303220Y-91025980D02*
G75*
G02X155303220Y-90330020I0J347980D01*
G01*
X153306780Y-90330020D02*
G75*
G02X153306780Y-91025980I0J-347980D01*
G01*
X154802840Y-88346280D02*
X154802840Y-88021160D01*
X154802840Y-88021160D02*
X155303220Y-88021160D01*
X155303220Y-88346280D02*
X155303220Y-88021160D01*
X154802840Y-88346280D02*
X155303220Y-88346280D01*
X154802840Y-88968580D02*
X154802840Y-88818720D01*
X154802840Y-88818720D02*
X155054300Y-88818720D01*
X155054300Y-88968580D02*
X155054300Y-88818720D01*
X154802840Y-88968580D02*
X155054300Y-88968580D01*
X154802840Y-88473280D02*
X154802840Y-88323420D01*
X154802840Y-88323420D02*
X155054300Y-88323420D01*
X155054300Y-88473280D02*
X155054300Y-88323420D01*
X154802840Y-88473280D02*
X155054300Y-88473280D01*
X154802840Y-88844120D02*
X154802840Y-88447880D01*
X154802840Y-88447880D02*
X154978100Y-88447880D01*
X154978100Y-88844120D02*
X154978100Y-88447880D01*
X154802840Y-88844120D02*
X154978100Y-88844120D01*
X153306780Y-88346280D02*
X153306780Y-88021160D01*
X153306780Y-88021160D02*
X153807160Y-88021160D01*
X153807160Y-88346280D02*
X153807160Y-88021160D01*
X153306780Y-88346280D02*
X153807160Y-88346280D01*
X153306780Y-89270840D02*
X153306780Y-88945720D01*
X153306780Y-88945720D02*
X153807160Y-88945720D01*
X153807160Y-89270840D02*
X153807160Y-88945720D01*
X153306780Y-89270840D02*
X153807160Y-89270840D01*
X153555700Y-88473280D02*
X153555700Y-88323420D01*
X153555700Y-88323420D02*
X153807160Y-88323420D01*
X153807160Y-88473280D02*
X153807160Y-88323420D01*
X153555700Y-88473280D02*
X153807160Y-88473280D01*
X153555700Y-88968580D02*
X153555700Y-88818720D01*
X153555700Y-88818720D02*
X153807160Y-88818720D01*
X153807160Y-88968580D02*
X153807160Y-88818720D01*
X153555700Y-88968580D02*
X153807160Y-88968580D01*
X153631900Y-88844120D02*
X153631900Y-88447880D01*
X153631900Y-88447880D02*
X153807160Y-88447880D01*
X153807160Y-88844120D02*
X153807160Y-88447880D01*
X153631900Y-88844120D02*
X153807160Y-88844120D01*
X154305000Y-88745060D02*
X154305000Y-88546940D01*
X154305000Y-88546940D02*
X154503120Y-88546940D01*
X154503120Y-88745060D02*
X154503120Y-88546940D01*
X154305000Y-88745060D02*
X154503120Y-88745060D01*
X154802840Y-89245440D02*
X154802840Y-88945720D01*
X154802840Y-88945720D02*
X155102560Y-88945720D01*
X155102560Y-89245440D02*
X155102560Y-88945720D01*
X154802840Y-89245440D02*
X155102560Y-89245440D01*
X155229560Y-89270840D02*
X155229560Y-89044780D01*
X155229560Y-89044780D02*
X155303220Y-89044780D01*
X155303220Y-89270840D02*
X155303220Y-89044780D01*
X155229560Y-89270840D02*
X155303220Y-89270840D01*
X154828240Y-88071960D02*
X153781760Y-88071960D01*
X153807160Y-89220040D02*
X155229560Y-89220040D01*
X155225202Y-89095580D02*
G75*
G03X155225202Y-89095580I-71842J0D01*
G01*
X155303220Y-88993980D02*
G75*
G02X155303220Y-88298020I0J347980D01*
G01*
X153306780Y-88298020D02*
G75*
G02X153306780Y-88993980I0J-347980D01*
G01*
X131876800Y-90779600D02*
X144576800Y-90779600D01*
X144576800Y-90779600D02*
X144576800Y-88239600D01*
X144576800Y-88239600D02*
X131876800Y-88239600D01*
X129056800Y-91059600D02*
X130606800Y-91059600D01*
X131876800Y-90779600D02*
X131876800Y-88239600D01*
X130606800Y-87959600D02*
X129056800Y-87959600D01*
X129056800Y-87959600D02*
X129056800Y-91059600D01*
X161290000Y-120599200D02*
X161290000Y-118059200D01*
X158470000Y-117779200D02*
X160020000Y-117779200D01*
X158470000Y-117779200D02*
X158470000Y-120879200D01*
X158470000Y-120879200D02*
X160020000Y-120879200D01*
X164795200Y-120599200D02*
X164795200Y-118059200D01*
X161975200Y-117779200D02*
X163525200Y-117779200D01*
X161975200Y-117779200D02*
X161975200Y-120879200D01*
X161975200Y-120879200D02*
X163525200Y-120879200D01*
X168300400Y-120599200D02*
X168300400Y-118059200D01*
X165480400Y-117779200D02*
X167030400Y-117779200D01*
X165480400Y-117779200D02*
X165480400Y-120879200D01*
X165480400Y-120879200D02*
X167030400Y-120879200D01*
X171805600Y-120599200D02*
X171805600Y-118059200D01*
X168985600Y-117779200D02*
X170535600Y-117779200D01*
X168985600Y-117779200D02*
X168985600Y-120879200D01*
X168985600Y-120879200D02*
X170535600Y-120879200D01*
X160270000Y-92870000D02*
X160270000Y-90330000D01*
X157450000Y-90050000D02*
X159000000Y-90050000D01*
X157450000Y-90050000D02*
X157450000Y-93150000D01*
X157450000Y-93150000D02*
X159000000Y-93150000D01*
X157670000Y-86070000D02*
X157670000Y-83530000D01*
X154850000Y-83250000D02*
X156400000Y-83250000D01*
X154850000Y-83250000D02*
X154850000Y-86350000D01*
X154850000Y-86350000D02*
X156400000Y-86350000D01*
X149470000Y-85470000D02*
X149470000Y-82930000D01*
X146650000Y-82650000D02*
X148200000Y-82650000D01*
X146650000Y-82650000D02*
X146650000Y-85750000D01*
X146650000Y-85750000D02*
X148200000Y-85750000D01*
X145870000Y-85470000D02*
X145870000Y-82930000D01*
X143050000Y-82650000D02*
X144600000Y-82650000D01*
X143050000Y-82650000D02*
X143050000Y-85750000D01*
X143050000Y-85750000D02*
X144600000Y-85750000D01*
X142270000Y-85470000D02*
X142270000Y-82930000D01*
X139450000Y-82650000D02*
X141000000Y-82650000D01*
X139450000Y-82650000D02*
X139450000Y-85750000D01*
X139450000Y-85750000D02*
X141000000Y-85750000D01*
X160274000Y-96774000D02*
X160274000Y-94234000D01*
X157454000Y-93954000D02*
X159004000Y-93954000D01*
X157454000Y-93954000D02*
X157454000Y-97054000D01*
X157454000Y-97054000D02*
X159004000Y-97054000D01*
X188101000Y-108931000D02*
X188101000Y-107731000D01*
X189851000Y-107731000D02*
X189851000Y-108931000D01*
X150206000Y-93585000D02*
X149006000Y-93585000D01*
X149006000Y-91835000D02*
X150206000Y-91835000D01*
X150244100Y-91629200D02*
X149044100Y-91629200D01*
X149044100Y-89879200D02*
X150244100Y-89879200D01*
X150206000Y-89521000D02*
X149006000Y-89521000D01*
X149006000Y-87771000D02*
X150206000Y-87771000D01*
X144203000Y-116528000D02*
X144503000Y-116528000D01*
X144203000Y-109278000D02*
X144503000Y-109278000D01*
X151453000Y-109278000D02*
X151153000Y-109278000D01*
X151453000Y-116528000D02*
X151153000Y-116528000D01*
X144203000Y-116528000D02*
X144203000Y-116228000D01*
X151453000Y-116528000D02*
X151453000Y-116228000D01*
X151453000Y-109278000D02*
X151453000Y-109578000D01*
X144203000Y-109278000D02*
X144203000Y-109578000D01*
X144503000Y-116528000D02*
X144503000Y-117753000D01*
X149730000Y-130130000D02*
X142110000Y-130130000D01*
X149730000Y-132670000D02*
X142110000Y-132670000D01*
X152550000Y-132950000D02*
X151000000Y-132950000D01*
X142110000Y-130130000D02*
X142110000Y-132670000D01*
X149730000Y-132670000D02*
X149730000Y-130130000D01*
X151000000Y-129850000D02*
X152550000Y-129850000D01*
X152550000Y-129850000D02*
X152550000Y-132950000D01*
X136894600Y-121910400D02*
X136894600Y-120710400D01*
X138644600Y-120710400D02*
X138644600Y-121910400D01*
X142544800Y-127457200D02*
X142544800Y-124917200D01*
X139724800Y-124637200D02*
X141274800Y-124637200D01*
X139724800Y-124637200D02*
X139724800Y-127737200D01*
X139724800Y-127737200D02*
X141274800Y-127737200D01*
X193070000Y-93670000D02*
X193070000Y-108910000D01*
X193070000Y-108910000D02*
X190530000Y-108910000D01*
X190530000Y-108910000D02*
X190530000Y-93670000D01*
X193350000Y-90850000D02*
X193350000Y-92400000D01*
X193070000Y-93670000D02*
X190530000Y-93670000D01*
X190250000Y-92400000D02*
X190250000Y-90850000D01*
X190250000Y-90850000D02*
X193350000Y-90850000D01*
X154584400Y-98044000D02*
X154584400Y-95504000D01*
X151764400Y-95224000D02*
X153314400Y-95224000D01*
X151764400Y-95224000D02*
X151764400Y-98324000D01*
X151764400Y-98324000D02*
X153314400Y-98324000D01*
D10*
G36*
X189619466Y-108643306D02*
X189576902Y-109088171D01*
X189464758Y-109417979D01*
X189260678Y-109673872D01*
X188975957Y-109883053D01*
X188675574Y-110002654D01*
X188558451Y-110015867D01*
X188416621Y-109991501D01*
X188130923Y-109921926D01*
X187719121Y-109812429D01*
X187198975Y-109668296D01*
X186588249Y-109494812D01*
X185904704Y-109297263D01*
X185166103Y-109080934D01*
X184390208Y-108851113D01*
X183594782Y-108613084D01*
X182797586Y-108372134D01*
X182016382Y-108133549D01*
X181268933Y-107902613D01*
X180573002Y-107684614D01*
X179946349Y-107484836D01*
X179406738Y-107308567D01*
X179010377Y-107174457D01*
X178772906Y-107100194D01*
X178610311Y-107064402D01*
X178570275Y-107066836D01*
X178613824Y-107133821D01*
X178769896Y-107279007D01*
X179013284Y-107482087D01*
X179318779Y-107722753D01*
X179661174Y-107980699D01*
X180015260Y-108235617D01*
X180059648Y-108266648D01*
X180575740Y-108592909D01*
X181211694Y-108941913D01*
X181923999Y-109291870D01*
X182669145Y-109620994D01*
X183142466Y-109810365D01*
X183726323Y-110061191D01*
X184150259Y-110306769D01*
X184323023Y-110445518D01*
X184656914Y-110756805D01*
X184213023Y-110852003D01*
X183925363Y-110894663D01*
X183535437Y-110927438D01*
X183110242Y-110945328D01*
X182937488Y-110947200D01*
X182191939Y-110903866D01*
X181429571Y-110769746D01*
X180634976Y-110538666D01*
X179792742Y-110204450D01*
X178887459Y-109760922D01*
X177903716Y-109201907D01*
X176826104Y-108521230D01*
X176737294Y-108462604D01*
X176512788Y-108313971D01*
X176324719Y-108889752D01*
X176068902Y-109563886D01*
X175789988Y-110096915D01*
X175493433Y-110481599D01*
X175184696Y-110710694D01*
X174902038Y-110777867D01*
X174785705Y-110737415D01*
X174691562Y-110604059D01*
X174614365Y-110359797D01*
X174548870Y-109986627D01*
X174489834Y-109466548D01*
X174475720Y-109314250D01*
X174441095Y-108959152D01*
X174407944Y-108673331D01*
X174380956Y-108494681D01*
X174369293Y-108454277D01*
X174280525Y-108464460D01*
X174061469Y-108514935D01*
X173744140Y-108597705D01*
X173532904Y-108656664D01*
X173532904Y-105419205D01*
X173163134Y-105023892D01*
X172691177Y-104478501D01*
X172188980Y-103826508D01*
X171678668Y-103102650D01*
X171182364Y-102341660D01*
X170722192Y-101578274D01*
X170320274Y-100847227D01*
X169998736Y-100183253D01*
X169850155Y-99822380D01*
X169658659Y-99312990D01*
X169443768Y-99737056D01*
X169221149Y-100234418D01*
X168991033Y-100850848D01*
X168769107Y-101537675D01*
X168571058Y-102246229D01*
X168412569Y-102927838D01*
X168407671Y-102951896D01*
X168291535Y-103638022D01*
X168219421Y-104312885D01*
X168189921Y-104954989D01*
X168201632Y-105542840D01*
X168253147Y-106054942D01*
X168343062Y-106469800D01*
X168469970Y-106765919D01*
X168632467Y-106921805D01*
X168668029Y-106933993D01*
X169370103Y-107056812D01*
X170098628Y-107089582D01*
X170798904Y-107033717D01*
X171416231Y-106890631D01*
X171500800Y-106860802D01*
X172047924Y-106617824D01*
X172540778Y-106305464D01*
X173041094Y-105884043D01*
X173085804Y-105842054D01*
X173532904Y-105419205D01*
X173532904Y-108656664D01*
X173360552Y-108704771D01*
X173321133Y-108716117D01*
X172383118Y-108958488D01*
X171518004Y-109125319D01*
X170748773Y-109213177D01*
X170098407Y-109218631D01*
X170004264Y-109211387D01*
X169687248Y-109185947D01*
X169493447Y-109188011D01*
X169377674Y-109227352D01*
X169294741Y-109313740D01*
X169254098Y-109373616D01*
X169163040Y-109581909D01*
X169174472Y-109802235D01*
X169297586Y-110065277D01*
X169541575Y-110401721D01*
X169574200Y-110442088D01*
X169846708Y-110776284D01*
X170018623Y-110997385D01*
X170092884Y-111126292D01*
X170072429Y-111183906D01*
X169960199Y-111191129D01*
X169759131Y-111168861D01*
X169674972Y-111158741D01*
X168684190Y-110996542D01*
X167840861Y-110756708D01*
X167140680Y-110436718D01*
X166579339Y-110034056D01*
X166152532Y-109546203D01*
X165855953Y-108970641D01*
X165835093Y-108913291D01*
X165686403Y-108491072D01*
X165185768Y-109021718D01*
X164972284Y-109249841D01*
X164671329Y-109573969D01*
X164309687Y-109965125D01*
X163914140Y-110394335D01*
X163511472Y-110832622D01*
X163457466Y-110891518D01*
X163002582Y-111378291D01*
X162542596Y-111853466D01*
X162094375Y-112301152D01*
X161674787Y-112705462D01*
X161300700Y-113050507D01*
X160988980Y-113320398D01*
X160756496Y-113499247D01*
X160620116Y-113571165D01*
X160611959Y-113571867D01*
X160480800Y-113512993D01*
X160411141Y-113446885D01*
X160369538Y-113349694D01*
X160407169Y-113216435D01*
X160538208Y-113008063D01*
X160603226Y-112917718D01*
X160900811Y-112496446D01*
X161275793Y-111939893D01*
X161730033Y-111245210D01*
X162265397Y-110409550D01*
X162861481Y-109465534D01*
X163372697Y-108658664D01*
X163814351Y-107978715D01*
X164200499Y-107405362D01*
X164545196Y-106918277D01*
X164862499Y-106497135D01*
X165166465Y-106121610D01*
X165207699Y-106072765D01*
X165659156Y-105540613D01*
X165186960Y-105442585D01*
X164714763Y-105344558D01*
X164191948Y-105844181D01*
X163957822Y-106061067D01*
X163719827Y-106264182D01*
X163456324Y-106468563D01*
X163145675Y-106689248D01*
X162766241Y-106941273D01*
X162296385Y-107239677D01*
X161714466Y-107599497D01*
X161314639Y-107843746D01*
X160551158Y-108319416D01*
X159913969Y-108739036D01*
X159410005Y-109097731D01*
X159046200Y-109390626D01*
X158872257Y-109561051D01*
X158700295Y-109789944D01*
X158483235Y-110128115D01*
X158246399Y-110530845D01*
X158015108Y-110953414D01*
X157814682Y-111351102D01*
X157670442Y-111679191D01*
X157665198Y-111692864D01*
X157565724Y-111981266D01*
X157439271Y-112387291D01*
X157299747Y-112864240D01*
X157161064Y-113365415D01*
X157112916Y-113547002D01*
X156918639Y-114250440D01*
X156736816Y-114809452D01*
X156554050Y-115246959D01*
X156401860Y-115508649D01*
X156401860Y-110117828D01*
X156395764Y-110037942D01*
X156276459Y-109996639D01*
X156021877Y-109955356D01*
X155666050Y-109917069D01*
X155243007Y-109884752D01*
X154786781Y-109861378D01*
X154331402Y-109849922D01*
X154237288Y-109849304D01*
X153272110Y-109846534D01*
X153326561Y-110613653D01*
X153389778Y-111230232D01*
X153489463Y-111872723D01*
X153615864Y-112494034D01*
X153759230Y-113047073D01*
X153909810Y-113484750D01*
X153931681Y-113535879D01*
X154114825Y-113911914D01*
X154296253Y-114217826D01*
X154456531Y-114424577D01*
X154576226Y-114503128D01*
X154579011Y-114503200D01*
X154647587Y-114431170D01*
X154766476Y-114236497D01*
X154917284Y-113951308D01*
X155039772Y-113698409D01*
X155271560Y-113186330D01*
X155503124Y-112645828D01*
X155725788Y-112100330D01*
X155930873Y-111573262D01*
X156109701Y-111088052D01*
X156253594Y-110668125D01*
X156353873Y-110336908D01*
X156401860Y-110117828D01*
X156401860Y-115508649D01*
X156356944Y-115585883D01*
X156132099Y-115849145D01*
X155866118Y-116059668D01*
X155545604Y-116240373D01*
X155535882Y-116245144D01*
X155124773Y-116396674D01*
X154736660Y-116420494D01*
X154322847Y-116314564D01*
X154030530Y-116182074D01*
X153519088Y-115868428D01*
X153100302Y-115484768D01*
X152753381Y-115004206D01*
X152457533Y-114399854D01*
X152279127Y-113917046D01*
X152173491Y-113551769D01*
X152053959Y-113055695D01*
X151927664Y-112466048D01*
X151801735Y-111820055D01*
X151683305Y-111154939D01*
X151579505Y-110507927D01*
X151497466Y-109916243D01*
X151472932Y-109708733D01*
X151434159Y-109421397D01*
X151391909Y-109201030D01*
X151361536Y-109108679D01*
X151259330Y-109049915D01*
X151035915Y-108966334D01*
X150734501Y-108873617D01*
X150648719Y-108849957D01*
X149989638Y-108672489D01*
X148269910Y-109338667D01*
X145883001Y-110242755D01*
X143561272Y-111081075D01*
X142728690Y-111366255D01*
X142728690Y-108872867D01*
X142685511Y-108491867D01*
X142574431Y-107937050D01*
X142374996Y-107336199D01*
X142115774Y-106765763D01*
X141912466Y-106423157D01*
X141731737Y-106170535D01*
X141577159Y-105980286D01*
X141480297Y-105891034D01*
X141476348Y-105889521D01*
X141392859Y-105943542D01*
X141228017Y-106114209D01*
X140998652Y-106380203D01*
X140721590Y-106720205D01*
X140701091Y-106746346D01*
X140701091Y-102973821D01*
X140426458Y-102690472D01*
X140058240Y-102403929D01*
X139584822Y-102172658D01*
X139068410Y-102026474D01*
X139025734Y-102019125D01*
X138800127Y-101994096D01*
X138677190Y-102031421D01*
X138594917Y-102154017D01*
X138581234Y-102183406D01*
X138488165Y-102559935D01*
X138497164Y-103016302D01*
X138604176Y-103500393D01*
X138704029Y-103761113D01*
X138830248Y-104016966D01*
X138940584Y-104196492D01*
X139006756Y-104258534D01*
X139113221Y-104218102D01*
X139322906Y-104111082D01*
X139594359Y-103958888D01*
X139651361Y-103925533D01*
X139966173Y-103717616D01*
X140254335Y-103488977D01*
X140454851Y-103288143D01*
X140458779Y-103283177D01*
X140701091Y-102973821D01*
X140701091Y-106746346D01*
X140413659Y-107112896D01*
X140091686Y-107536956D01*
X139772501Y-107971065D01*
X139472929Y-108393905D01*
X139303897Y-108641845D01*
X139081013Y-108995706D01*
X138884790Y-109345067D01*
X138743418Y-109637945D01*
X138698771Y-109757725D01*
X138582880Y-110142867D01*
X138199958Y-109338534D01*
X137961178Y-108775498D01*
X137713174Y-108081155D01*
X137465681Y-107292464D01*
X137228430Y-106446387D01*
X137011156Y-105579884D01*
X136823591Y-104729917D01*
X136675469Y-103933445D01*
X136576523Y-103227431D01*
X136567177Y-103138191D01*
X136510388Y-102568182D01*
X136049624Y-102895051D01*
X135311682Y-103454297D01*
X134530216Y-104111088D01*
X133725096Y-104844102D01*
X133316133Y-105242451D01*
X133316133Y-101124667D01*
X133242516Y-100996500D01*
X133040824Y-100821010D01*
X132739795Y-100614780D01*
X132368164Y-100394390D01*
X131954670Y-100176422D01*
X131528050Y-99977458D01*
X131117040Y-99814079D01*
X130945466Y-99756782D01*
X130647731Y-99672408D01*
X130369460Y-99616368D01*
X130063823Y-99583712D01*
X129683990Y-99569490D01*
X129183128Y-99568754D01*
X129167466Y-99568875D01*
X128524683Y-99586368D01*
X128025716Y-99626982D01*
X127681806Y-99689741D01*
X127643466Y-99701270D01*
X127262466Y-99824650D01*
X127287290Y-100242425D01*
X127381124Y-100891786D01*
X127582287Y-101619754D01*
X127876676Y-102386917D01*
X128250192Y-103153862D01*
X128461064Y-103523025D01*
X128661585Y-103843531D01*
X128879215Y-104171269D01*
X129091751Y-104475221D01*
X129276985Y-104724368D01*
X129412714Y-104887690D01*
X129472465Y-104935867D01*
X129557955Y-104890164D01*
X129745150Y-104768614D01*
X129998510Y-104594556D01*
X130083628Y-104534510D01*
X130605987Y-104127226D01*
X131177434Y-103619655D01*
X131755094Y-103053695D01*
X132296095Y-102471247D01*
X132735305Y-101943053D01*
X132968198Y-101636824D01*
X133156576Y-101378007D01*
X133279275Y-101196418D01*
X133316133Y-101124667D01*
X133316133Y-105242451D01*
X132916188Y-105632018D01*
X132123363Y-106453513D01*
X131366487Y-107287265D01*
X130665430Y-108111953D01*
X130040060Y-108906255D01*
X129510245Y-109648849D01*
X129095854Y-110318412D01*
X129043568Y-110413662D01*
X128806646Y-110853791D01*
X128336153Y-110470529D01*
X127852167Y-110117457D01*
X127316532Y-109813816D01*
X126678289Y-109531819D01*
X126461132Y-109448015D01*
X125954858Y-109242071D01*
X125582177Y-109048617D01*
X125310806Y-108846083D01*
X125108467Y-108612897D01*
X125031664Y-108492777D01*
X124934120Y-108315251D01*
X124870362Y-108151677D01*
X124833840Y-107960466D01*
X124818004Y-107700031D01*
X124816302Y-107328783D01*
X124818143Y-107137200D01*
X124859569Y-106329686D01*
X124971127Y-105488900D01*
X125055507Y-105034126D01*
X125136612Y-104614319D01*
X125200749Y-104252847D01*
X125242484Y-103982710D01*
X125256384Y-103836910D01*
X125254822Y-103823600D01*
X125193556Y-103858822D01*
X125037506Y-104005673D01*
X124802046Y-104247174D01*
X124502547Y-104566346D01*
X124154381Y-104946212D01*
X123772922Y-105369794D01*
X123373540Y-105820113D01*
X122971609Y-106280191D01*
X122582500Y-106733051D01*
X122221587Y-107161714D01*
X122106438Y-107300866D01*
X121522949Y-108031042D01*
X120999773Y-108728507D01*
X120545927Y-109378912D01*
X120170430Y-109967911D01*
X119882299Y-110481158D01*
X119690552Y-110904307D01*
X119604206Y-111223010D01*
X119600133Y-111288145D01*
X119682408Y-111550179D01*
X119919685Y-111808336D01*
X120297636Y-112057214D01*
X120801937Y-112291414D01*
X121418262Y-112505533D01*
X122132284Y-112694171D01*
X122929679Y-112851928D01*
X123796121Y-112973401D01*
X124172133Y-113011842D01*
X124488018Y-113028365D01*
X124940998Y-113035314D01*
X125499160Y-113033600D01*
X126130591Y-113024133D01*
X126803376Y-113007823D01*
X127485603Y-112985579D01*
X128145359Y-112958311D01*
X128750729Y-112926930D01*
X129269801Y-112892346D01*
X129670661Y-112855469D01*
X129675466Y-112854919D01*
X131410907Y-112625247D01*
X133094492Y-112342132D01*
X134711656Y-112009796D01*
X136247831Y-111632463D01*
X137688451Y-111214355D01*
X139018949Y-110759694D01*
X140224760Y-110272704D01*
X141291316Y-109757607D01*
X142192245Y-109226419D01*
X142728690Y-108872867D01*
X142728690Y-111366255D01*
X141315171Y-111850421D01*
X139155142Y-112547590D01*
X137091631Y-113169375D01*
X135135084Y-113712572D01*
X133295947Y-114173975D01*
X131584665Y-114550379D01*
X130776133Y-114706456D01*
X129716001Y-114889995D01*
X128767745Y-115029511D01*
X127881382Y-115130726D01*
X127006925Y-115199361D01*
X126109212Y-115240662D01*
X125111746Y-115253647D01*
X124242416Y-115220986D01*
X123465382Y-115139285D01*
X122744802Y-115005150D01*
X122241669Y-114874447D01*
X121585756Y-114657137D01*
X121050842Y-114412387D01*
X120588597Y-114114139D01*
X120176200Y-113760808D01*
X119913478Y-113526636D01*
X119749989Y-113423013D01*
X119683838Y-113452710D01*
X119713129Y-113618496D01*
X119835967Y-113923141D01*
X119928894Y-114122200D01*
X120268080Y-114723353D01*
X120733865Y-115389341D01*
X121307441Y-116098226D01*
X121969995Y-116828069D01*
X122702717Y-117556932D01*
X123458220Y-118238390D01*
X123744847Y-118488971D01*
X123976567Y-118700161D01*
X124127259Y-118847580D01*
X124172133Y-118904711D01*
X124126411Y-119008250D01*
X124066300Y-119096136D01*
X124002388Y-119155924D01*
X123910017Y-119171938D01*
X123755150Y-119137835D01*
X123503745Y-119047274D01*
X123240800Y-118942313D01*
X121879355Y-118329977D01*
X120589443Y-117629809D01*
X119391328Y-116855782D01*
X118305276Y-116021871D01*
X117351551Y-115142048D01*
X116728063Y-114451725D01*
X116050086Y-113566120D01*
X115508953Y-112706610D01*
X115084551Y-111835741D01*
X114756769Y-110916059D01*
X114675342Y-110629036D01*
X114570817Y-110110817D01*
X114496412Y-109475743D01*
X114453573Y-108773848D01*
X114443742Y-108055165D01*
X114468367Y-107369728D01*
X114528890Y-106767569D01*
X114558614Y-106586867D01*
X114804450Y-105526843D01*
X115140403Y-104537816D01*
X115581478Y-103589434D01*
X116142682Y-102651348D01*
X116839021Y-101693204D01*
X117195907Y-101252867D01*
X118024775Y-100273498D01*
X118847490Y-99329088D01*
X119651382Y-98432965D01*
X120423785Y-97598455D01*
X121152031Y-96838885D01*
X121823454Y-96167580D01*
X122425384Y-95597869D01*
X122945155Y-95143076D01*
X123186732Y-94950328D01*
X123464540Y-94750528D01*
X123649673Y-94652305D01*
X123772970Y-94641405D01*
X123814703Y-94660044D01*
X123942189Y-94770622D01*
X123975119Y-94824249D01*
X123929524Y-94907083D01*
X123788530Y-95102863D01*
X123565368Y-95394639D01*
X123273268Y-95765460D01*
X122925461Y-96198375D01*
X122535177Y-96676434D01*
X122426863Y-96807867D01*
X121923897Y-97419931D01*
X121432107Y-98023899D01*
X120963007Y-98605176D01*
X120528111Y-99149169D01*
X120138933Y-99641282D01*
X119806985Y-100066922D01*
X119543781Y-100411495D01*
X119360836Y-100660407D01*
X119269663Y-100799063D01*
X119261466Y-100820181D01*
X119326918Y-100797718D01*
X119503308Y-100698778D01*
X119760686Y-100540819D01*
X119959966Y-100412982D01*
X121067883Y-99756179D01*
X122201782Y-99218618D01*
X123393013Y-98789048D01*
X124672922Y-98456218D01*
X126072857Y-98208878D01*
X126119466Y-98202321D01*
X126553177Y-98154160D01*
X127107586Y-98111604D01*
X127753262Y-98075242D01*
X128460769Y-98045665D01*
X129200674Y-98023460D01*
X129943543Y-98009220D01*
X130659942Y-98003532D01*
X131320437Y-98006986D01*
X131895595Y-98020172D01*
X132355981Y-98043680D01*
X132632644Y-98071859D01*
X133276937Y-98187650D01*
X133967117Y-98355134D01*
X134712993Y-98578476D01*
X135524375Y-98861839D01*
X136411075Y-99209385D01*
X137382901Y-99625279D01*
X138449665Y-100113684D01*
X139621176Y-100678763D01*
X140907246Y-101324679D01*
X142317684Y-102055596D01*
X143518466Y-102691665D01*
X145282137Y-103620734D01*
X146910057Y-104451502D01*
X148403868Y-105184652D01*
X149765207Y-105820870D01*
X150995713Y-106360839D01*
X152097027Y-106805245D01*
X153070785Y-107154771D01*
X153918629Y-107410101D01*
X154642197Y-107571920D01*
X155243127Y-107640912D01*
X155379428Y-107643730D01*
X155976607Y-107620695D01*
X156523866Y-107547006D01*
X157046003Y-107411632D01*
X157567820Y-107203544D01*
X158114117Y-106911711D01*
X158709694Y-106525104D01*
X159379351Y-106032694D01*
X159872777Y-105645325D01*
X160341442Y-105274432D01*
X160810753Y-104910192D01*
X161248833Y-104576826D01*
X161623803Y-104298558D01*
X161903785Y-104099608D01*
X161933466Y-104079544D01*
X162539104Y-103706919D01*
X163256120Y-103319079D01*
X164031527Y-102941524D01*
X164812337Y-102599755D01*
X165545565Y-102319271D01*
X165701133Y-102266365D01*
X166091872Y-102132234D01*
X166423210Y-102009375D01*
X166662174Y-101910664D01*
X166775787Y-101848976D01*
X166778846Y-101845534D01*
X166829420Y-101737893D01*
X166924138Y-101503260D01*
X167050316Y-101174156D01*
X167195272Y-100783103D01*
X167224598Y-100702534D01*
X167530053Y-99898332D01*
X167814470Y-99238609D01*
X168091725Y-98702148D01*
X168375697Y-98267731D01*
X168680265Y-97914144D01*
X169019305Y-97620170D01*
X169406697Y-97364591D01*
X169408871Y-97363320D01*
X169814610Y-97126257D01*
X170200939Y-97273797D01*
X170668616Y-97506707D01*
X170992201Y-97802487D01*
X171191839Y-98182774D01*
X171249145Y-98399647D01*
X171323079Y-98764025D01*
X171400874Y-99143689D01*
X171434339Y-99305534D01*
X171628624Y-99916312D01*
X171961174Y-100576246D01*
X172417101Y-101262245D01*
X172981522Y-101951222D01*
X173462797Y-102451850D01*
X173696263Y-102674973D01*
X173884501Y-102832420D01*
X174070649Y-102946447D01*
X174297846Y-103039308D01*
X174609230Y-103133262D01*
X174972133Y-103230555D01*
X175802659Y-103456799D01*
X176742222Y-103724938D01*
X177769249Y-104028003D01*
X178862168Y-104359024D01*
X179999406Y-104711034D01*
X181159390Y-105077063D01*
X182320549Y-105450141D01*
X183461309Y-105823301D01*
X184560097Y-106189573D01*
X185595342Y-106541988D01*
X186545471Y-106873577D01*
X187388911Y-107177371D01*
X188104089Y-107446401D01*
X188467614Y-107590245D01*
X188914423Y-107774262D01*
X189227584Y-107917509D01*
X189430839Y-108041690D01*
X189547928Y-108168510D01*
X189602590Y-108319672D01*
X189618566Y-108516881D01*
X189619466Y-108643306D01*
X189619466Y-108643306D01*
X189619466Y-108643306D01*
G37*
X189619466Y-108643306D02*
X189576902Y-109088171D01*
X189464758Y-109417979D01*
X189260678Y-109673872D01*
X188975957Y-109883053D01*
X188675574Y-110002654D01*
X188558451Y-110015867D01*
X188416621Y-109991501D01*
X188130923Y-109921926D01*
X187719121Y-109812429D01*
X187198975Y-109668296D01*
X186588249Y-109494812D01*
X185904704Y-109297263D01*
X185166103Y-109080934D01*
X184390208Y-108851113D01*
X183594782Y-108613084D01*
X182797586Y-108372134D01*
X182016382Y-108133549D01*
X181268933Y-107902613D01*
X180573002Y-107684614D01*
X179946349Y-107484836D01*
X179406738Y-107308567D01*
X179010377Y-107174457D01*
X178772906Y-107100194D01*
X178610311Y-107064402D01*
X178570275Y-107066836D01*
X178613824Y-107133821D01*
X178769896Y-107279007D01*
X179013284Y-107482087D01*
X179318779Y-107722753D01*
X179661174Y-107980699D01*
X180015260Y-108235617D01*
X180059648Y-108266648D01*
X180575740Y-108592909D01*
X181211694Y-108941913D01*
X181923999Y-109291870D01*
X182669145Y-109620994D01*
X183142466Y-109810365D01*
X183726323Y-110061191D01*
X184150259Y-110306769D01*
X184323023Y-110445518D01*
X184656914Y-110756805D01*
X184213023Y-110852003D01*
X183925363Y-110894663D01*
X183535437Y-110927438D01*
X183110242Y-110945328D01*
X182937488Y-110947200D01*
X182191939Y-110903866D01*
X181429571Y-110769746D01*
X180634976Y-110538666D01*
X179792742Y-110204450D01*
X178887459Y-109760922D01*
X177903716Y-109201907D01*
X176826104Y-108521230D01*
X176737294Y-108462604D01*
X176512788Y-108313971D01*
X176324719Y-108889752D01*
X176068902Y-109563886D01*
X175789988Y-110096915D01*
X175493433Y-110481599D01*
X175184696Y-110710694D01*
X174902038Y-110777867D01*
X174785705Y-110737415D01*
X174691562Y-110604059D01*
X174614365Y-110359797D01*
X174548870Y-109986627D01*
X174489834Y-109466548D01*
X174475720Y-109314250D01*
X174441095Y-108959152D01*
X174407944Y-108673331D01*
X174380956Y-108494681D01*
X174369293Y-108454277D01*
X174280525Y-108464460D01*
X174061469Y-108514935D01*
X173744140Y-108597705D01*
X173532904Y-108656664D01*
X173532904Y-105419205D01*
X173163134Y-105023892D01*
X172691177Y-104478501D01*
X172188980Y-103826508D01*
X171678668Y-103102650D01*
X171182364Y-102341660D01*
X170722192Y-101578274D01*
X170320274Y-100847227D01*
X169998736Y-100183253D01*
X169850155Y-99822380D01*
X169658659Y-99312990D01*
X169443768Y-99737056D01*
X169221149Y-100234418D01*
X168991033Y-100850848D01*
X168769107Y-101537675D01*
X168571058Y-102246229D01*
X168412569Y-102927838D01*
X168407671Y-102951896D01*
X168291535Y-103638022D01*
X168219421Y-104312885D01*
X168189921Y-104954989D01*
X168201632Y-105542840D01*
X168253147Y-106054942D01*
X168343062Y-106469800D01*
X168469970Y-106765919D01*
X168632467Y-106921805D01*
X168668029Y-106933993D01*
X169370103Y-107056812D01*
X170098628Y-107089582D01*
X170798904Y-107033717D01*
X171416231Y-106890631D01*
X171500800Y-106860802D01*
X172047924Y-106617824D01*
X172540778Y-106305464D01*
X173041094Y-105884043D01*
X173085804Y-105842054D01*
X173532904Y-105419205D01*
X173532904Y-108656664D01*
X173360552Y-108704771D01*
X173321133Y-108716117D01*
X172383118Y-108958488D01*
X171518004Y-109125319D01*
X170748773Y-109213177D01*
X170098407Y-109218631D01*
X170004264Y-109211387D01*
X169687248Y-109185947D01*
X169493447Y-109188011D01*
X169377674Y-109227352D01*
X169294741Y-109313740D01*
X169254098Y-109373616D01*
X169163040Y-109581909D01*
X169174472Y-109802235D01*
X169297586Y-110065277D01*
X169541575Y-110401721D01*
X169574200Y-110442088D01*
X169846708Y-110776284D01*
X170018623Y-110997385D01*
X170092884Y-111126292D01*
X170072429Y-111183906D01*
X169960199Y-111191129D01*
X169759131Y-111168861D01*
X169674972Y-111158741D01*
X168684190Y-110996542D01*
X167840861Y-110756708D01*
X167140680Y-110436718D01*
X166579339Y-110034056D01*
X166152532Y-109546203D01*
X165855953Y-108970641D01*
X165835093Y-108913291D01*
X165686403Y-108491072D01*
X165185768Y-109021718D01*
X164972284Y-109249841D01*
X164671329Y-109573969D01*
X164309687Y-109965125D01*
X163914140Y-110394335D01*
X163511472Y-110832622D01*
X163457466Y-110891518D01*
X163002582Y-111378291D01*
X162542596Y-111853466D01*
X162094375Y-112301152D01*
X161674787Y-112705462D01*
X161300700Y-113050507D01*
X160988980Y-113320398D01*
X160756496Y-113499247D01*
X160620116Y-113571165D01*
X160611959Y-113571867D01*
X160480800Y-113512993D01*
X160411141Y-113446885D01*
X160369538Y-113349694D01*
X160407169Y-113216435D01*
X160538208Y-113008063D01*
X160603226Y-112917718D01*
X160900811Y-112496446D01*
X161275793Y-111939893D01*
X161730033Y-111245210D01*
X162265397Y-110409550D01*
X162861481Y-109465534D01*
X163372697Y-108658664D01*
X163814351Y-107978715D01*
X164200499Y-107405362D01*
X164545196Y-106918277D01*
X164862499Y-106497135D01*
X165166465Y-106121610D01*
X165207699Y-106072765D01*
X165659156Y-105540613D01*
X165186960Y-105442585D01*
X164714763Y-105344558D01*
X164191948Y-105844181D01*
X163957822Y-106061067D01*
X163719827Y-106264182D01*
X163456324Y-106468563D01*
X163145675Y-106689248D01*
X162766241Y-106941273D01*
X162296385Y-107239677D01*
X161714466Y-107599497D01*
X161314639Y-107843746D01*
X160551158Y-108319416D01*
X159913969Y-108739036D01*
X159410005Y-109097731D01*
X159046200Y-109390626D01*
X158872257Y-109561051D01*
X158700295Y-109789944D01*
X158483235Y-110128115D01*
X158246399Y-110530845D01*
X158015108Y-110953414D01*
X157814682Y-111351102D01*
X157670442Y-111679191D01*
X157665198Y-111692864D01*
X157565724Y-111981266D01*
X157439271Y-112387291D01*
X157299747Y-112864240D01*
X157161064Y-113365415D01*
X157112916Y-113547002D01*
X156918639Y-114250440D01*
X156736816Y-114809452D01*
X156554050Y-115246959D01*
X156401860Y-115508649D01*
X156401860Y-110117828D01*
X156395764Y-110037942D01*
X156276459Y-109996639D01*
X156021877Y-109955356D01*
X155666050Y-109917069D01*
X155243007Y-109884752D01*
X154786781Y-109861378D01*
X154331402Y-109849922D01*
X154237288Y-109849304D01*
X153272110Y-109846534D01*
X153326561Y-110613653D01*
X153389778Y-111230232D01*
X153489463Y-111872723D01*
X153615864Y-112494034D01*
X153759230Y-113047073D01*
X153909810Y-113484750D01*
X153931681Y-113535879D01*
X154114825Y-113911914D01*
X154296253Y-114217826D01*
X154456531Y-114424577D01*
X154576226Y-114503128D01*
X154579011Y-114503200D01*
X154647587Y-114431170D01*
X154766476Y-114236497D01*
X154917284Y-113951308D01*
X155039772Y-113698409D01*
X155271560Y-113186330D01*
X155503124Y-112645828D01*
X155725788Y-112100330D01*
X155930873Y-111573262D01*
X156109701Y-111088052D01*
X156253594Y-110668125D01*
X156353873Y-110336908D01*
X156401860Y-110117828D01*
X156401860Y-115508649D01*
X156356944Y-115585883D01*
X156132099Y-115849145D01*
X155866118Y-116059668D01*
X155545604Y-116240373D01*
X155535882Y-116245144D01*
X155124773Y-116396674D01*
X154736660Y-116420494D01*
X154322847Y-116314564D01*
X154030530Y-116182074D01*
X153519088Y-115868428D01*
X153100302Y-115484768D01*
X152753381Y-115004206D01*
X152457533Y-114399854D01*
X152279127Y-113917046D01*
X152173491Y-113551769D01*
X152053959Y-113055695D01*
X151927664Y-112466048D01*
X151801735Y-111820055D01*
X151683305Y-111154939D01*
X151579505Y-110507927D01*
X151497466Y-109916243D01*
X151472932Y-109708733D01*
X151434159Y-109421397D01*
X151391909Y-109201030D01*
X151361536Y-109108679D01*
X151259330Y-109049915D01*
X151035915Y-108966334D01*
X150734501Y-108873617D01*
X150648719Y-108849957D01*
X149989638Y-108672489D01*
X148269910Y-109338667D01*
X145883001Y-110242755D01*
X143561272Y-111081075D01*
X142728690Y-111366255D01*
X142728690Y-108872867D01*
X142685511Y-108491867D01*
X142574431Y-107937050D01*
X142374996Y-107336199D01*
X142115774Y-106765763D01*
X141912466Y-106423157D01*
X141731737Y-106170535D01*
X141577159Y-105980286D01*
X141480297Y-105891034D01*
X141476348Y-105889521D01*
X141392859Y-105943542D01*
X141228017Y-106114209D01*
X140998652Y-106380203D01*
X140721590Y-106720205D01*
X140701091Y-106746346D01*
X140701091Y-102973821D01*
X140426458Y-102690472D01*
X140058240Y-102403929D01*
X139584822Y-102172658D01*
X139068410Y-102026474D01*
X139025734Y-102019125D01*
X138800127Y-101994096D01*
X138677190Y-102031421D01*
X138594917Y-102154017D01*
X138581234Y-102183406D01*
X138488165Y-102559935D01*
X138497164Y-103016302D01*
X138604176Y-103500393D01*
X138704029Y-103761113D01*
X138830248Y-104016966D01*
X138940584Y-104196492D01*
X139006756Y-104258534D01*
X139113221Y-104218102D01*
X139322906Y-104111082D01*
X139594359Y-103958888D01*
X139651361Y-103925533D01*
X139966173Y-103717616D01*
X140254335Y-103488977D01*
X140454851Y-103288143D01*
X140458779Y-103283177D01*
X140701091Y-102973821D01*
X140701091Y-106746346D01*
X140413659Y-107112896D01*
X140091686Y-107536956D01*
X139772501Y-107971065D01*
X139472929Y-108393905D01*
X139303897Y-108641845D01*
X139081013Y-108995706D01*
X138884790Y-109345067D01*
X138743418Y-109637945D01*
X138698771Y-109757725D01*
X138582880Y-110142867D01*
X138199958Y-109338534D01*
X137961178Y-108775498D01*
X137713174Y-108081155D01*
X137465681Y-107292464D01*
X137228430Y-106446387D01*
X137011156Y-105579884D01*
X136823591Y-104729917D01*
X136675469Y-103933445D01*
X136576523Y-103227431D01*
X136567177Y-103138191D01*
X136510388Y-102568182D01*
X136049624Y-102895051D01*
X135311682Y-103454297D01*
X134530216Y-104111088D01*
X133725096Y-104844102D01*
X133316133Y-105242451D01*
X133316133Y-101124667D01*
X133242516Y-100996500D01*
X133040824Y-100821010D01*
X132739795Y-100614780D01*
X132368164Y-100394390D01*
X131954670Y-100176422D01*
X131528050Y-99977458D01*
X131117040Y-99814079D01*
X130945466Y-99756782D01*
X130647731Y-99672408D01*
X130369460Y-99616368D01*
X130063823Y-99583712D01*
X129683990Y-99569490D01*
X129183128Y-99568754D01*
X129167466Y-99568875D01*
X128524683Y-99586368D01*
X128025716Y-99626982D01*
X127681806Y-99689741D01*
X127643466Y-99701270D01*
X127262466Y-99824650D01*
X127287290Y-100242425D01*
X127381124Y-100891786D01*
X127582287Y-101619754D01*
X127876676Y-102386917D01*
X128250192Y-103153862D01*
X128461064Y-103523025D01*
X128661585Y-103843531D01*
X128879215Y-104171269D01*
X129091751Y-104475221D01*
X129276985Y-104724368D01*
X129412714Y-104887690D01*
X129472465Y-104935867D01*
X129557955Y-104890164D01*
X129745150Y-104768614D01*
X129998510Y-104594556D01*
X130083628Y-104534510D01*
X130605987Y-104127226D01*
X131177434Y-103619655D01*
X131755094Y-103053695D01*
X132296095Y-102471247D01*
X132735305Y-101943053D01*
X132968198Y-101636824D01*
X133156576Y-101378007D01*
X133279275Y-101196418D01*
X133316133Y-101124667D01*
X133316133Y-105242451D01*
X132916188Y-105632018D01*
X132123363Y-106453513D01*
X131366487Y-107287265D01*
X130665430Y-108111953D01*
X130040060Y-108906255D01*
X129510245Y-109648849D01*
X129095854Y-110318412D01*
X129043568Y-110413662D01*
X128806646Y-110853791D01*
X128336153Y-110470529D01*
X127852167Y-110117457D01*
X127316532Y-109813816D01*
X126678289Y-109531819D01*
X126461132Y-109448015D01*
X125954858Y-109242071D01*
X125582177Y-109048617D01*
X125310806Y-108846083D01*
X125108467Y-108612897D01*
X125031664Y-108492777D01*
X124934120Y-108315251D01*
X124870362Y-108151677D01*
X124833840Y-107960466D01*
X124818004Y-107700031D01*
X124816302Y-107328783D01*
X124818143Y-107137200D01*
X124859569Y-106329686D01*
X124971127Y-105488900D01*
X125055507Y-105034126D01*
X125136612Y-104614319D01*
X125200749Y-104252847D01*
X125242484Y-103982710D01*
X125256384Y-103836910D01*
X125254822Y-103823600D01*
X125193556Y-103858822D01*
X125037506Y-104005673D01*
X124802046Y-104247174D01*
X124502547Y-104566346D01*
X124154381Y-104946212D01*
X123772922Y-105369794D01*
X123373540Y-105820113D01*
X122971609Y-106280191D01*
X122582500Y-106733051D01*
X122221587Y-107161714D01*
X122106438Y-107300866D01*
X121522949Y-108031042D01*
X120999773Y-108728507D01*
X120545927Y-109378912D01*
X120170430Y-109967911D01*
X119882299Y-110481158D01*
X119690552Y-110904307D01*
X119604206Y-111223010D01*
X119600133Y-111288145D01*
X119682408Y-111550179D01*
X119919685Y-111808336D01*
X120297636Y-112057214D01*
X120801937Y-112291414D01*
X121418262Y-112505533D01*
X122132284Y-112694171D01*
X122929679Y-112851928D01*
X123796121Y-112973401D01*
X124172133Y-113011842D01*
X124488018Y-113028365D01*
X124940998Y-113035314D01*
X125499160Y-113033600D01*
X126130591Y-113024133D01*
X126803376Y-113007823D01*
X127485603Y-112985579D01*
X128145359Y-112958311D01*
X128750729Y-112926930D01*
X129269801Y-112892346D01*
X129670661Y-112855469D01*
X129675466Y-112854919D01*
X131410907Y-112625247D01*
X133094492Y-112342132D01*
X134711656Y-112009796D01*
X136247831Y-111632463D01*
X137688451Y-111214355D01*
X139018949Y-110759694D01*
X140224760Y-110272704D01*
X141291316Y-109757607D01*
X142192245Y-109226419D01*
X142728690Y-108872867D01*
X142728690Y-111366255D01*
X141315171Y-111850421D01*
X139155142Y-112547590D01*
X137091631Y-113169375D01*
X135135084Y-113712572D01*
X133295947Y-114173975D01*
X131584665Y-114550379D01*
X130776133Y-114706456D01*
X129716001Y-114889995D01*
X128767745Y-115029511D01*
X127881382Y-115130726D01*
X127006925Y-115199361D01*
X126109212Y-115240662D01*
X125111746Y-115253647D01*
X124242416Y-115220986D01*
X123465382Y-115139285D01*
X122744802Y-115005150D01*
X122241669Y-114874447D01*
X121585756Y-114657137D01*
X121050842Y-114412387D01*
X120588597Y-114114139D01*
X120176200Y-113760808D01*
X119913478Y-113526636D01*
X119749989Y-113423013D01*
X119683838Y-113452710D01*
X119713129Y-113618496D01*
X119835967Y-113923141D01*
X119928894Y-114122200D01*
X120268080Y-114723353D01*
X120733865Y-115389341D01*
X121307441Y-116098226D01*
X121969995Y-116828069D01*
X122702717Y-117556932D01*
X123458220Y-118238390D01*
X123744847Y-118488971D01*
X123976567Y-118700161D01*
X124127259Y-118847580D01*
X124172133Y-118904711D01*
X124126411Y-119008250D01*
X124066300Y-119096136D01*
X124002388Y-119155924D01*
X123910017Y-119171938D01*
X123755150Y-119137835D01*
X123503745Y-119047274D01*
X123240800Y-118942313D01*
X121879355Y-118329977D01*
X120589443Y-117629809D01*
X119391328Y-116855782D01*
X118305276Y-116021871D01*
X117351551Y-115142048D01*
X116728063Y-114451725D01*
X116050086Y-113566120D01*
X115508953Y-112706610D01*
X115084551Y-111835741D01*
X114756769Y-110916059D01*
X114675342Y-110629036D01*
X114570817Y-110110817D01*
X114496412Y-109475743D01*
X114453573Y-108773848D01*
X114443742Y-108055165D01*
X114468367Y-107369728D01*
X114528890Y-106767569D01*
X114558614Y-106586867D01*
X114804450Y-105526843D01*
X115140403Y-104537816D01*
X115581478Y-103589434D01*
X116142682Y-102651348D01*
X116839021Y-101693204D01*
X117195907Y-101252867D01*
X118024775Y-100273498D01*
X118847490Y-99329088D01*
X119651382Y-98432965D01*
X120423785Y-97598455D01*
X121152031Y-96838885D01*
X121823454Y-96167580D01*
X122425384Y-95597869D01*
X122945155Y-95143076D01*
X123186732Y-94950328D01*
X123464540Y-94750528D01*
X123649673Y-94652305D01*
X123772970Y-94641405D01*
X123814703Y-94660044D01*
X123942189Y-94770622D01*
X123975119Y-94824249D01*
X123929524Y-94907083D01*
X123788530Y-95102863D01*
X123565368Y-95394639D01*
X123273268Y-95765460D01*
X122925461Y-96198375D01*
X122535177Y-96676434D01*
X122426863Y-96807867D01*
X121923897Y-97419931D01*
X121432107Y-98023899D01*
X120963007Y-98605176D01*
X120528111Y-99149169D01*
X120138933Y-99641282D01*
X119806985Y-100066922D01*
X119543781Y-100411495D01*
X119360836Y-100660407D01*
X119269663Y-100799063D01*
X119261466Y-100820181D01*
X119326918Y-100797718D01*
X119503308Y-100698778D01*
X119760686Y-100540819D01*
X119959966Y-100412982D01*
X121067883Y-99756179D01*
X122201782Y-99218618D01*
X123393013Y-98789048D01*
X124672922Y-98456218D01*
X126072857Y-98208878D01*
X126119466Y-98202321D01*
X126553177Y-98154160D01*
X127107586Y-98111604D01*
X127753262Y-98075242D01*
X128460769Y-98045665D01*
X129200674Y-98023460D01*
X129943543Y-98009220D01*
X130659942Y-98003532D01*
X131320437Y-98006986D01*
X131895595Y-98020172D01*
X132355981Y-98043680D01*
X132632644Y-98071859D01*
X133276937Y-98187650D01*
X133967117Y-98355134D01*
X134712993Y-98578476D01*
X135524375Y-98861839D01*
X136411075Y-99209385D01*
X137382901Y-99625279D01*
X138449665Y-100113684D01*
X139621176Y-100678763D01*
X140907246Y-101324679D01*
X142317684Y-102055596D01*
X143518466Y-102691665D01*
X145282137Y-103620734D01*
X146910057Y-104451502D01*
X148403868Y-105184652D01*
X149765207Y-105820870D01*
X150995713Y-106360839D01*
X152097027Y-106805245D01*
X153070785Y-107154771D01*
X153918629Y-107410101D01*
X154642197Y-107571920D01*
X155243127Y-107640912D01*
X155379428Y-107643730D01*
X155976607Y-107620695D01*
X156523866Y-107547006D01*
X157046003Y-107411632D01*
X157567820Y-107203544D01*
X158114117Y-106911711D01*
X158709694Y-106525104D01*
X159379351Y-106032694D01*
X159872777Y-105645325D01*
X160341442Y-105274432D01*
X160810753Y-104910192D01*
X161248833Y-104576826D01*
X161623803Y-104298558D01*
X161903785Y-104099608D01*
X161933466Y-104079544D01*
X162539104Y-103706919D01*
X163256120Y-103319079D01*
X164031527Y-102941524D01*
X164812337Y-102599755D01*
X165545565Y-102319271D01*
X165701133Y-102266365D01*
X166091872Y-102132234D01*
X166423210Y-102009375D01*
X166662174Y-101910664D01*
X166775787Y-101848976D01*
X166778846Y-101845534D01*
X166829420Y-101737893D01*
X166924138Y-101503260D01*
X167050316Y-101174156D01*
X167195272Y-100783103D01*
X167224598Y-100702534D01*
X167530053Y-99898332D01*
X167814470Y-99238609D01*
X168091725Y-98702148D01*
X168375697Y-98267731D01*
X168680265Y-97914144D01*
X169019305Y-97620170D01*
X169406697Y-97364591D01*
X169408871Y-97363320D01*
X169814610Y-97126257D01*
X170200939Y-97273797D01*
X170668616Y-97506707D01*
X170992201Y-97802487D01*
X171191839Y-98182774D01*
X171249145Y-98399647D01*
X171323079Y-98764025D01*
X171400874Y-99143689D01*
X171434339Y-99305534D01*
X171628624Y-99916312D01*
X171961174Y-100576246D01*
X172417101Y-101262245D01*
X172981522Y-101951222D01*
X173462797Y-102451850D01*
X173696263Y-102674973D01*
X173884501Y-102832420D01*
X174070649Y-102946447D01*
X174297846Y-103039308D01*
X174609230Y-103133262D01*
X174972133Y-103230555D01*
X175802659Y-103456799D01*
X176742222Y-103724938D01*
X177769249Y-104028003D01*
X178862168Y-104359024D01*
X179999406Y-104711034D01*
X181159390Y-105077063D01*
X182320549Y-105450141D01*
X183461309Y-105823301D01*
X184560097Y-106189573D01*
X185595342Y-106541988D01*
X186545471Y-106873577D01*
X187388911Y-107177371D01*
X188104089Y-107446401D01*
X188467614Y-107590245D01*
X188914423Y-107774262D01*
X189227584Y-107917509D01*
X189430839Y-108041690D01*
X189547928Y-108168510D01*
X189602590Y-108319672D01*
X189618566Y-108516881D01*
X189619466Y-108643306D01*
X189619466Y-108643306D01*
G36*
X163429224Y-97811205D02*
X163429216Y-97856958D01*
X163421577Y-97879937D01*
X163377509Y-98039288D01*
X163372800Y-98084792D01*
X163367909Y-98128375D01*
X163333436Y-98146711D01*
X163239679Y-98134466D01*
X163056936Y-98086305D01*
X162755505Y-97996895D01*
X162568466Y-97940341D01*
X162085544Y-97797978D01*
X161464982Y-97620999D01*
X160733242Y-97416563D01*
X159916785Y-97191829D01*
X159042070Y-96953955D01*
X158135559Y-96710100D01*
X157223711Y-96467423D01*
X156332989Y-96233083D01*
X155489851Y-96014238D01*
X154768212Y-95830030D01*
X152881638Y-95369573D01*
X152881638Y-92849053D01*
X152859356Y-92401158D01*
X152790855Y-92020322D01*
X152785880Y-92003283D01*
X152636293Y-91671468D01*
X152372576Y-91262049D01*
X152016101Y-90798971D01*
X151588243Y-90306183D01*
X151110375Y-89807629D01*
X150603869Y-89327256D01*
X150090100Y-88889011D01*
X149820169Y-88680529D01*
X149508522Y-88465226D01*
X149135413Y-88231808D01*
X148729274Y-87995239D01*
X148318538Y-87770480D01*
X147931636Y-87572492D01*
X147597002Y-87416238D01*
X147343067Y-87316680D01*
X147198264Y-87288780D01*
X147184315Y-87293467D01*
X147101567Y-87397429D01*
X146988536Y-87601636D01*
X146927615Y-87731358D01*
X146796596Y-88170719D01*
X146725431Y-88745651D01*
X146713927Y-89433392D01*
X146761891Y-90211183D01*
X146869129Y-91056264D01*
X146960253Y-91577877D01*
X147053446Y-92062886D01*
X148164623Y-92496711D01*
X149085849Y-92850494D01*
X149925749Y-93161244D01*
X150671928Y-93424843D01*
X151311992Y-93637176D01*
X151833546Y-93794123D01*
X152224194Y-93891569D01*
X152465400Y-93925330D01*
X152633445Y-93895235D01*
X152738304Y-93767120D01*
X152787285Y-93639477D01*
X152857636Y-93287371D01*
X152881638Y-92849053D01*
X152881638Y-95369573D01*
X152028761Y-95161412D01*
X149400929Y-94570508D01*
X146848968Y-94051621D01*
X144915466Y-93703257D01*
X144915466Y-91350627D01*
X144872151Y-91263700D01*
X144762669Y-91088593D01*
X144699372Y-90993621D01*
X144370580Y-90432130D01*
X144056287Y-89754077D01*
X143775916Y-89012158D01*
X143548892Y-88259071D01*
X143394640Y-87547516D01*
X143370595Y-87388700D01*
X143320309Y-87035306D01*
X143277404Y-86817136D01*
X143226772Y-86701582D01*
X143153306Y-86656033D01*
X143041897Y-86647881D01*
X143027356Y-86647867D01*
X142674043Y-86703123D01*
X142219977Y-86858899D01*
X141688228Y-87100208D01*
X141101863Y-87412063D01*
X140483953Y-87779475D01*
X139857564Y-88187457D01*
X139245767Y-88621023D01*
X138671630Y-89065184D01*
X138158222Y-89504952D01*
X137728611Y-89925342D01*
X137421400Y-90289986D01*
X137263209Y-90513146D01*
X137156051Y-90678975D01*
X137126133Y-90741113D01*
X137162060Y-90790836D01*
X137276357Y-90837559D01*
X137478795Y-90882157D01*
X137779148Y-90925503D01*
X138187188Y-90968471D01*
X138712689Y-91011933D01*
X139365421Y-91056764D01*
X140155158Y-91103836D01*
X141091674Y-91154023D01*
X142184739Y-91208198D01*
X142544800Y-91225366D01*
X143107183Y-91253325D01*
X143610931Y-91280951D01*
X144032138Y-91306721D01*
X144346900Y-91329111D01*
X144531311Y-91346599D01*
X144569744Y-91354353D01*
X144668431Y-91383921D01*
X144813221Y-91385951D01*
X144909857Y-91361458D01*
X144915466Y-91350627D01*
X144915466Y-93703257D01*
X144337130Y-93599058D01*
X141829666Y-93207123D01*
X139290828Y-92870123D01*
X136684868Y-92582364D01*
X133976038Y-92338149D01*
X131855633Y-92180155D01*
X131268591Y-92137751D01*
X130741378Y-92095406D01*
X130296268Y-92055259D01*
X129955535Y-92019446D01*
X129741450Y-91990105D01*
X129675466Y-91970968D01*
X129750745Y-91869080D01*
X129950163Y-91743245D01*
X130234090Y-91612576D01*
X130562898Y-91496182D01*
X130782571Y-91437083D01*
X131270379Y-91341382D01*
X131884974Y-91247476D01*
X132583841Y-91160394D01*
X133324464Y-91085165D01*
X134064328Y-91026819D01*
X134437966Y-91004649D01*
X135517466Y-90948816D01*
X135517533Y-90682175D01*
X135552657Y-90480177D01*
X135643344Y-90199465D01*
X135767675Y-89891175D01*
X135903731Y-89606445D01*
X136029593Y-89396409D01*
X136101258Y-89320351D01*
X136215588Y-89202496D01*
X136279814Y-89102550D01*
X136312010Y-89024926D01*
X136286096Y-88980970D01*
X136172799Y-88965412D01*
X135942846Y-88972978D01*
X135663490Y-88991555D01*
X135274466Y-89006635D01*
X134789458Y-89007517D01*
X134281176Y-88994734D01*
X133969353Y-88979138D01*
X133547164Y-88951156D01*
X133265635Y-88925133D01*
X133096345Y-88893856D01*
X133010870Y-88850112D01*
X132980787Y-88786688D01*
X132977466Y-88727425D01*
X133000534Y-88637867D01*
X133084596Y-88541994D01*
X133251939Y-88424601D01*
X133524850Y-88270485D01*
X133925617Y-88064440D01*
X134014633Y-88019875D01*
X134472552Y-87787765D01*
X135019973Y-87504874D01*
X135597980Y-87201945D01*
X136147656Y-86909719D01*
X136321800Y-86816007D01*
X137846336Y-86031934D01*
X139290097Y-85369831D01*
X140648431Y-84831263D01*
X141916684Y-84417796D01*
X143090204Y-84130995D01*
X144164340Y-83972425D01*
X144874098Y-83938534D01*
X145859589Y-84017556D01*
X146888302Y-84251057D01*
X147947520Y-84633690D01*
X149024524Y-85160108D01*
X150106598Y-85824964D01*
X151096133Y-86554686D01*
X151663379Y-87036477D01*
X152269934Y-87602482D01*
X152889638Y-88224183D01*
X153496333Y-88873064D01*
X154063861Y-89520606D01*
X154566063Y-90138292D01*
X154976781Y-90697603D01*
X155170123Y-90996122D01*
X155456466Y-91469064D01*
X156387800Y-91467595D01*
X156871059Y-91452621D01*
X157439369Y-91413355D01*
X158011274Y-91356321D01*
X158377466Y-91308226D01*
X158778296Y-91249934D01*
X159112434Y-91204206D01*
X159347654Y-91175242D01*
X159451725Y-91167244D01*
X159453901Y-91167921D01*
X159425273Y-91245673D01*
X159334046Y-91445320D01*
X159194000Y-91737624D01*
X159018912Y-92093351D01*
X158997737Y-92135833D01*
X158677282Y-92728977D01*
X158352342Y-93210633D01*
X157989216Y-93614553D01*
X157554202Y-93974488D01*
X157013597Y-94324189D01*
X156558299Y-94578821D01*
X156297699Y-94732318D01*
X156168528Y-94840554D01*
X156177299Y-94891279D01*
X156324536Y-94937868D01*
X156570649Y-95014724D01*
X156768800Y-95076225D01*
X157113730Y-95190690D01*
X157583197Y-95357504D01*
X158145206Y-95564421D01*
X158767764Y-95799194D01*
X159418880Y-96049575D01*
X160066559Y-96303318D01*
X160678810Y-96548175D01*
X161223639Y-96771901D01*
X161467800Y-96875015D01*
X162078321Y-97136551D01*
X162550127Y-97340774D01*
X162900384Y-97496513D01*
X163146256Y-97612596D01*
X163304909Y-97697853D01*
X163393510Y-97761113D01*
X163429224Y-97811205D01*
X163429224Y-97811205D01*
X163429224Y-97811205D01*
G37*
X163429224Y-97811205D02*
X163429216Y-97856958D01*
X163421577Y-97879937D01*
X163377509Y-98039288D01*
X163372800Y-98084792D01*
X163367909Y-98128375D01*
X163333436Y-98146711D01*
X163239679Y-98134466D01*
X163056936Y-98086305D01*
X162755505Y-97996895D01*
X162568466Y-97940341D01*
X162085544Y-97797978D01*
X161464982Y-97620999D01*
X160733242Y-97416563D01*
X159916785Y-97191829D01*
X159042070Y-96953955D01*
X158135559Y-96710100D01*
X157223711Y-96467423D01*
X156332989Y-96233083D01*
X155489851Y-96014238D01*
X154768212Y-95830030D01*
X152881638Y-95369573D01*
X152881638Y-92849053D01*
X152859356Y-92401158D01*
X152790855Y-92020322D01*
X152785880Y-92003283D01*
X152636293Y-91671468D01*
X152372576Y-91262049D01*
X152016101Y-90798971D01*
X151588243Y-90306183D01*
X151110375Y-89807629D01*
X150603869Y-89327256D01*
X150090100Y-88889011D01*
X149820169Y-88680529D01*
X149508522Y-88465226D01*
X149135413Y-88231808D01*
X148729274Y-87995239D01*
X148318538Y-87770480D01*
X147931636Y-87572492D01*
X147597002Y-87416238D01*
X147343067Y-87316680D01*
X147198264Y-87288780D01*
X147184315Y-87293467D01*
X147101567Y-87397429D01*
X146988536Y-87601636D01*
X146927615Y-87731358D01*
X146796596Y-88170719D01*
X146725431Y-88745651D01*
X146713927Y-89433392D01*
X146761891Y-90211183D01*
X146869129Y-91056264D01*
X146960253Y-91577877D01*
X147053446Y-92062886D01*
X148164623Y-92496711D01*
X149085849Y-92850494D01*
X149925749Y-93161244D01*
X150671928Y-93424843D01*
X151311992Y-93637176D01*
X151833546Y-93794123D01*
X152224194Y-93891569D01*
X152465400Y-93925330D01*
X152633445Y-93895235D01*
X152738304Y-93767120D01*
X152787285Y-93639477D01*
X152857636Y-93287371D01*
X152881638Y-92849053D01*
X152881638Y-95369573D01*
X152028761Y-95161412D01*
X149400929Y-94570508D01*
X146848968Y-94051621D01*
X144915466Y-93703257D01*
X144915466Y-91350627D01*
X144872151Y-91263700D01*
X144762669Y-91088593D01*
X144699372Y-90993621D01*
X144370580Y-90432130D01*
X144056287Y-89754077D01*
X143775916Y-89012158D01*
X143548892Y-88259071D01*
X143394640Y-87547516D01*
X143370595Y-87388700D01*
X143320309Y-87035306D01*
X143277404Y-86817136D01*
X143226772Y-86701582D01*
X143153306Y-86656033D01*
X143041897Y-86647881D01*
X143027356Y-86647867D01*
X142674043Y-86703123D01*
X142219977Y-86858899D01*
X141688228Y-87100208D01*
X141101863Y-87412063D01*
X140483953Y-87779475D01*
X139857564Y-88187457D01*
X139245767Y-88621023D01*
X138671630Y-89065184D01*
X138158222Y-89504952D01*
X137728611Y-89925342D01*
X137421400Y-90289986D01*
X137263209Y-90513146D01*
X137156051Y-90678975D01*
X137126133Y-90741113D01*
X137162060Y-90790836D01*
X137276357Y-90837559D01*
X137478795Y-90882157D01*
X137779148Y-90925503D01*
X138187188Y-90968471D01*
X138712689Y-91011933D01*
X139365421Y-91056764D01*
X140155158Y-91103836D01*
X141091674Y-91154023D01*
X142184739Y-91208198D01*
X142544800Y-91225366D01*
X143107183Y-91253325D01*
X143610931Y-91280951D01*
X144032138Y-91306721D01*
X144346900Y-91329111D01*
X144531311Y-91346599D01*
X144569744Y-91354353D01*
X144668431Y-91383921D01*
X144813221Y-91385951D01*
X144909857Y-91361458D01*
X144915466Y-91350627D01*
X144915466Y-93703257D01*
X144337130Y-93599058D01*
X141829666Y-93207123D01*
X139290828Y-92870123D01*
X136684868Y-92582364D01*
X133976038Y-92338149D01*
X131855633Y-92180155D01*
X131268591Y-92137751D01*
X130741378Y-92095406D01*
X130296268Y-92055259D01*
X129955535Y-92019446D01*
X129741450Y-91990105D01*
X129675466Y-91970968D01*
X129750745Y-91869080D01*
X129950163Y-91743245D01*
X130234090Y-91612576D01*
X130562898Y-91496182D01*
X130782571Y-91437083D01*
X131270379Y-91341382D01*
X131884974Y-91247476D01*
X132583841Y-91160394D01*
X133324464Y-91085165D01*
X134064328Y-91026819D01*
X134437966Y-91004649D01*
X135517466Y-90948816D01*
X135517533Y-90682175D01*
X135552657Y-90480177D01*
X135643344Y-90199465D01*
X135767675Y-89891175D01*
X135903731Y-89606445D01*
X136029593Y-89396409D01*
X136101258Y-89320351D01*
X136215588Y-89202496D01*
X136279814Y-89102550D01*
X136312010Y-89024926D01*
X136286096Y-88980970D01*
X136172799Y-88965412D01*
X135942846Y-88972978D01*
X135663490Y-88991555D01*
X135274466Y-89006635D01*
X134789458Y-89007517D01*
X134281176Y-88994734D01*
X133969353Y-88979138D01*
X133547164Y-88951156D01*
X133265635Y-88925133D01*
X133096345Y-88893856D01*
X133010870Y-88850112D01*
X132980787Y-88786688D01*
X132977466Y-88727425D01*
X133000534Y-88637867D01*
X133084596Y-88541994D01*
X133251939Y-88424601D01*
X133524850Y-88270485D01*
X133925617Y-88064440D01*
X134014633Y-88019875D01*
X134472552Y-87787765D01*
X135019973Y-87504874D01*
X135597980Y-87201945D01*
X136147656Y-86909719D01*
X136321800Y-86816007D01*
X137846336Y-86031934D01*
X139290097Y-85369831D01*
X140648431Y-84831263D01*
X141916684Y-84417796D01*
X143090204Y-84130995D01*
X144164340Y-83972425D01*
X144874098Y-83938534D01*
X145859589Y-84017556D01*
X146888302Y-84251057D01*
X147947520Y-84633690D01*
X149024524Y-85160108D01*
X150106598Y-85824964D01*
X151096133Y-86554686D01*
X151663379Y-87036477D01*
X152269934Y-87602482D01*
X152889638Y-88224183D01*
X153496333Y-88873064D01*
X154063861Y-89520606D01*
X154566063Y-90138292D01*
X154976781Y-90697603D01*
X155170123Y-90996122D01*
X155456466Y-91469064D01*
X156387800Y-91467595D01*
X156871059Y-91452621D01*
X157439369Y-91413355D01*
X158011274Y-91356321D01*
X158377466Y-91308226D01*
X158778296Y-91249934D01*
X159112434Y-91204206D01*
X159347654Y-91175242D01*
X159451725Y-91167244D01*
X159453901Y-91167921D01*
X159425273Y-91245673D01*
X159334046Y-91445320D01*
X159194000Y-91737624D01*
X159018912Y-92093351D01*
X158997737Y-92135833D01*
X158677282Y-92728977D01*
X158352342Y-93210633D01*
X157989216Y-93614553D01*
X157554202Y-93974488D01*
X157013597Y-94324189D01*
X156558299Y-94578821D01*
X156297699Y-94732318D01*
X156168528Y-94840554D01*
X156177299Y-94891279D01*
X156324536Y-94937868D01*
X156570649Y-95014724D01*
X156768800Y-95076225D01*
X157113730Y-95190690D01*
X157583197Y-95357504D01*
X158145206Y-95564421D01*
X158767764Y-95799194D01*
X159418880Y-96049575D01*
X160066559Y-96303318D01*
X160678810Y-96548175D01*
X161223639Y-96771901D01*
X161467800Y-96875015D01*
X162078321Y-97136551D01*
X162550127Y-97340774D01*
X162900384Y-97496513D01*
X163146256Y-97612596D01*
X163304909Y-97697853D01*
X163393510Y-97761113D01*
X163429224Y-97811205D01*
X163429224Y-97811205D01*
D12*
X132227867Y-125912571D02*
X132370724Y-125960190D01*
X132418343Y-126007810D01*
X132465962Y-126103048D01*
X132465962Y-126245905D01*
X132418343Y-126341143D01*
X132370724Y-126388762D01*
X132275486Y-126436381D01*
X131894533Y-126436381D01*
X131894533Y-125436381D01*
X132227867Y-125436381D01*
X132323105Y-125484000D01*
X132370724Y-125531619D01*
X132418343Y-125626857D01*
X132418343Y-125722095D01*
X132370724Y-125817333D01*
X132323105Y-125864952D01*
X132227867Y-125912571D01*
X131894533Y-125912571D01*
X133085009Y-125436381D02*
X133275486Y-125436381D01*
X133370724Y-125484000D01*
X133465962Y-125579238D01*
X133513581Y-125769714D01*
X133513581Y-126103048D01*
X133465962Y-126293524D01*
X133370724Y-126388762D01*
X133275486Y-126436381D01*
X133085009Y-126436381D01*
X132989771Y-126388762D01*
X132894533Y-126293524D01*
X132846914Y-126103048D01*
X132846914Y-125769714D01*
X132894533Y-125579238D01*
X132989771Y-125484000D01*
X133085009Y-125436381D01*
X134132628Y-125436381D02*
X134323105Y-125436381D01*
X134418343Y-125484000D01*
X134513581Y-125579238D01*
X134561200Y-125769714D01*
X134561200Y-126103048D01*
X134513581Y-126293524D01*
X134418343Y-126388762D01*
X134323105Y-126436381D01*
X134132628Y-126436381D01*
X134037390Y-126388762D01*
X133942152Y-126293524D01*
X133894533Y-126103048D01*
X133894533Y-125769714D01*
X133942152Y-125579238D01*
X134037390Y-125484000D01*
X134132628Y-125436381D01*
X134846914Y-125436381D02*
X135418343Y-125436381D01*
X135132628Y-126436381D02*
X135132628Y-125436381D01*
X135942152Y-125436381D02*
X136037391Y-125436381D01*
X136132629Y-125484000D01*
X136180248Y-125531619D01*
X136227867Y-125626857D01*
X136275486Y-125817333D01*
X136275486Y-126055429D01*
X136227867Y-126245905D01*
X136180248Y-126341143D01*
X136132629Y-126388762D01*
X136037391Y-126436381D01*
X135942152Y-126436381D01*
X135846914Y-126388762D01*
X135799295Y-126341143D01*
X135751676Y-126245905D01*
X135704057Y-126055429D01*
X135704057Y-125817333D01*
X135751676Y-125626857D01*
X135799295Y-125531619D01*
X135846914Y-125484000D01*
X135942152Y-125436381D01*
X157638443Y-103582766D02*
X157686062Y-103630385D01*
X157733681Y-103773242D01*
X157733681Y-103868480D01*
X157686062Y-104011338D01*
X157590824Y-104106576D01*
X157495586Y-104154195D01*
X157305110Y-104201814D01*
X157162252Y-104201814D01*
X156971776Y-104154195D01*
X156876538Y-104106576D01*
X156781300Y-104011338D01*
X156733681Y-103868480D01*
X156733681Y-103773242D01*
X156781300Y-103630385D01*
X156828919Y-103582766D01*
X157733681Y-102630385D02*
X157733681Y-103201814D01*
X157733681Y-102916100D02*
X156733681Y-102916100D01*
X156876538Y-103011338D01*
X156971776Y-103106576D01*
X157019395Y-103201814D01*
X150716943Y-121756466D02*
X150764562Y-121804085D01*
X150812181Y-121946942D01*
X150812181Y-122042180D01*
X150764562Y-122185038D01*
X150669324Y-122280276D01*
X150574086Y-122327895D01*
X150383610Y-122375514D01*
X150240752Y-122375514D01*
X150050276Y-122327895D01*
X149955038Y-122280276D01*
X149859800Y-122185038D01*
X149812181Y-122042180D01*
X149812181Y-121946942D01*
X149859800Y-121804085D01*
X149907419Y-121756466D01*
X149907419Y-121375514D02*
X149859800Y-121327895D01*
X149812181Y-121232657D01*
X149812181Y-120994561D01*
X149859800Y-120899323D01*
X149907419Y-120851704D01*
X150002657Y-120804085D01*
X150097895Y-120804085D01*
X150240752Y-120851704D01*
X150812181Y-121423133D01*
X150812181Y-120804085D01*
X151233143Y-103671666D02*
X151280762Y-103719285D01*
X151328381Y-103862142D01*
X151328381Y-103957380D01*
X151280762Y-104100238D01*
X151185524Y-104195476D01*
X151090286Y-104243095D01*
X150899810Y-104290714D01*
X150756952Y-104290714D01*
X150566476Y-104243095D01*
X150471238Y-104195476D01*
X150376000Y-104100238D01*
X150328381Y-103957380D01*
X150328381Y-103862142D01*
X150376000Y-103719285D01*
X150423619Y-103671666D01*
X150328381Y-102766904D02*
X150328381Y-103243095D01*
X150804571Y-103290714D01*
X150756952Y-103243095D01*
X150709333Y-103147857D01*
X150709333Y-102909761D01*
X150756952Y-102814523D01*
X150804571Y-102766904D01*
X150899810Y-102719285D01*
X151137905Y-102719285D01*
X151233143Y-102766904D01*
X151280762Y-102814523D01*
X151328381Y-102909761D01*
X151328381Y-103147857D01*
X151280762Y-103243095D01*
X151233143Y-103290714D01*
X140930334Y-122340643D02*
X140882715Y-122388262D01*
X140739858Y-122435881D01*
X140644620Y-122435881D01*
X140501762Y-122388262D01*
X140406524Y-122293024D01*
X140358905Y-122197786D01*
X140311286Y-122007310D01*
X140311286Y-121864452D01*
X140358905Y-121673976D01*
X140406524Y-121578738D01*
X140501762Y-121483500D01*
X140644620Y-121435881D01*
X140739858Y-121435881D01*
X140882715Y-121483500D01*
X140930334Y-121531119D01*
X141787477Y-121435881D02*
X141597000Y-121435881D01*
X141501762Y-121483500D01*
X141454143Y-121531119D01*
X141358905Y-121673976D01*
X141311286Y-121864452D01*
X141311286Y-122245405D01*
X141358905Y-122340643D01*
X141406524Y-122388262D01*
X141501762Y-122435881D01*
X141692239Y-122435881D01*
X141787477Y-122388262D01*
X141835096Y-122340643D01*
X141882715Y-122245405D01*
X141882715Y-122007310D01*
X141835096Y-121912071D01*
X141787477Y-121864452D01*
X141692239Y-121816833D01*
X141501762Y-121816833D01*
X141406524Y-121864452D01*
X141358905Y-121912071D01*
X141311286Y-122007310D01*
X153439905Y-97480381D02*
X153439905Y-96480381D01*
X153678000Y-96480381D01*
X153820858Y-96528000D01*
X153916096Y-96623238D01*
X153963715Y-96718476D01*
X154011334Y-96908952D01*
X154011334Y-97051810D01*
X153963715Y-97242286D01*
X153916096Y-97337524D01*
X153820858Y-97432762D01*
X153678000Y-97480381D01*
X153439905Y-97480381D01*
X154392286Y-96575619D02*
X154439905Y-96528000D01*
X154535143Y-96480381D01*
X154773239Y-96480381D01*
X154868477Y-96528000D01*
X154916096Y-96575619D01*
X154963715Y-96670857D01*
X154963715Y-96766095D01*
X154916096Y-96908952D01*
X154344667Y-97480381D01*
X154963715Y-97480381D01*
X153439905Y-96210381D02*
X153439905Y-95210381D01*
X153678000Y-95210381D01*
X153820858Y-95258000D01*
X153916096Y-95353238D01*
X153963715Y-95448476D01*
X154011334Y-95638952D01*
X154011334Y-95781810D01*
X153963715Y-95972286D01*
X153916096Y-96067524D01*
X153820858Y-96162762D01*
X153678000Y-96210381D01*
X153439905Y-96210381D01*
X154344667Y-95210381D02*
X154963715Y-95210381D01*
X154630381Y-95591333D01*
X154773239Y-95591333D01*
X154868477Y-95638952D01*
X154916096Y-95686571D01*
X154963715Y-95781810D01*
X154963715Y-96019905D01*
X154916096Y-96115143D01*
X154868477Y-96162762D01*
X154773239Y-96210381D01*
X154487524Y-96210381D01*
X154392286Y-96162762D01*
X154344667Y-96115143D01*
X153439905Y-94813381D02*
X153439905Y-93813381D01*
X153678000Y-93813381D01*
X153820858Y-93861000D01*
X153916096Y-93956238D01*
X153963715Y-94051476D01*
X154011334Y-94241952D01*
X154011334Y-94384810D01*
X153963715Y-94575286D01*
X153916096Y-94670524D01*
X153820858Y-94765762D01*
X153678000Y-94813381D01*
X153439905Y-94813381D01*
X154868477Y-94146714D02*
X154868477Y-94813381D01*
X154630381Y-93765762D02*
X154392286Y-94480048D01*
X155011334Y-94480048D01*
X187650381Y-108973857D02*
X187174190Y-109307191D01*
X187650381Y-109545286D02*
X186650381Y-109545286D01*
X186650381Y-109164333D01*
X186698000Y-109069095D01*
X186745619Y-109021476D01*
X186840857Y-108973857D01*
X186983714Y-108973857D01*
X187078952Y-109021476D01*
X187126571Y-109069095D01*
X187174190Y-109164333D01*
X187174190Y-109545286D01*
X187650381Y-108021476D02*
X187650381Y-108592905D01*
X187650381Y-108307191D02*
X186650381Y-108307191D01*
X186793238Y-108402429D01*
X186888476Y-108497667D01*
X186936095Y-108592905D01*
X186745619Y-107640524D02*
X186698000Y-107592905D01*
X186650381Y-107497667D01*
X186650381Y-107259571D01*
X186698000Y-107164333D01*
X186745619Y-107116714D01*
X186840857Y-107069095D01*
X186936095Y-107069095D01*
X187078952Y-107116714D01*
X187650381Y-107688143D01*
X187650381Y-107069095D01*
X145089643Y-93098881D02*
X144756309Y-92622690D01*
X144518214Y-93098881D02*
X144518214Y-92098881D01*
X144899167Y-92098881D01*
X144994405Y-92146500D01*
X145042024Y-92194119D01*
X145089643Y-92289357D01*
X145089643Y-92432214D01*
X145042024Y-92527452D01*
X144994405Y-92575071D01*
X144899167Y-92622690D01*
X144518214Y-92622690D01*
X146042024Y-93098881D02*
X145470595Y-93098881D01*
X145756309Y-93098881D02*
X145756309Y-92098881D01*
X145661071Y-92241738D01*
X145565833Y-92336976D01*
X145470595Y-92384595D01*
X146375357Y-92098881D02*
X146994405Y-92098881D01*
X146661071Y-92479833D01*
X146803929Y-92479833D01*
X146899167Y-92527452D01*
X146946786Y-92575071D01*
X146994405Y-92670310D01*
X146994405Y-92908405D01*
X146946786Y-93003643D01*
X146899167Y-93051262D01*
X146803929Y-93098881D01*
X146518214Y-93098881D01*
X146422976Y-93051262D01*
X146375357Y-93003643D01*
X145153143Y-91193881D02*
X144819809Y-90717690D01*
X144581714Y-91193881D02*
X144581714Y-90193881D01*
X144962667Y-90193881D01*
X145057905Y-90241500D01*
X145105524Y-90289119D01*
X145153143Y-90384357D01*
X145153143Y-90527214D01*
X145105524Y-90622452D01*
X145057905Y-90670071D01*
X144962667Y-90717690D01*
X144581714Y-90717690D01*
X146105524Y-91193881D02*
X145534095Y-91193881D01*
X145819809Y-91193881D02*
X145819809Y-90193881D01*
X145724571Y-90336738D01*
X145629333Y-90431976D01*
X145534095Y-90479595D01*
X146962667Y-90527214D02*
X146962667Y-91193881D01*
X146724571Y-90146262D02*
X146486476Y-90860548D01*
X147105524Y-90860548D01*
X145089643Y-89098381D02*
X144756309Y-88622190D01*
X144518214Y-89098381D02*
X144518214Y-88098381D01*
X144899167Y-88098381D01*
X144994405Y-88146000D01*
X145042024Y-88193619D01*
X145089643Y-88288857D01*
X145089643Y-88431714D01*
X145042024Y-88526952D01*
X144994405Y-88574571D01*
X144899167Y-88622190D01*
X144518214Y-88622190D01*
X146042024Y-89098381D02*
X145470595Y-89098381D01*
X145756309Y-89098381D02*
X145756309Y-88098381D01*
X145661071Y-88241238D01*
X145565833Y-88336476D01*
X145470595Y-88384095D01*
X146946786Y-88098381D02*
X146470595Y-88098381D01*
X146422976Y-88574571D01*
X146470595Y-88526952D01*
X146565833Y-88479333D01*
X146803929Y-88479333D01*
X146899167Y-88526952D01*
X146946786Y-88574571D01*
X146994405Y-88669810D01*
X146994405Y-88907905D01*
X146946786Y-89003143D01*
X146899167Y-89050762D01*
X146803929Y-89098381D01*
X146565833Y-89098381D01*
X146470595Y-89050762D01*
X146422976Y-89003143D01*
X142811595Y-106449881D02*
X142811595Y-107259405D01*
X142859214Y-107354643D01*
X142906833Y-107402262D01*
X143002071Y-107449881D01*
X143192548Y-107449881D01*
X143287786Y-107402262D01*
X143335405Y-107354643D01*
X143383024Y-107259405D01*
X143383024Y-106449881D01*
X143763976Y-106449881D02*
X144383024Y-106449881D01*
X144049690Y-106830833D01*
X144192548Y-106830833D01*
X144287786Y-106878452D01*
X144335405Y-106926071D01*
X144383024Y-107021310D01*
X144383024Y-107259405D01*
X144335405Y-107354643D01*
X144287786Y-107402262D01*
X144192548Y-107449881D01*
X143906833Y-107449881D01*
X143811595Y-107402262D01*
X143763976Y-107354643D01*
X144037467Y-129230381D02*
X144037467Y-128230381D01*
X144466038Y-128325619D02*
X144513657Y-128278000D01*
X144608895Y-128230381D01*
X144846991Y-128230381D01*
X144942229Y-128278000D01*
X144989848Y-128325619D01*
X145037467Y-128420857D01*
X145037467Y-128516095D01*
X144989848Y-128658952D01*
X144418419Y-129230381D01*
X145037467Y-129230381D01*
X146037467Y-129135143D02*
X145989848Y-129182762D01*
X145846991Y-129230381D01*
X145751753Y-129230381D01*
X145608895Y-129182762D01*
X145513657Y-129087524D01*
X145466038Y-128992286D01*
X145418419Y-128801810D01*
X145418419Y-128658952D01*
X145466038Y-128468476D01*
X145513657Y-128373238D01*
X145608895Y-128278000D01*
X145751753Y-128230381D01*
X145846991Y-128230381D01*
X145989848Y-128278000D01*
X146037467Y-128325619D01*
X146227943Y-129325619D02*
X146989848Y-129325619D01*
X147561277Y-128706571D02*
X147704134Y-128754190D01*
X147751753Y-128801810D01*
X147799372Y-128897048D01*
X147799372Y-129039905D01*
X147751753Y-129135143D01*
X147704134Y-129182762D01*
X147608896Y-129230381D01*
X147227943Y-129230381D01*
X147227943Y-128230381D01*
X147561277Y-128230381D01*
X147656515Y-128278000D01*
X147704134Y-128325619D01*
X147751753Y-128420857D01*
X147751753Y-128516095D01*
X147704134Y-128611333D01*
X147656515Y-128658952D01*
X147561277Y-128706571D01*
X147227943Y-128706571D01*
X148227943Y-128230381D02*
X148227943Y-129039905D01*
X148275562Y-129135143D01*
X148323181Y-129182762D01*
X148418419Y-129230381D01*
X148608896Y-129230381D01*
X148704134Y-129182762D01*
X148751753Y-129135143D01*
X148799372Y-129039905D01*
X148799372Y-128230381D01*
X149227943Y-129182762D02*
X149370800Y-129230381D01*
X149608896Y-129230381D01*
X149704134Y-129182762D01*
X149751753Y-129135143D01*
X149799372Y-129039905D01*
X149799372Y-128944667D01*
X149751753Y-128849429D01*
X149704134Y-128801810D01*
X149608896Y-128754190D01*
X149418419Y-128706571D01*
X149323181Y-128658952D01*
X149275562Y-128611333D01*
X149227943Y-128516095D01*
X149227943Y-128420857D01*
X149275562Y-128325619D01*
X149323181Y-128278000D01*
X149418419Y-128230381D01*
X149656515Y-128230381D01*
X149799372Y-128278000D01*
X150751753Y-129230381D02*
X150180324Y-129230381D01*
X150466038Y-129230381D02*
X150466038Y-128230381D01*
X150370800Y-128373238D01*
X150275562Y-128468476D01*
X150180324Y-128516095D01*
X136405881Y-121451666D02*
X135929690Y-121785000D01*
X136405881Y-122023095D02*
X135405881Y-122023095D01*
X135405881Y-121642142D01*
X135453500Y-121546904D01*
X135501119Y-121499285D01*
X135596357Y-121451666D01*
X135739214Y-121451666D01*
X135834452Y-121499285D01*
X135882071Y-121546904D01*
X135929690Y-121642142D01*
X135929690Y-122023095D01*
X136405881Y-120499285D02*
X136405881Y-121070714D01*
X136405881Y-120785000D02*
X135405881Y-120785000D01*
X135548738Y-120880238D01*
X135643976Y-120975476D01*
X135691595Y-121070714D01*
X143541976Y-125563381D02*
X143875309Y-126563381D01*
X144208643Y-125563381D01*
X144541976Y-126563381D02*
X144541976Y-125563381D01*
X144780071Y-125563381D01*
X144922929Y-125611000D01*
X145018167Y-125706238D01*
X145065786Y-125801476D01*
X145113405Y-125991952D01*
X145113405Y-126134810D01*
X145065786Y-126325286D01*
X145018167Y-126420524D01*
X144922929Y-126515762D01*
X144780071Y-126563381D01*
X144541976Y-126563381D01*
X145541976Y-126563381D02*
X145541976Y-125563381D01*
X145780071Y-125563381D01*
X145922929Y-125611000D01*
X146018167Y-125706238D01*
X146065786Y-125801476D01*
X146113405Y-125991952D01*
X146113405Y-126134810D01*
X146065786Y-126325286D01*
X146018167Y-126420524D01*
X145922929Y-126515762D01*
X145780071Y-126563381D01*
X145541976Y-126563381D01*
X147065786Y-126563381D02*
X146494357Y-126563381D01*
X146780071Y-126563381D02*
X146780071Y-125563381D01*
X146684833Y-125706238D01*
X146589595Y-125801476D01*
X146494357Y-125849095D01*
X189253762Y-103266500D02*
X189301381Y-103123643D01*
X189301381Y-102885547D01*
X189253762Y-102790309D01*
X189206143Y-102742690D01*
X189110905Y-102695071D01*
X189015667Y-102695071D01*
X188920429Y-102742690D01*
X188872810Y-102790309D01*
X188825190Y-102885547D01*
X188777571Y-103076024D01*
X188729952Y-103171262D01*
X188682333Y-103218881D01*
X188587095Y-103266500D01*
X188491857Y-103266500D01*
X188396619Y-103218881D01*
X188349000Y-103171262D01*
X188301381Y-103076024D01*
X188301381Y-102837928D01*
X188349000Y-102695071D01*
X189301381Y-102266500D02*
X188301381Y-102266500D01*
X188301381Y-101885547D01*
X188349000Y-101790309D01*
X188396619Y-101742690D01*
X188491857Y-101695071D01*
X188634714Y-101695071D01*
X188729952Y-101742690D01*
X188777571Y-101790309D01*
X188825190Y-101885547D01*
X188825190Y-102266500D01*
X189301381Y-101266500D02*
X188301381Y-101266500D01*
X188777571Y-100456976D02*
X188825190Y-100314119D01*
X188872810Y-100266500D01*
X188968048Y-100218881D01*
X189110905Y-100218881D01*
X189206143Y-100266500D01*
X189253762Y-100314119D01*
X189301381Y-100409357D01*
X189301381Y-100790310D01*
X188301381Y-100790310D01*
X188301381Y-100456976D01*
X188349000Y-100361738D01*
X188396619Y-100314119D01*
X188491857Y-100266500D01*
X188587095Y-100266500D01*
X188682333Y-100314119D01*
X188729952Y-100361738D01*
X188777571Y-100456976D01*
X188777571Y-100790310D01*
X188301381Y-99790310D02*
X189110905Y-99790310D01*
X189206143Y-99742691D01*
X189253762Y-99695072D01*
X189301381Y-99599834D01*
X189301381Y-99409357D01*
X189253762Y-99314119D01*
X189206143Y-99266500D01*
X189110905Y-99218881D01*
X188301381Y-99218881D01*
X189253762Y-98790310D02*
X189301381Y-98647453D01*
X189301381Y-98409357D01*
X189253762Y-98314119D01*
X189206143Y-98266500D01*
X189110905Y-98218881D01*
X189015667Y-98218881D01*
X188920429Y-98266500D01*
X188872810Y-98314119D01*
X188825190Y-98409357D01*
X188777571Y-98599834D01*
X188729952Y-98695072D01*
X188682333Y-98742691D01*
X188587095Y-98790310D01*
X188491857Y-98790310D01*
X188396619Y-98742691D01*
X188349000Y-98695072D01*
X188301381Y-98599834D01*
X188301381Y-98361738D01*
X188349000Y-98218881D01*
X189301381Y-97266500D02*
X189301381Y-97837929D01*
X189301381Y-97552215D02*
X188301381Y-97552215D01*
X188444238Y-97647453D01*
X188539476Y-97742691D01*
X188587095Y-97837929D01*
%LPC*%
D13*
X138226800Y-126187200D03*
D14*
X155181300Y-102166100D03*
X155181300Y-104666100D03*
X148259800Y-120339800D03*
X148259800Y-122839800D03*
X152857200Y-102229600D03*
X152857200Y-104729600D03*
D15*
X142347000Y-119888000D03*
X139847000Y-119888000D03*
D16*
X153255980Y-92710000D03*
X155354020Y-92710000D03*
X153255980Y-90678000D03*
X155354020Y-90678000D03*
X153255980Y-88646000D03*
X155354020Y-88646000D03*
D17*
X130606800Y-89509600D03*
D18*
X133146800Y-89509600D03*
X135686800Y-89509600D03*
X138226800Y-89509600D03*
X140766800Y-89509600D03*
X143306800Y-89509600D03*
D19*
X160020000Y-119329200D03*
X163525200Y-119329200D03*
X167030400Y-119329200D03*
X170535600Y-119329200D03*
X159000000Y-91600000D03*
X156400000Y-84800000D03*
X148200000Y-84200000D03*
X144600000Y-84200000D03*
X141000000Y-84200000D03*
X159004000Y-95504000D03*
D20*
X188976000Y-106981000D03*
X188976000Y-109681000D03*
D21*
X148256000Y-92710000D03*
X150956000Y-92710000D03*
X148294100Y-90754200D03*
X150994100Y-90754200D03*
X148256000Y-88646000D03*
X150956000Y-88646000D03*
D22*
X145028000Y-117153000D03*
X145828000Y-117153000D03*
X146628000Y-117153000D03*
X147428000Y-117153000D03*
X148228000Y-117153000D03*
X149028000Y-117153000D03*
X149828000Y-117153000D03*
X150628000Y-117153000D03*
D23*
X152078000Y-115703000D03*
X152078000Y-114903000D03*
X152078000Y-114103000D03*
X152078000Y-113303000D03*
X152078000Y-112503000D03*
X152078000Y-111703000D03*
X152078000Y-110903000D03*
X152078000Y-110103000D03*
D22*
X150628000Y-108653000D03*
X149828000Y-108653000D03*
X149028000Y-108653000D03*
X148228000Y-108653000D03*
X147428000Y-108653000D03*
X146628000Y-108653000D03*
X145828000Y-108653000D03*
X145028000Y-108653000D03*
D23*
X143578000Y-110103000D03*
X143578000Y-110903000D03*
X143578000Y-111703000D03*
X143578000Y-112503000D03*
X143578000Y-113303000D03*
X143578000Y-114103000D03*
X143578000Y-114903000D03*
X143578000Y-115703000D03*
D17*
X151000000Y-131400000D03*
D18*
X148460000Y-131400000D03*
X145920000Y-131400000D03*
X143380000Y-131400000D03*
D20*
X137769600Y-119960400D03*
X137769600Y-122660400D03*
D19*
X141274800Y-126187200D03*
D24*
X191800000Y-92400000D03*
D25*
X191800000Y-94940000D03*
X191800000Y-97480000D03*
X191800000Y-100020000D03*
X191800000Y-102560000D03*
X191800000Y-105100000D03*
X191800000Y-107640000D03*
D19*
X153314400Y-96774000D03*
D26*
X119548000Y-117428400D03*
X115148000Y-117428400D03*
X115148000Y-108428400D03*
X119548000Y-108428400D03*
D27*
X122906400Y-114518800D03*
X122906400Y-110118800D03*
X131906400Y-110118800D03*
X131906400Y-114518800D03*
X122906400Y-121834000D03*
X122906400Y-117434000D03*
X131906400Y-117434000D03*
X131906400Y-121834000D03*
X123058800Y-107051200D03*
X123058800Y-102651200D03*
X132058800Y-102651200D03*
X132058800Y-107051200D03*
D26*
X139512400Y-117428400D03*
X135112400Y-117428400D03*
X135112400Y-108428400D03*
X139512400Y-108428400D03*
M02*
