#define threatbutt_width 64
#define threatbutt_height 64
static unsigned char threatbutt_bits[] = {
   0x00, 0x00, 0x00, 0x00, 0x00, 0x00, 0x00, 0x00, 0x00, 0x00, 0x00, 0x00,
   0x00, 0x00, 0x00, 0x00, 0x00, 0x00, 0x00, 0x00, 0x00, 0x00, 0x00, 0x00,
   0x00, 0x00, 0x00, 0x00, 0x00, 0x00, 0x00, 0x00, 0x00, 0x00, 0xfe, 0x00,
   0x00, 0x00, 0x00, 0x00, 0x00, 0x80, 0xff, 0x01, 0x00, 0x00, 0x00, 0x00,
   0x00, 0xc0, 0xff, 0x07, 0x00, 0x00, 0x00, 0x00, 0x00, 0xe0, 0xff, 0x07,
   0x00, 0x00, 0x00, 0x00, 0x00, 0xf0, 0xff, 0x0f, 0x00, 0x00, 0x00, 0x00,
   0x00, 0xf8, 0xff, 0x1f, 0x00, 0x00, 0x00, 0x00, 0x00, 0xf8, 0xff, 0x1f,
   0x00, 0x00, 0x00, 0x00, 0x00, 0xfc, 0x1f, 0x1e, 0x00, 0x00, 0x00, 0x00,
   0x00, 0xfc, 0xef, 0x1d, 0x00, 0x00, 0x00, 0x00, 0x00, 0xfc, 0xf7, 0x3a,
   0x00, 0x00, 0x1e, 0x00, 0x00, 0xd6, 0xfb, 0x3c, 0x00, 0x00, 0xe1, 0x00,
   0x00, 0xbe, 0x7b, 0x3c, 0x00, 0x00, 0x01, 0x07, 0x00, 0xaf, 0x7f, 0x3a,
   0x00, 0x00, 0x01, 0x08, 0x80, 0xcf, 0x2b, 0x7f, 0x00, 0x00, 0x29, 0x08,
   0x80, 0xef, 0xfb, 0x7b, 0x00, 0x80, 0x00, 0x09, 0x80, 0xe7, 0xcf, 0x76,
   0x00, 0x80, 0x10, 0x09, 0x00, 0xfb, 0x7f, 0x73, 0x00, 0x80, 0x44, 0x09,
   0x00, 0xf3, 0xcf, 0xfc, 0x00, 0x40, 0x10, 0x05, 0x00, 0xff, 0x3d, 0x9e,
   0x00, 0x40, 0x82, 0x04, 0x00, 0x7e, 0xc7, 0x87, 0x00, 0x40, 0xa8, 0x04,
   0x00, 0xc6, 0xf1, 0x80, 0x01, 0x20, 0x82, 0x02, 0x00, 0x3c, 0x7e, 0x00,
   0x01, 0x20, 0x50, 0x02, 0x00, 0xe2, 0x07, 0x00, 0x03, 0x3e, 0x45, 0x02,
   0x00, 0xfe, 0x01, 0x14, 0x82, 0x21, 0x50, 0x01, 0x00, 0x3e, 0x00, 0x24,
   0x66, 0x10, 0x22, 0x01, 0x00, 0x04, 0x00, 0x20, 0x24, 0xf0, 0x27, 0x01,
   0x00, 0x04, 0x00, 0x28, 0x9c, 0x0f, 0x3c, 0x01, 0x00, 0x04, 0x00, 0x48,
   0x08, 0x06, 0xb0, 0x00, 0x00, 0x04, 0x00, 0x40, 0x48, 0x01, 0xa0, 0x00,
   0x00, 0x08, 0x00, 0x50, 0x90, 0x00, 0xc0, 0x00, 0x00, 0x08, 0x00, 0x50,
   0x80, 0x00, 0x40, 0x00, 0x00, 0x08, 0x00, 0x90, 0x00, 0x10, 0x40, 0x00,
   0x00, 0x08, 0x00, 0xa0, 0x00, 0x00, 0x40, 0x00, 0x00, 0x10, 0x00, 0xa0,
   0x00, 0x00, 0x40, 0x00, 0x00, 0x20, 0x00, 0x20, 0x07, 0x00, 0x40, 0x00,
   0x00, 0x20, 0x00, 0x20, 0x10, 0x00, 0x20, 0x00, 0x00, 0x40, 0x00, 0x20,
   0x1f, 0x10, 0x20, 0x00, 0x00, 0xc0, 0x00, 0xe0, 0x02, 0x20, 0x30, 0x00,
   0x00, 0x80, 0x00, 0x80, 0x01, 0x00, 0x10, 0x00, 0x00, 0x00, 0x01, 0x60,
   0x03, 0x00, 0x08, 0x00, 0x00, 0x00, 0x03, 0x00, 0x00, 0x00, 0x0c, 0x00,
   0x00, 0x00, 0x06, 0x00, 0x00, 0x00, 0x06, 0x00, 0x00, 0x00, 0x04, 0x00,
   0x00, 0xa0, 0x01, 0x00, 0x00, 0x00, 0x18, 0x00, 0x00, 0x70, 0x00, 0x00,
   0x00, 0x00, 0x30, 0x00, 0x00, 0x26, 0x00, 0x00, 0x00, 0x00, 0xe0, 0x00,
   0x80, 0x25, 0x00, 0x00, 0x00, 0x00, 0x80, 0x07, 0xe8, 0x24, 0x00, 0x00,
   0x00, 0x00, 0x00, 0xfc, 0x1f, 0x28, 0x00, 0x00, 0x00, 0x00, 0x00, 0xa0,
   0x80, 0x2a, 0x00, 0x00, 0x00, 0x00, 0x00, 0xa0, 0xc0, 0x4e, 0x00, 0x00,
   0x00, 0x00, 0x00, 0xa0, 0xc0, 0x40, 0x00, 0x00, 0x00, 0x00, 0x00, 0xa0,
   0x00, 0x43, 0x00, 0x00, 0x00, 0x00, 0x00, 0xa0, 0x00, 0x8e, 0x00, 0x00,
   0x00, 0x00, 0x00, 0xa2, 0x00, 0x70, 0x00, 0x00, 0x00, 0x00, 0x80, 0xad,
   0x00, 0x00, 0x00, 0x00, 0x00, 0x00, 0x00, 0xb1, 0x00, 0x00, 0x00, 0x00,
   0x00, 0x00, 0x00, 0x82, 0x00, 0x00, 0x00, 0x00, 0x00, 0x00, 0x00, 0x8c,
   0x00, 0x00, 0x00, 0x00, 0x00, 0x00, 0x00, 0x78, 0x00, 0x00, 0x00, 0x00,
   0x00, 0x00, 0x00, 0x40, 0x00, 0x00, 0x00, 0x00 };
