G04 #@! TF.FileFunction,Legend,Top*
%FSLAX46Y46*%
G04 Gerber Fmt 4.6, Leading zero omitted, Abs format (unit mm)*
G04 Created by KiCad (PCBNEW (2015-04-17 BZR 5609)-product) date Sunday, 21 June 2015 08:11:59 pm*
%MOMM*%
G01*
G04 APERTURE LIST*
%ADD10C,0.100000*%
%ADD11C,0.300000*%
%ADD12C,0.150000*%
G04 APERTURE END LIST*
D10*
D11*
X144145000Y-119344214D02*
X144073572Y-119415643D01*
X144145000Y-119487071D01*
X144216429Y-119415643D01*
X144145000Y-119344214D01*
X144145000Y-119487071D01*
D12*
X139039600Y-127457200D02*
X139039600Y-124917200D01*
X136219600Y-124637200D02*
X137769600Y-124637200D01*
X136219600Y-124637200D02*
X136219600Y-127737200D01*
X136219600Y-127737200D02*
X137769600Y-127737200D01*
X156031300Y-103916100D02*
X156031300Y-102916100D01*
X154331300Y-102916100D02*
X154331300Y-103916100D01*
X149109800Y-122089800D02*
X149109800Y-121089800D01*
X147409800Y-121089800D02*
X147409800Y-122089800D01*
X153707200Y-103979600D02*
X153707200Y-102979600D01*
X152007200Y-102979600D02*
X152007200Y-103979600D01*
X140597000Y-120738000D02*
X141597000Y-120738000D01*
X141597000Y-119038000D02*
X140597000Y-119038000D01*
X180529600Y-105960800D02*
X180529600Y-104960800D01*
X178829600Y-104960800D02*
X178829600Y-105960800D01*
X170951000Y-103260400D02*
X170951000Y-101260400D01*
X168901000Y-101260400D02*
X168901000Y-103260400D01*
X172961300Y-97688400D02*
X172580300Y-97688400D01*
X173977300Y-97688400D02*
X173596300Y-97688400D01*
X173596300Y-97688400D02*
X172961300Y-98069400D01*
X172961300Y-98069400D02*
X172961300Y-97307400D01*
X172961300Y-97307400D02*
X173596300Y-97688400D01*
X173596300Y-98196400D02*
X173596300Y-97180400D01*
X175278800Y-96788400D02*
X171738800Y-96788400D01*
X175278800Y-98588400D02*
X171738800Y-98588400D01*
X154802840Y-92410280D02*
X154802840Y-92085160D01*
X154802840Y-92085160D02*
X155303220Y-92085160D01*
X155303220Y-92410280D02*
X155303220Y-92085160D01*
X154802840Y-92410280D02*
X155303220Y-92410280D01*
X154802840Y-93032580D02*
X154802840Y-92882720D01*
X154802840Y-92882720D02*
X155054300Y-92882720D01*
X155054300Y-93032580D02*
X155054300Y-92882720D01*
X154802840Y-93032580D02*
X155054300Y-93032580D01*
X154802840Y-92537280D02*
X154802840Y-92387420D01*
X154802840Y-92387420D02*
X155054300Y-92387420D01*
X155054300Y-92537280D02*
X155054300Y-92387420D01*
X154802840Y-92537280D02*
X155054300Y-92537280D01*
X154802840Y-92908120D02*
X154802840Y-92511880D01*
X154802840Y-92511880D02*
X154978100Y-92511880D01*
X154978100Y-92908120D02*
X154978100Y-92511880D01*
X154802840Y-92908120D02*
X154978100Y-92908120D01*
X153306780Y-92410280D02*
X153306780Y-92085160D01*
X153306780Y-92085160D02*
X153807160Y-92085160D01*
X153807160Y-92410280D02*
X153807160Y-92085160D01*
X153306780Y-92410280D02*
X153807160Y-92410280D01*
X153306780Y-93334840D02*
X153306780Y-93009720D01*
X153306780Y-93009720D02*
X153807160Y-93009720D01*
X153807160Y-93334840D02*
X153807160Y-93009720D01*
X153306780Y-93334840D02*
X153807160Y-93334840D01*
X153555700Y-92537280D02*
X153555700Y-92387420D01*
X153555700Y-92387420D02*
X153807160Y-92387420D01*
X153807160Y-92537280D02*
X153807160Y-92387420D01*
X153555700Y-92537280D02*
X153807160Y-92537280D01*
X153555700Y-93032580D02*
X153555700Y-92882720D01*
X153555700Y-92882720D02*
X153807160Y-92882720D01*
X153807160Y-93032580D02*
X153807160Y-92882720D01*
X153555700Y-93032580D02*
X153807160Y-93032580D01*
X153631900Y-92908120D02*
X153631900Y-92511880D01*
X153631900Y-92511880D02*
X153807160Y-92511880D01*
X153807160Y-92908120D02*
X153807160Y-92511880D01*
X153631900Y-92908120D02*
X153807160Y-92908120D01*
X154305000Y-92809060D02*
X154305000Y-92610940D01*
X154305000Y-92610940D02*
X154503120Y-92610940D01*
X154503120Y-92809060D02*
X154503120Y-92610940D01*
X154305000Y-92809060D02*
X154503120Y-92809060D01*
X154802840Y-93309440D02*
X154802840Y-93009720D01*
X154802840Y-93009720D02*
X155102560Y-93009720D01*
X155102560Y-93309440D02*
X155102560Y-93009720D01*
X154802840Y-93309440D02*
X155102560Y-93309440D01*
X155229560Y-93334840D02*
X155229560Y-93108780D01*
X155229560Y-93108780D02*
X155303220Y-93108780D01*
X155303220Y-93334840D02*
X155303220Y-93108780D01*
X155229560Y-93334840D02*
X155303220Y-93334840D01*
X154828240Y-92135960D02*
X153781760Y-92135960D01*
X153807160Y-93284040D02*
X155229560Y-93284040D01*
X155225202Y-93159580D02*
G75*
G03X155225202Y-93159580I-71842J0D01*
G01*
X155303220Y-93057980D02*
G75*
G02X155303220Y-92362020I0J347980D01*
G01*
X153306780Y-92362020D02*
G75*
G02X153306780Y-93057980I0J-347980D01*
G01*
X154802840Y-90378280D02*
X154802840Y-90053160D01*
X154802840Y-90053160D02*
X155303220Y-90053160D01*
X155303220Y-90378280D02*
X155303220Y-90053160D01*
X154802840Y-90378280D02*
X155303220Y-90378280D01*
X154802840Y-91000580D02*
X154802840Y-90850720D01*
X154802840Y-90850720D02*
X155054300Y-90850720D01*
X155054300Y-91000580D02*
X155054300Y-90850720D01*
X154802840Y-91000580D02*
X155054300Y-91000580D01*
X154802840Y-90505280D02*
X154802840Y-90355420D01*
X154802840Y-90355420D02*
X155054300Y-90355420D01*
X155054300Y-90505280D02*
X155054300Y-90355420D01*
X154802840Y-90505280D02*
X155054300Y-90505280D01*
X154802840Y-90876120D02*
X154802840Y-90479880D01*
X154802840Y-90479880D02*
X154978100Y-90479880D01*
X154978100Y-90876120D02*
X154978100Y-90479880D01*
X154802840Y-90876120D02*
X154978100Y-90876120D01*
X153306780Y-90378280D02*
X153306780Y-90053160D01*
X153306780Y-90053160D02*
X153807160Y-90053160D01*
X153807160Y-90378280D02*
X153807160Y-90053160D01*
X153306780Y-90378280D02*
X153807160Y-90378280D01*
X153306780Y-91302840D02*
X153306780Y-90977720D01*
X153306780Y-90977720D02*
X153807160Y-90977720D01*
X153807160Y-91302840D02*
X153807160Y-90977720D01*
X153306780Y-91302840D02*
X153807160Y-91302840D01*
X153555700Y-90505280D02*
X153555700Y-90355420D01*
X153555700Y-90355420D02*
X153807160Y-90355420D01*
X153807160Y-90505280D02*
X153807160Y-90355420D01*
X153555700Y-90505280D02*
X153807160Y-90505280D01*
X153555700Y-91000580D02*
X153555700Y-90850720D01*
X153555700Y-90850720D02*
X153807160Y-90850720D01*
X153807160Y-91000580D02*
X153807160Y-90850720D01*
X153555700Y-91000580D02*
X153807160Y-91000580D01*
X153631900Y-90876120D02*
X153631900Y-90479880D01*
X153631900Y-90479880D02*
X153807160Y-90479880D01*
X153807160Y-90876120D02*
X153807160Y-90479880D01*
X153631900Y-90876120D02*
X153807160Y-90876120D01*
X154305000Y-90777060D02*
X154305000Y-90578940D01*
X154305000Y-90578940D02*
X154503120Y-90578940D01*
X154503120Y-90777060D02*
X154503120Y-90578940D01*
X154305000Y-90777060D02*
X154503120Y-90777060D01*
X154802840Y-91277440D02*
X154802840Y-90977720D01*
X154802840Y-90977720D02*
X155102560Y-90977720D01*
X155102560Y-91277440D02*
X155102560Y-90977720D01*
X154802840Y-91277440D02*
X155102560Y-91277440D01*
X155229560Y-91302840D02*
X155229560Y-91076780D01*
X155229560Y-91076780D02*
X155303220Y-91076780D01*
X155303220Y-91302840D02*
X155303220Y-91076780D01*
X155229560Y-91302840D02*
X155303220Y-91302840D01*
X154828240Y-90103960D02*
X153781760Y-90103960D01*
X153807160Y-91252040D02*
X155229560Y-91252040D01*
X155225202Y-91127580D02*
G75*
G03X155225202Y-91127580I-71842J0D01*
G01*
X155303220Y-91025980D02*
G75*
G02X155303220Y-90330020I0J347980D01*
G01*
X153306780Y-90330020D02*
G75*
G02X153306780Y-91025980I0J-347980D01*
G01*
X154802840Y-88346280D02*
X154802840Y-88021160D01*
X154802840Y-88021160D02*
X155303220Y-88021160D01*
X155303220Y-88346280D02*
X155303220Y-88021160D01*
X154802840Y-88346280D02*
X155303220Y-88346280D01*
X154802840Y-88968580D02*
X154802840Y-88818720D01*
X154802840Y-88818720D02*
X155054300Y-88818720D01*
X155054300Y-88968580D02*
X155054300Y-88818720D01*
X154802840Y-88968580D02*
X155054300Y-88968580D01*
X154802840Y-88473280D02*
X154802840Y-88323420D01*
X154802840Y-88323420D02*
X155054300Y-88323420D01*
X155054300Y-88473280D02*
X155054300Y-88323420D01*
X154802840Y-88473280D02*
X155054300Y-88473280D01*
X154802840Y-88844120D02*
X154802840Y-88447880D01*
X154802840Y-88447880D02*
X154978100Y-88447880D01*
X154978100Y-88844120D02*
X154978100Y-88447880D01*
X154802840Y-88844120D02*
X154978100Y-88844120D01*
X153306780Y-88346280D02*
X153306780Y-88021160D01*
X153306780Y-88021160D02*
X153807160Y-88021160D01*
X153807160Y-88346280D02*
X153807160Y-88021160D01*
X153306780Y-88346280D02*
X153807160Y-88346280D01*
X153306780Y-89270840D02*
X153306780Y-88945720D01*
X153306780Y-88945720D02*
X153807160Y-88945720D01*
X153807160Y-89270840D02*
X153807160Y-88945720D01*
X153306780Y-89270840D02*
X153807160Y-89270840D01*
X153555700Y-88473280D02*
X153555700Y-88323420D01*
X153555700Y-88323420D02*
X153807160Y-88323420D01*
X153807160Y-88473280D02*
X153807160Y-88323420D01*
X153555700Y-88473280D02*
X153807160Y-88473280D01*
X153555700Y-88968580D02*
X153555700Y-88818720D01*
X153555700Y-88818720D02*
X153807160Y-88818720D01*
X153807160Y-88968580D02*
X153807160Y-88818720D01*
X153555700Y-88968580D02*
X153807160Y-88968580D01*
X153631900Y-88844120D02*
X153631900Y-88447880D01*
X153631900Y-88447880D02*
X153807160Y-88447880D01*
X153807160Y-88844120D02*
X153807160Y-88447880D01*
X153631900Y-88844120D02*
X153807160Y-88844120D01*
X154305000Y-88745060D02*
X154305000Y-88546940D01*
X154305000Y-88546940D02*
X154503120Y-88546940D01*
X154503120Y-88745060D02*
X154503120Y-88546940D01*
X154305000Y-88745060D02*
X154503120Y-88745060D01*
X154802840Y-89245440D02*
X154802840Y-88945720D01*
X154802840Y-88945720D02*
X155102560Y-88945720D01*
X155102560Y-89245440D02*
X155102560Y-88945720D01*
X154802840Y-89245440D02*
X155102560Y-89245440D01*
X155229560Y-89270840D02*
X155229560Y-89044780D01*
X155229560Y-89044780D02*
X155303220Y-89044780D01*
X155303220Y-89270840D02*
X155303220Y-89044780D01*
X155229560Y-89270840D02*
X155303220Y-89270840D01*
X154828240Y-88071960D02*
X153781760Y-88071960D01*
X153807160Y-89220040D02*
X155229560Y-89220040D01*
X155225202Y-89095580D02*
G75*
G03X155225202Y-89095580I-71842J0D01*
G01*
X155303220Y-88993980D02*
G75*
G02X155303220Y-88298020I0J347980D01*
G01*
X153306780Y-88298020D02*
G75*
G02X153306780Y-88993980I0J-347980D01*
G01*
X176216200Y-101260400D02*
X176216200Y-103260400D01*
X178266200Y-103260400D02*
X178266200Y-101260400D01*
X131876800Y-90779600D02*
X144576800Y-90779600D01*
X144576800Y-90779600D02*
X144576800Y-88239600D01*
X144576800Y-88239600D02*
X131876800Y-88239600D01*
X129056800Y-91059600D02*
X130606800Y-91059600D01*
X131876800Y-90779600D02*
X131876800Y-88239600D01*
X130606800Y-87959600D02*
X129056800Y-87959600D01*
X129056800Y-87959600D02*
X129056800Y-91059600D01*
X161290000Y-120599200D02*
X161290000Y-118059200D01*
X158470000Y-117779200D02*
X160020000Y-117779200D01*
X158470000Y-117779200D02*
X158470000Y-120879200D01*
X158470000Y-120879200D02*
X160020000Y-120879200D01*
X164795200Y-120599200D02*
X164795200Y-118059200D01*
X161975200Y-117779200D02*
X163525200Y-117779200D01*
X161975200Y-117779200D02*
X161975200Y-120879200D01*
X161975200Y-120879200D02*
X163525200Y-120879200D01*
X168300400Y-120599200D02*
X168300400Y-118059200D01*
X165480400Y-117779200D02*
X167030400Y-117779200D01*
X165480400Y-117779200D02*
X165480400Y-120879200D01*
X165480400Y-120879200D02*
X167030400Y-120879200D01*
X171805600Y-120599200D02*
X171805600Y-118059200D01*
X168985600Y-117779200D02*
X170535600Y-117779200D01*
X168985600Y-117779200D02*
X168985600Y-120879200D01*
X168985600Y-120879200D02*
X170535600Y-120879200D01*
X160270000Y-92870000D02*
X160270000Y-90330000D01*
X157450000Y-90050000D02*
X159000000Y-90050000D01*
X157450000Y-90050000D02*
X157450000Y-93150000D01*
X157450000Y-93150000D02*
X159000000Y-93150000D01*
X157670000Y-86070000D02*
X157670000Y-83530000D01*
X154850000Y-83250000D02*
X156400000Y-83250000D01*
X154850000Y-83250000D02*
X154850000Y-86350000D01*
X154850000Y-86350000D02*
X156400000Y-86350000D01*
X149470000Y-85470000D02*
X149470000Y-82930000D01*
X146650000Y-82650000D02*
X148200000Y-82650000D01*
X146650000Y-82650000D02*
X146650000Y-85750000D01*
X146650000Y-85750000D02*
X148200000Y-85750000D01*
X145870000Y-85470000D02*
X145870000Y-82930000D01*
X143050000Y-82650000D02*
X144600000Y-82650000D01*
X143050000Y-82650000D02*
X143050000Y-85750000D01*
X143050000Y-85750000D02*
X144600000Y-85750000D01*
X142270000Y-85470000D02*
X142270000Y-82930000D01*
X139450000Y-82650000D02*
X141000000Y-82650000D01*
X139450000Y-82650000D02*
X139450000Y-85750000D01*
X139450000Y-85750000D02*
X141000000Y-85750000D01*
X160274000Y-96774000D02*
X160274000Y-94234000D01*
X157454000Y-93954000D02*
X159004000Y-93954000D01*
X157454000Y-93954000D02*
X157454000Y-97054000D01*
X157454000Y-97054000D02*
X159004000Y-97054000D01*
X141591000Y-93126000D02*
X141591000Y-94326000D01*
X139841000Y-94326000D02*
X139841000Y-93126000D01*
X139076400Y-93100600D02*
X139076400Y-94300600D01*
X137326400Y-94300600D02*
X137326400Y-93100600D01*
X136485600Y-93100600D02*
X136485600Y-94300600D01*
X134735600Y-94300600D02*
X134735600Y-93100600D01*
X133920200Y-93126000D02*
X133920200Y-94326000D01*
X132170200Y-94326000D02*
X132170200Y-93126000D01*
X188101000Y-108931000D02*
X188101000Y-107731000D01*
X189851000Y-107731000D02*
X189851000Y-108931000D01*
X150206000Y-93585000D02*
X149006000Y-93585000D01*
X149006000Y-91835000D02*
X150206000Y-91835000D01*
X150244100Y-91629200D02*
X149044100Y-91629200D01*
X149044100Y-89879200D02*
X150244100Y-89879200D01*
X150206000Y-89521000D02*
X149006000Y-89521000D01*
X149006000Y-87771000D02*
X150206000Y-87771000D01*
X129157114Y-119634000D02*
G75*
G03X129157114Y-119634000I-1750714J0D01*
G01*
X130631400Y-116409000D02*
X130631400Y-116534000D01*
X130631400Y-122859000D02*
X130631400Y-122734000D01*
X124181400Y-122859000D02*
X124181400Y-122734000D01*
X124181400Y-116534000D02*
X124181400Y-116409000D01*
X130631400Y-118234000D02*
X130631400Y-121034000D01*
X124181400Y-116409000D02*
X130631400Y-116409000D01*
X124181400Y-118234000D02*
X124181400Y-121034000D01*
X124181400Y-122859000D02*
X130631400Y-122859000D01*
X129157114Y-112318800D02*
G75*
G03X129157114Y-112318800I-1750714J0D01*
G01*
X130631400Y-109093800D02*
X130631400Y-109218800D01*
X130631400Y-115543800D02*
X130631400Y-115418800D01*
X124181400Y-115543800D02*
X124181400Y-115418800D01*
X124181400Y-109218800D02*
X124181400Y-109093800D01*
X130631400Y-110918800D02*
X130631400Y-113718800D01*
X124181400Y-109093800D02*
X130631400Y-109093800D01*
X124181400Y-110918800D02*
X124181400Y-113718800D01*
X124181400Y-115543800D02*
X130631400Y-115543800D01*
X119098714Y-112928400D02*
G75*
G03X119098714Y-112928400I-1750714J0D01*
G01*
X114123000Y-109703400D02*
X114248000Y-109703400D01*
X120573000Y-109703400D02*
X120448000Y-109703400D01*
X120573000Y-116153400D02*
X120448000Y-116153400D01*
X114248000Y-116153400D02*
X114123000Y-116153400D01*
X115948000Y-109703400D02*
X118748000Y-109703400D01*
X114123000Y-116153400D02*
X114123000Y-109703400D01*
X115948000Y-116153400D02*
X118748000Y-116153400D01*
X120573000Y-116153400D02*
X120573000Y-109703400D01*
X139063114Y-112928400D02*
G75*
G03X139063114Y-112928400I-1750714J0D01*
G01*
X134087400Y-109703400D02*
X134212400Y-109703400D01*
X140537400Y-109703400D02*
X140412400Y-109703400D01*
X140537400Y-116153400D02*
X140412400Y-116153400D01*
X134212400Y-116153400D02*
X134087400Y-116153400D01*
X135912400Y-109703400D02*
X138712400Y-109703400D01*
X134087400Y-116153400D02*
X134087400Y-109703400D01*
X135912400Y-116153400D02*
X138712400Y-116153400D01*
X140537400Y-116153400D02*
X140537400Y-109703400D01*
X129309514Y-104851200D02*
G75*
G03X129309514Y-104851200I-1750714J0D01*
G01*
X130783800Y-101626200D02*
X130783800Y-101751200D01*
X130783800Y-108076200D02*
X130783800Y-107951200D01*
X124333800Y-108076200D02*
X124333800Y-107951200D01*
X124333800Y-101751200D02*
X124333800Y-101626200D01*
X130783800Y-103451200D02*
X130783800Y-106251200D01*
X124333800Y-101626200D02*
X130783800Y-101626200D01*
X124333800Y-103451200D02*
X124333800Y-106251200D01*
X124333800Y-108076200D02*
X130783800Y-108076200D01*
X173536000Y-99493600D02*
G75*
G03X173536000Y-99493600I-100000J0D01*
G01*
X173986000Y-99743600D02*
X173486000Y-99743600D01*
X173986000Y-102643600D02*
X173986000Y-99743600D01*
X173486000Y-102643600D02*
X173986000Y-102643600D01*
X173486000Y-99743600D02*
X173486000Y-102643600D01*
X144203000Y-116528000D02*
X144503000Y-116528000D01*
X144203000Y-109278000D02*
X144503000Y-109278000D01*
X151453000Y-109278000D02*
X151153000Y-109278000D01*
X151453000Y-116528000D02*
X151153000Y-116528000D01*
X144203000Y-116528000D02*
X144203000Y-116228000D01*
X151453000Y-116528000D02*
X151453000Y-116228000D01*
X151453000Y-109278000D02*
X151453000Y-109578000D01*
X144203000Y-109278000D02*
X144203000Y-109578000D01*
X144503000Y-116528000D02*
X144503000Y-117753000D01*
X149730000Y-130130000D02*
X142110000Y-130130000D01*
X149730000Y-132670000D02*
X142110000Y-132670000D01*
X152550000Y-132950000D02*
X151000000Y-132950000D01*
X142110000Y-130130000D02*
X142110000Y-132670000D01*
X149730000Y-132670000D02*
X149730000Y-130130000D01*
X151000000Y-129850000D02*
X152550000Y-129850000D01*
X152550000Y-129850000D02*
X152550000Y-132950000D01*
X136894600Y-121910400D02*
X136894600Y-120710400D01*
X138644600Y-120710400D02*
X138644600Y-121910400D01*
X142544800Y-127457200D02*
X142544800Y-124917200D01*
X139724800Y-124637200D02*
X141274800Y-124637200D01*
X139724800Y-124637200D02*
X139724800Y-127737200D01*
X139724800Y-127737200D02*
X141274800Y-127737200D01*
X193070000Y-93670000D02*
X193070000Y-108910000D01*
X193070000Y-108910000D02*
X190530000Y-108910000D01*
X190530000Y-108910000D02*
X190530000Y-93670000D01*
X193350000Y-90850000D02*
X193350000Y-92400000D01*
X193070000Y-93670000D02*
X190530000Y-93670000D01*
X190250000Y-92400000D02*
X190250000Y-90850000D01*
X190250000Y-90850000D02*
X193350000Y-90850000D01*
X131770667Y-125912571D02*
X131913524Y-125960190D01*
X131961143Y-126007810D01*
X132008762Y-126103048D01*
X132008762Y-126245905D01*
X131961143Y-126341143D01*
X131913524Y-126388762D01*
X131818286Y-126436381D01*
X131437333Y-126436381D01*
X131437333Y-125436381D01*
X131770667Y-125436381D01*
X131865905Y-125484000D01*
X131913524Y-125531619D01*
X131961143Y-125626857D01*
X131961143Y-125722095D01*
X131913524Y-125817333D01*
X131865905Y-125864952D01*
X131770667Y-125912571D01*
X131437333Y-125912571D01*
X132627809Y-125436381D02*
X132818286Y-125436381D01*
X132913524Y-125484000D01*
X133008762Y-125579238D01*
X133056381Y-125769714D01*
X133056381Y-126103048D01*
X133008762Y-126293524D01*
X132913524Y-126388762D01*
X132818286Y-126436381D01*
X132627809Y-126436381D01*
X132532571Y-126388762D01*
X132437333Y-126293524D01*
X132389714Y-126103048D01*
X132389714Y-125769714D01*
X132437333Y-125579238D01*
X132532571Y-125484000D01*
X132627809Y-125436381D01*
X133675428Y-125436381D02*
X133865905Y-125436381D01*
X133961143Y-125484000D01*
X134056381Y-125579238D01*
X134104000Y-125769714D01*
X134104000Y-126103048D01*
X134056381Y-126293524D01*
X133961143Y-126388762D01*
X133865905Y-126436381D01*
X133675428Y-126436381D01*
X133580190Y-126388762D01*
X133484952Y-126293524D01*
X133437333Y-126103048D01*
X133437333Y-125769714D01*
X133484952Y-125579238D01*
X133580190Y-125484000D01*
X133675428Y-125436381D01*
X134389714Y-125436381D02*
X134961143Y-125436381D01*
X134675428Y-126436381D02*
X134675428Y-125436381D01*
X135484952Y-125436381D02*
X135580191Y-125436381D01*
X135675429Y-125484000D01*
X135723048Y-125531619D01*
X135770667Y-125626857D01*
X135818286Y-125817333D01*
X135818286Y-126055429D01*
X135770667Y-126245905D01*
X135723048Y-126341143D01*
X135675429Y-126388762D01*
X135580191Y-126436381D01*
X135484952Y-126436381D01*
X135389714Y-126388762D01*
X135342095Y-126341143D01*
X135294476Y-126245905D01*
X135246857Y-126055429D01*
X135246857Y-125817333D01*
X135294476Y-125626857D01*
X135342095Y-125531619D01*
X135389714Y-125484000D01*
X135484952Y-125436381D01*
X157638443Y-103582766D02*
X157686062Y-103630385D01*
X157733681Y-103773242D01*
X157733681Y-103868480D01*
X157686062Y-104011338D01*
X157590824Y-104106576D01*
X157495586Y-104154195D01*
X157305110Y-104201814D01*
X157162252Y-104201814D01*
X156971776Y-104154195D01*
X156876538Y-104106576D01*
X156781300Y-104011338D01*
X156733681Y-103868480D01*
X156733681Y-103773242D01*
X156781300Y-103630385D01*
X156828919Y-103582766D01*
X157733681Y-102630385D02*
X157733681Y-103201814D01*
X157733681Y-102916100D02*
X156733681Y-102916100D01*
X156876538Y-103011338D01*
X156971776Y-103106576D01*
X157019395Y-103201814D01*
X150716943Y-121756466D02*
X150764562Y-121804085D01*
X150812181Y-121946942D01*
X150812181Y-122042180D01*
X150764562Y-122185038D01*
X150669324Y-122280276D01*
X150574086Y-122327895D01*
X150383610Y-122375514D01*
X150240752Y-122375514D01*
X150050276Y-122327895D01*
X149955038Y-122280276D01*
X149859800Y-122185038D01*
X149812181Y-122042180D01*
X149812181Y-121946942D01*
X149859800Y-121804085D01*
X149907419Y-121756466D01*
X149907419Y-121375514D02*
X149859800Y-121327895D01*
X149812181Y-121232657D01*
X149812181Y-120994561D01*
X149859800Y-120899323D01*
X149907419Y-120851704D01*
X150002657Y-120804085D01*
X150097895Y-120804085D01*
X150240752Y-120851704D01*
X150812181Y-121423133D01*
X150812181Y-120804085D01*
X151233143Y-103671666D02*
X151280762Y-103719285D01*
X151328381Y-103862142D01*
X151328381Y-103957380D01*
X151280762Y-104100238D01*
X151185524Y-104195476D01*
X151090286Y-104243095D01*
X150899810Y-104290714D01*
X150756952Y-104290714D01*
X150566476Y-104243095D01*
X150471238Y-104195476D01*
X150376000Y-104100238D01*
X150328381Y-103957380D01*
X150328381Y-103862142D01*
X150376000Y-103719285D01*
X150423619Y-103671666D01*
X150328381Y-102766904D02*
X150328381Y-103243095D01*
X150804571Y-103290714D01*
X150756952Y-103243095D01*
X150709333Y-103147857D01*
X150709333Y-102909761D01*
X150756952Y-102814523D01*
X150804571Y-102766904D01*
X150899810Y-102719285D01*
X151137905Y-102719285D01*
X151233143Y-102766904D01*
X151280762Y-102814523D01*
X151328381Y-102909761D01*
X151328381Y-103147857D01*
X151280762Y-103243095D01*
X151233143Y-103290714D01*
X140930334Y-122340643D02*
X140882715Y-122388262D01*
X140739858Y-122435881D01*
X140644620Y-122435881D01*
X140501762Y-122388262D01*
X140406524Y-122293024D01*
X140358905Y-122197786D01*
X140311286Y-122007310D01*
X140311286Y-121864452D01*
X140358905Y-121673976D01*
X140406524Y-121578738D01*
X140501762Y-121483500D01*
X140644620Y-121435881D01*
X140739858Y-121435881D01*
X140882715Y-121483500D01*
X140930334Y-121531119D01*
X141787477Y-121435881D02*
X141597000Y-121435881D01*
X141501762Y-121483500D01*
X141454143Y-121531119D01*
X141358905Y-121673976D01*
X141311286Y-121864452D01*
X141311286Y-122245405D01*
X141358905Y-122340643D01*
X141406524Y-122388262D01*
X141501762Y-122435881D01*
X141692239Y-122435881D01*
X141787477Y-122388262D01*
X141835096Y-122340643D01*
X141882715Y-122245405D01*
X141882715Y-122007310D01*
X141835096Y-121912071D01*
X141787477Y-121864452D01*
X141692239Y-121816833D01*
X141501762Y-121816833D01*
X141406524Y-121864452D01*
X141358905Y-121912071D01*
X141311286Y-122007310D01*
X180062143Y-109196166D02*
X180109762Y-109243785D01*
X180157381Y-109386642D01*
X180157381Y-109481880D01*
X180109762Y-109624738D01*
X180014524Y-109719976D01*
X179919286Y-109767595D01*
X179728810Y-109815214D01*
X179585952Y-109815214D01*
X179395476Y-109767595D01*
X179300238Y-109719976D01*
X179205000Y-109624738D01*
X179157381Y-109481880D01*
X179157381Y-109386642D01*
X179205000Y-109243785D01*
X179252619Y-109196166D01*
X179585952Y-108624738D02*
X179538333Y-108719976D01*
X179490714Y-108767595D01*
X179395476Y-108815214D01*
X179347857Y-108815214D01*
X179252619Y-108767595D01*
X179205000Y-108719976D01*
X179157381Y-108624738D01*
X179157381Y-108434261D01*
X179205000Y-108339023D01*
X179252619Y-108291404D01*
X179347857Y-108243785D01*
X179395476Y-108243785D01*
X179490714Y-108291404D01*
X179538333Y-108339023D01*
X179585952Y-108434261D01*
X179585952Y-108624738D01*
X179633571Y-108719976D01*
X179681190Y-108767595D01*
X179776429Y-108815214D01*
X179966905Y-108815214D01*
X180062143Y-108767595D01*
X180109762Y-108719976D01*
X180157381Y-108624738D01*
X180157381Y-108434261D01*
X180109762Y-108339023D01*
X180062143Y-108291404D01*
X179966905Y-108243785D01*
X179776429Y-108243785D01*
X179681190Y-108291404D01*
X179633571Y-108339023D01*
X179585952Y-108434261D01*
X168060643Y-102401666D02*
X168108262Y-102449285D01*
X168155881Y-102592142D01*
X168155881Y-102687380D01*
X168108262Y-102830238D01*
X168013024Y-102925476D01*
X167917786Y-102973095D01*
X167727310Y-103020714D01*
X167584452Y-103020714D01*
X167393976Y-102973095D01*
X167298738Y-102925476D01*
X167203500Y-102830238D01*
X167155881Y-102687380D01*
X167155881Y-102592142D01*
X167203500Y-102449285D01*
X167251119Y-102401666D01*
X168155881Y-101925476D02*
X168155881Y-101735000D01*
X168108262Y-101639761D01*
X168060643Y-101592142D01*
X167917786Y-101496904D01*
X167727310Y-101449285D01*
X167346357Y-101449285D01*
X167251119Y-101496904D01*
X167203500Y-101544523D01*
X167155881Y-101639761D01*
X167155881Y-101830238D01*
X167203500Y-101925476D01*
X167251119Y-101973095D01*
X167346357Y-102020714D01*
X167584452Y-102020714D01*
X167679690Y-101973095D01*
X167727310Y-101925476D01*
X167774929Y-101830238D01*
X167774929Y-101639761D01*
X167727310Y-101544523D01*
X167679690Y-101496904D01*
X167584452Y-101449285D01*
X172553405Y-96337381D02*
X172553405Y-95337381D01*
X172791500Y-95337381D01*
X172934358Y-95385000D01*
X173029596Y-95480238D01*
X173077215Y-95575476D01*
X173124834Y-95765952D01*
X173124834Y-95908810D01*
X173077215Y-96099286D01*
X173029596Y-96194524D01*
X172934358Y-96289762D01*
X172791500Y-96337381D01*
X172553405Y-96337381D01*
X174077215Y-96337381D02*
X173505786Y-96337381D01*
X173791500Y-96337381D02*
X173791500Y-95337381D01*
X173696262Y-95480238D01*
X173601024Y-95575476D01*
X173505786Y-95623095D01*
X153439905Y-97480381D02*
X153439905Y-96480381D01*
X153678000Y-96480381D01*
X153820858Y-96528000D01*
X153916096Y-96623238D01*
X153963715Y-96718476D01*
X154011334Y-96908952D01*
X154011334Y-97051810D01*
X153963715Y-97242286D01*
X153916096Y-97337524D01*
X153820858Y-97432762D01*
X153678000Y-97480381D01*
X153439905Y-97480381D01*
X154392286Y-96575619D02*
X154439905Y-96528000D01*
X154535143Y-96480381D01*
X154773239Y-96480381D01*
X154868477Y-96528000D01*
X154916096Y-96575619D01*
X154963715Y-96670857D01*
X154963715Y-96766095D01*
X154916096Y-96908952D01*
X154344667Y-97480381D01*
X154963715Y-97480381D01*
X153439905Y-96210381D02*
X153439905Y-95210381D01*
X153678000Y-95210381D01*
X153820858Y-95258000D01*
X153916096Y-95353238D01*
X153963715Y-95448476D01*
X154011334Y-95638952D01*
X154011334Y-95781810D01*
X153963715Y-95972286D01*
X153916096Y-96067524D01*
X153820858Y-96162762D01*
X153678000Y-96210381D01*
X153439905Y-96210381D01*
X154344667Y-95210381D02*
X154963715Y-95210381D01*
X154630381Y-95591333D01*
X154773239Y-95591333D01*
X154868477Y-95638952D01*
X154916096Y-95686571D01*
X154963715Y-95781810D01*
X154963715Y-96019905D01*
X154916096Y-96115143D01*
X154868477Y-96162762D01*
X154773239Y-96210381D01*
X154487524Y-96210381D01*
X154392286Y-96162762D01*
X154344667Y-96115143D01*
X153439905Y-94813381D02*
X153439905Y-93813381D01*
X153678000Y-93813381D01*
X153820858Y-93861000D01*
X153916096Y-93956238D01*
X153963715Y-94051476D01*
X154011334Y-94241952D01*
X154011334Y-94384810D01*
X153963715Y-94575286D01*
X153916096Y-94670524D01*
X153820858Y-94765762D01*
X153678000Y-94813381D01*
X153439905Y-94813381D01*
X154868477Y-94146714D02*
X154868477Y-94813381D01*
X154630381Y-93765762D02*
X154392286Y-94480048D01*
X155011334Y-94480048D01*
X177680881Y-98210666D02*
X177680881Y-98686857D01*
X176680881Y-98686857D01*
X177680881Y-97353523D02*
X177680881Y-97924952D01*
X177680881Y-97639238D02*
X176680881Y-97639238D01*
X176823738Y-97734476D01*
X176918976Y-97829714D01*
X176966595Y-97924952D01*
X141117581Y-97397866D02*
X140641390Y-97731200D01*
X141117581Y-97969295D02*
X140117581Y-97969295D01*
X140117581Y-97588342D01*
X140165200Y-97493104D01*
X140212819Y-97445485D01*
X140308057Y-97397866D01*
X140450914Y-97397866D01*
X140546152Y-97445485D01*
X140593771Y-97493104D01*
X140641390Y-97588342D01*
X140641390Y-97969295D01*
X140117581Y-96540723D02*
X140117581Y-96731200D01*
X140165200Y-96826438D01*
X140212819Y-96874057D01*
X140355676Y-96969295D01*
X140546152Y-97016914D01*
X140927105Y-97016914D01*
X141022343Y-96969295D01*
X141069962Y-96921676D01*
X141117581Y-96826438D01*
X141117581Y-96635961D01*
X141069962Y-96540723D01*
X141022343Y-96493104D01*
X140927105Y-96445485D01*
X140689010Y-96445485D01*
X140593771Y-96493104D01*
X140546152Y-96540723D01*
X140498533Y-96635961D01*
X140498533Y-96826438D01*
X140546152Y-96921676D01*
X140593771Y-96969295D01*
X140689010Y-97016914D01*
X138679181Y-97397866D02*
X138202990Y-97731200D01*
X138679181Y-97969295D02*
X137679181Y-97969295D01*
X137679181Y-97588342D01*
X137726800Y-97493104D01*
X137774419Y-97445485D01*
X137869657Y-97397866D01*
X138012514Y-97397866D01*
X138107752Y-97445485D01*
X138155371Y-97493104D01*
X138202990Y-97588342D01*
X138202990Y-97969295D01*
X137679181Y-97064533D02*
X137679181Y-96397866D01*
X138679181Y-96826438D01*
X136088381Y-97397866D02*
X135612190Y-97731200D01*
X136088381Y-97969295D02*
X135088381Y-97969295D01*
X135088381Y-97588342D01*
X135136000Y-97493104D01*
X135183619Y-97445485D01*
X135278857Y-97397866D01*
X135421714Y-97397866D01*
X135516952Y-97445485D01*
X135564571Y-97493104D01*
X135612190Y-97588342D01*
X135612190Y-97969295D01*
X135516952Y-96826438D02*
X135469333Y-96921676D01*
X135421714Y-96969295D01*
X135326476Y-97016914D01*
X135278857Y-97016914D01*
X135183619Y-96969295D01*
X135136000Y-96921676D01*
X135088381Y-96826438D01*
X135088381Y-96635961D01*
X135136000Y-96540723D01*
X135183619Y-96493104D01*
X135278857Y-96445485D01*
X135326476Y-96445485D01*
X135421714Y-96493104D01*
X135469333Y-96540723D01*
X135516952Y-96635961D01*
X135516952Y-96826438D01*
X135564571Y-96921676D01*
X135612190Y-96969295D01*
X135707429Y-97016914D01*
X135897905Y-97016914D01*
X135993143Y-96969295D01*
X136040762Y-96921676D01*
X136088381Y-96826438D01*
X136088381Y-96635961D01*
X136040762Y-96540723D01*
X135993143Y-96493104D01*
X135897905Y-96445485D01*
X135707429Y-96445485D01*
X135612190Y-96493104D01*
X135564571Y-96540723D01*
X135516952Y-96635961D01*
X133497581Y-97397866D02*
X133021390Y-97731200D01*
X133497581Y-97969295D02*
X132497581Y-97969295D01*
X132497581Y-97588342D01*
X132545200Y-97493104D01*
X132592819Y-97445485D01*
X132688057Y-97397866D01*
X132830914Y-97397866D01*
X132926152Y-97445485D01*
X132973771Y-97493104D01*
X133021390Y-97588342D01*
X133021390Y-97969295D01*
X133497581Y-96921676D02*
X133497581Y-96731200D01*
X133449962Y-96635961D01*
X133402343Y-96588342D01*
X133259486Y-96493104D01*
X133069010Y-96445485D01*
X132688057Y-96445485D01*
X132592819Y-96493104D01*
X132545200Y-96540723D01*
X132497581Y-96635961D01*
X132497581Y-96826438D01*
X132545200Y-96921676D01*
X132592819Y-96969295D01*
X132688057Y-97016914D01*
X132926152Y-97016914D01*
X133021390Y-96969295D01*
X133069010Y-96921676D01*
X133116629Y-96826438D01*
X133116629Y-96635961D01*
X133069010Y-96540723D01*
X133021390Y-96493104D01*
X132926152Y-96445485D01*
X187650381Y-108973857D02*
X187174190Y-109307191D01*
X187650381Y-109545286D02*
X186650381Y-109545286D01*
X186650381Y-109164333D01*
X186698000Y-109069095D01*
X186745619Y-109021476D01*
X186840857Y-108973857D01*
X186983714Y-108973857D01*
X187078952Y-109021476D01*
X187126571Y-109069095D01*
X187174190Y-109164333D01*
X187174190Y-109545286D01*
X187650381Y-108021476D02*
X187650381Y-108592905D01*
X187650381Y-108307191D02*
X186650381Y-108307191D01*
X186793238Y-108402429D01*
X186888476Y-108497667D01*
X186936095Y-108592905D01*
X186745619Y-107640524D02*
X186698000Y-107592905D01*
X186650381Y-107497667D01*
X186650381Y-107259571D01*
X186698000Y-107164333D01*
X186745619Y-107116714D01*
X186840857Y-107069095D01*
X186936095Y-107069095D01*
X187078952Y-107116714D01*
X187650381Y-107688143D01*
X187650381Y-107069095D01*
X145089643Y-93098881D02*
X144756309Y-92622690D01*
X144518214Y-93098881D02*
X144518214Y-92098881D01*
X144899167Y-92098881D01*
X144994405Y-92146500D01*
X145042024Y-92194119D01*
X145089643Y-92289357D01*
X145089643Y-92432214D01*
X145042024Y-92527452D01*
X144994405Y-92575071D01*
X144899167Y-92622690D01*
X144518214Y-92622690D01*
X146042024Y-93098881D02*
X145470595Y-93098881D01*
X145756309Y-93098881D02*
X145756309Y-92098881D01*
X145661071Y-92241738D01*
X145565833Y-92336976D01*
X145470595Y-92384595D01*
X146375357Y-92098881D02*
X146994405Y-92098881D01*
X146661071Y-92479833D01*
X146803929Y-92479833D01*
X146899167Y-92527452D01*
X146946786Y-92575071D01*
X146994405Y-92670310D01*
X146994405Y-92908405D01*
X146946786Y-93003643D01*
X146899167Y-93051262D01*
X146803929Y-93098881D01*
X146518214Y-93098881D01*
X146422976Y-93051262D01*
X146375357Y-93003643D01*
X145153143Y-91193881D02*
X144819809Y-90717690D01*
X144581714Y-91193881D02*
X144581714Y-90193881D01*
X144962667Y-90193881D01*
X145057905Y-90241500D01*
X145105524Y-90289119D01*
X145153143Y-90384357D01*
X145153143Y-90527214D01*
X145105524Y-90622452D01*
X145057905Y-90670071D01*
X144962667Y-90717690D01*
X144581714Y-90717690D01*
X146105524Y-91193881D02*
X145534095Y-91193881D01*
X145819809Y-91193881D02*
X145819809Y-90193881D01*
X145724571Y-90336738D01*
X145629333Y-90431976D01*
X145534095Y-90479595D01*
X146962667Y-90527214D02*
X146962667Y-91193881D01*
X146724571Y-90146262D02*
X146486476Y-90860548D01*
X147105524Y-90860548D01*
X145089643Y-89098381D02*
X144756309Y-88622190D01*
X144518214Y-89098381D02*
X144518214Y-88098381D01*
X144899167Y-88098381D01*
X144994405Y-88146000D01*
X145042024Y-88193619D01*
X145089643Y-88288857D01*
X145089643Y-88431714D01*
X145042024Y-88526952D01*
X144994405Y-88574571D01*
X144899167Y-88622190D01*
X144518214Y-88622190D01*
X146042024Y-89098381D02*
X145470595Y-89098381D01*
X145756309Y-89098381D02*
X145756309Y-88098381D01*
X145661071Y-88241238D01*
X145565833Y-88336476D01*
X145470595Y-88384095D01*
X146946786Y-88098381D02*
X146470595Y-88098381D01*
X146422976Y-88574571D01*
X146470595Y-88526952D01*
X146565833Y-88479333D01*
X146803929Y-88479333D01*
X146899167Y-88526952D01*
X146946786Y-88574571D01*
X146994405Y-88669810D01*
X146994405Y-88907905D01*
X146946786Y-89003143D01*
X146899167Y-89050762D01*
X146803929Y-89098381D01*
X146565833Y-89098381D01*
X146470595Y-89050762D01*
X146422976Y-89003143D01*
X123573067Y-119238762D02*
X123715924Y-119286381D01*
X123954020Y-119286381D01*
X124049258Y-119238762D01*
X124096877Y-119191143D01*
X124144496Y-119095905D01*
X124144496Y-119000667D01*
X124096877Y-118905429D01*
X124049258Y-118857810D01*
X123954020Y-118810190D01*
X123763543Y-118762571D01*
X123668305Y-118714952D01*
X123620686Y-118667333D01*
X123573067Y-118572095D01*
X123573067Y-118476857D01*
X123620686Y-118381619D01*
X123668305Y-118334000D01*
X123763543Y-118286381D01*
X124001639Y-118286381D01*
X124144496Y-118334000D01*
X124477829Y-118286381D02*
X124715924Y-119286381D01*
X124906401Y-118572095D01*
X125096877Y-119286381D01*
X125334972Y-118286381D01*
X125477829Y-119381619D02*
X126239734Y-119381619D01*
X126477829Y-119286381D02*
X126477829Y-118286381D01*
X126715924Y-118286381D01*
X126858782Y-118334000D01*
X126954020Y-118429238D01*
X127001639Y-118524476D01*
X127049258Y-118714952D01*
X127049258Y-118857810D01*
X127001639Y-119048286D01*
X126954020Y-119143524D01*
X126858782Y-119238762D01*
X126715924Y-119286381D01*
X126477829Y-119286381D01*
X127668305Y-118286381D02*
X127858782Y-118286381D01*
X127954020Y-118334000D01*
X128049258Y-118429238D01*
X128096877Y-118619714D01*
X128096877Y-118953048D01*
X128049258Y-119143524D01*
X127954020Y-119238762D01*
X127858782Y-119286381D01*
X127668305Y-119286381D01*
X127573067Y-119238762D01*
X127477829Y-119143524D01*
X127430210Y-118953048D01*
X127430210Y-118619714D01*
X127477829Y-118429238D01*
X127573067Y-118334000D01*
X127668305Y-118286381D01*
X128430210Y-118286381D02*
X128668305Y-119286381D01*
X128858782Y-118572095D01*
X129049258Y-119286381D01*
X129287353Y-118286381D01*
X129668305Y-119286381D02*
X129668305Y-118286381D01*
X130239734Y-119286381D01*
X130239734Y-118286381D01*
X131239734Y-119286381D02*
X130668305Y-119286381D01*
X130954019Y-119286381D02*
X130954019Y-118286381D01*
X130858781Y-118429238D01*
X130763543Y-118524476D01*
X130668305Y-118572095D01*
X123382590Y-111923562D02*
X123525447Y-111971181D01*
X123763543Y-111971181D01*
X123858781Y-111923562D01*
X123906400Y-111875943D01*
X123954019Y-111780705D01*
X123954019Y-111685467D01*
X123906400Y-111590229D01*
X123858781Y-111542610D01*
X123763543Y-111494990D01*
X123573066Y-111447371D01*
X123477828Y-111399752D01*
X123430209Y-111352133D01*
X123382590Y-111256895D01*
X123382590Y-111161657D01*
X123430209Y-111066419D01*
X123477828Y-111018800D01*
X123573066Y-110971181D01*
X123811162Y-110971181D01*
X123954019Y-111018800D01*
X124287352Y-110971181D02*
X124525447Y-111971181D01*
X124715924Y-111256895D01*
X124906400Y-111971181D01*
X125144495Y-110971181D01*
X125287352Y-112066419D02*
X126049257Y-112066419D01*
X126287352Y-111447371D02*
X126620686Y-111447371D01*
X126763543Y-111971181D02*
X126287352Y-111971181D01*
X126287352Y-110971181D01*
X126763543Y-110971181D01*
X127192114Y-111971181D02*
X127192114Y-110971181D01*
X127763543Y-111971181D01*
X127763543Y-110971181D01*
X128096876Y-110971181D02*
X128668305Y-110971181D01*
X128382590Y-111971181D02*
X128382590Y-110971181D01*
X129001638Y-111447371D02*
X129334972Y-111447371D01*
X129477829Y-111971181D02*
X129001638Y-111971181D01*
X129001638Y-110971181D01*
X129477829Y-110971181D01*
X130477829Y-111971181D02*
X130144495Y-111494990D01*
X129906400Y-111971181D02*
X129906400Y-110971181D01*
X130287353Y-110971181D01*
X130382591Y-111018800D01*
X130430210Y-111066419D01*
X130477829Y-111161657D01*
X130477829Y-111304514D01*
X130430210Y-111399752D01*
X130382591Y-111447371D01*
X130287353Y-111494990D01*
X129906400Y-111494990D01*
X131430210Y-111971181D02*
X130858781Y-111971181D01*
X131144495Y-111971181D02*
X131144495Y-110971181D01*
X131049257Y-111114038D01*
X130954019Y-111209276D01*
X130858781Y-111256895D01*
X113180762Y-116156953D02*
X113228381Y-116014096D01*
X113228381Y-115776000D01*
X113180762Y-115680762D01*
X113133143Y-115633143D01*
X113037905Y-115585524D01*
X112942667Y-115585524D01*
X112847429Y-115633143D01*
X112799810Y-115680762D01*
X112752190Y-115776000D01*
X112704571Y-115966477D01*
X112656952Y-116061715D01*
X112609333Y-116109334D01*
X112514095Y-116156953D01*
X112418857Y-116156953D01*
X112323619Y-116109334D01*
X112276000Y-116061715D01*
X112228381Y-115966477D01*
X112228381Y-115728381D01*
X112276000Y-115585524D01*
X112228381Y-115252191D02*
X113228381Y-115014096D01*
X112514095Y-114823619D01*
X113228381Y-114633143D01*
X112228381Y-114395048D01*
X113323619Y-114252191D02*
X113323619Y-113490286D01*
X113228381Y-112776000D02*
X113228381Y-113252191D01*
X112228381Y-113252191D01*
X112704571Y-112442667D02*
X112704571Y-112109333D01*
X113228381Y-111966476D02*
X113228381Y-112442667D01*
X112228381Y-112442667D01*
X112228381Y-111966476D01*
X112704571Y-111204571D02*
X112704571Y-111537905D01*
X113228381Y-111537905D02*
X112228381Y-111537905D01*
X112228381Y-111061714D01*
X112228381Y-110823619D02*
X112228381Y-110252190D01*
X113228381Y-110537905D02*
X112228381Y-110537905D01*
X113228381Y-109395047D02*
X113228381Y-109966476D01*
X113228381Y-109680762D02*
X112228381Y-109680762D01*
X112371238Y-109776000D01*
X112466476Y-109871238D01*
X112514095Y-109966476D01*
X136917162Y-116785543D02*
X136964781Y-116642686D01*
X136964781Y-116404590D01*
X136917162Y-116309352D01*
X136869543Y-116261733D01*
X136774305Y-116214114D01*
X136679067Y-116214114D01*
X136583829Y-116261733D01*
X136536210Y-116309352D01*
X136488590Y-116404590D01*
X136440971Y-116595067D01*
X136393352Y-116690305D01*
X136345733Y-116737924D01*
X136250495Y-116785543D01*
X136155257Y-116785543D01*
X136060019Y-116737924D01*
X136012400Y-116690305D01*
X135964781Y-116595067D01*
X135964781Y-116356971D01*
X136012400Y-116214114D01*
X135964781Y-115880781D02*
X136964781Y-115642686D01*
X136250495Y-115452209D01*
X136964781Y-115261733D01*
X135964781Y-115023638D01*
X137060019Y-114880781D02*
X137060019Y-114118876D01*
X136964781Y-113309352D02*
X136488590Y-113642686D01*
X136964781Y-113880781D02*
X135964781Y-113880781D01*
X135964781Y-113499828D01*
X136012400Y-113404590D01*
X136060019Y-113356971D01*
X136155257Y-113309352D01*
X136298114Y-113309352D01*
X136393352Y-113356971D01*
X136440971Y-113404590D01*
X136488590Y-113499828D01*
X136488590Y-113880781D01*
X136964781Y-112880781D02*
X135964781Y-112880781D01*
X136012400Y-111880781D02*
X135964781Y-111976019D01*
X135964781Y-112118876D01*
X136012400Y-112261734D01*
X136107638Y-112356972D01*
X136202876Y-112404591D01*
X136393352Y-112452210D01*
X136536210Y-112452210D01*
X136726686Y-112404591D01*
X136821924Y-112356972D01*
X136917162Y-112261734D01*
X136964781Y-112118876D01*
X136964781Y-112023638D01*
X136917162Y-111880781D01*
X136869543Y-111833162D01*
X136536210Y-111833162D01*
X136536210Y-112023638D01*
X136964781Y-111404591D02*
X135964781Y-111404591D01*
X136440971Y-111404591D02*
X136440971Y-110833162D01*
X136964781Y-110833162D02*
X135964781Y-110833162D01*
X135964781Y-110499829D02*
X135964781Y-109928400D01*
X136964781Y-110214115D02*
X135964781Y-110214115D01*
X136964781Y-109071257D02*
X136964781Y-109642686D01*
X136964781Y-109356972D02*
X135964781Y-109356972D01*
X136107638Y-109452210D01*
X136202876Y-109547448D01*
X136250495Y-109642686D01*
X124973105Y-100836362D02*
X125115962Y-100883981D01*
X125354058Y-100883981D01*
X125449296Y-100836362D01*
X125496915Y-100788743D01*
X125544534Y-100693505D01*
X125544534Y-100598267D01*
X125496915Y-100503029D01*
X125449296Y-100455410D01*
X125354058Y-100407790D01*
X125163581Y-100360171D01*
X125068343Y-100312552D01*
X125020724Y-100264933D01*
X124973105Y-100169695D01*
X124973105Y-100074457D01*
X125020724Y-99979219D01*
X125068343Y-99931600D01*
X125163581Y-99883981D01*
X125401677Y-99883981D01*
X125544534Y-99931600D01*
X125877867Y-99883981D02*
X126115962Y-100883981D01*
X126306439Y-100169695D01*
X126496915Y-100883981D01*
X126735010Y-99883981D01*
X126877867Y-100979219D02*
X127639772Y-100979219D01*
X127877867Y-99883981D02*
X127877867Y-100693505D01*
X127925486Y-100788743D01*
X127973105Y-100836362D01*
X128068343Y-100883981D01*
X128258820Y-100883981D01*
X128354058Y-100836362D01*
X128401677Y-100788743D01*
X128449296Y-100693505D01*
X128449296Y-99883981D01*
X128925486Y-100883981D02*
X128925486Y-99883981D01*
X129306439Y-99883981D01*
X129401677Y-99931600D01*
X129449296Y-99979219D01*
X129496915Y-100074457D01*
X129496915Y-100217314D01*
X129449296Y-100312552D01*
X129401677Y-100360171D01*
X129306439Y-100407790D01*
X128925486Y-100407790D01*
X130449296Y-100883981D02*
X129877867Y-100883981D01*
X130163581Y-100883981D02*
X130163581Y-99883981D01*
X130068343Y-100026838D01*
X129973105Y-100122076D01*
X129877867Y-100169695D01*
X172974095Y-103338381D02*
X172974095Y-104147905D01*
X173021714Y-104243143D01*
X173069333Y-104290762D01*
X173164571Y-104338381D01*
X173355048Y-104338381D01*
X173450286Y-104290762D01*
X173497905Y-104243143D01*
X173545524Y-104147905D01*
X173545524Y-103338381D01*
X173974095Y-103433619D02*
X174021714Y-103386000D01*
X174116952Y-103338381D01*
X174355048Y-103338381D01*
X174450286Y-103386000D01*
X174497905Y-103433619D01*
X174545524Y-103528857D01*
X174545524Y-103624095D01*
X174497905Y-103766952D01*
X173926476Y-104338381D01*
X174545524Y-104338381D01*
X142811595Y-106449881D02*
X142811595Y-107259405D01*
X142859214Y-107354643D01*
X142906833Y-107402262D01*
X143002071Y-107449881D01*
X143192548Y-107449881D01*
X143287786Y-107402262D01*
X143335405Y-107354643D01*
X143383024Y-107259405D01*
X143383024Y-106449881D01*
X143763976Y-106449881D02*
X144383024Y-106449881D01*
X144049690Y-106830833D01*
X144192548Y-106830833D01*
X144287786Y-106878452D01*
X144335405Y-106926071D01*
X144383024Y-107021310D01*
X144383024Y-107259405D01*
X144335405Y-107354643D01*
X144287786Y-107402262D01*
X144192548Y-107449881D01*
X143906833Y-107449881D01*
X143811595Y-107402262D01*
X143763976Y-107354643D01*
X144037467Y-129230381D02*
X144037467Y-128230381D01*
X144466038Y-128325619D02*
X144513657Y-128278000D01*
X144608895Y-128230381D01*
X144846991Y-128230381D01*
X144942229Y-128278000D01*
X144989848Y-128325619D01*
X145037467Y-128420857D01*
X145037467Y-128516095D01*
X144989848Y-128658952D01*
X144418419Y-129230381D01*
X145037467Y-129230381D01*
X146037467Y-129135143D02*
X145989848Y-129182762D01*
X145846991Y-129230381D01*
X145751753Y-129230381D01*
X145608895Y-129182762D01*
X145513657Y-129087524D01*
X145466038Y-128992286D01*
X145418419Y-128801810D01*
X145418419Y-128658952D01*
X145466038Y-128468476D01*
X145513657Y-128373238D01*
X145608895Y-128278000D01*
X145751753Y-128230381D01*
X145846991Y-128230381D01*
X145989848Y-128278000D01*
X146037467Y-128325619D01*
X146227943Y-129325619D02*
X146989848Y-129325619D01*
X147561277Y-128706571D02*
X147704134Y-128754190D01*
X147751753Y-128801810D01*
X147799372Y-128897048D01*
X147799372Y-129039905D01*
X147751753Y-129135143D01*
X147704134Y-129182762D01*
X147608896Y-129230381D01*
X147227943Y-129230381D01*
X147227943Y-128230381D01*
X147561277Y-128230381D01*
X147656515Y-128278000D01*
X147704134Y-128325619D01*
X147751753Y-128420857D01*
X147751753Y-128516095D01*
X147704134Y-128611333D01*
X147656515Y-128658952D01*
X147561277Y-128706571D01*
X147227943Y-128706571D01*
X148227943Y-128230381D02*
X148227943Y-129039905D01*
X148275562Y-129135143D01*
X148323181Y-129182762D01*
X148418419Y-129230381D01*
X148608896Y-129230381D01*
X148704134Y-129182762D01*
X148751753Y-129135143D01*
X148799372Y-129039905D01*
X148799372Y-128230381D01*
X149227943Y-129182762D02*
X149370800Y-129230381D01*
X149608896Y-129230381D01*
X149704134Y-129182762D01*
X149751753Y-129135143D01*
X149799372Y-129039905D01*
X149799372Y-128944667D01*
X149751753Y-128849429D01*
X149704134Y-128801810D01*
X149608896Y-128754190D01*
X149418419Y-128706571D01*
X149323181Y-128658952D01*
X149275562Y-128611333D01*
X149227943Y-128516095D01*
X149227943Y-128420857D01*
X149275562Y-128325619D01*
X149323181Y-128278000D01*
X149418419Y-128230381D01*
X149656515Y-128230381D01*
X149799372Y-128278000D01*
X150751753Y-129230381D02*
X150180324Y-129230381D01*
X150466038Y-129230381D02*
X150466038Y-128230381D01*
X150370800Y-128373238D01*
X150275562Y-128468476D01*
X150180324Y-128516095D01*
X136405881Y-121451666D02*
X135929690Y-121785000D01*
X136405881Y-122023095D02*
X135405881Y-122023095D01*
X135405881Y-121642142D01*
X135453500Y-121546904D01*
X135501119Y-121499285D01*
X135596357Y-121451666D01*
X135739214Y-121451666D01*
X135834452Y-121499285D01*
X135882071Y-121546904D01*
X135929690Y-121642142D01*
X135929690Y-122023095D01*
X136405881Y-120499285D02*
X136405881Y-121070714D01*
X136405881Y-120785000D02*
X135405881Y-120785000D01*
X135548738Y-120880238D01*
X135643976Y-120975476D01*
X135691595Y-121070714D01*
X143541976Y-125563381D02*
X143875309Y-126563381D01*
X144208643Y-125563381D01*
X144541976Y-126563381D02*
X144541976Y-125563381D01*
X144780071Y-125563381D01*
X144922929Y-125611000D01*
X145018167Y-125706238D01*
X145065786Y-125801476D01*
X145113405Y-125991952D01*
X145113405Y-126134810D01*
X145065786Y-126325286D01*
X145018167Y-126420524D01*
X144922929Y-126515762D01*
X144780071Y-126563381D01*
X144541976Y-126563381D01*
X145541976Y-126563381D02*
X145541976Y-125563381D01*
X145780071Y-125563381D01*
X145922929Y-125611000D01*
X146018167Y-125706238D01*
X146065786Y-125801476D01*
X146113405Y-125991952D01*
X146113405Y-126134810D01*
X146065786Y-126325286D01*
X146018167Y-126420524D01*
X145922929Y-126515762D01*
X145780071Y-126563381D01*
X145541976Y-126563381D01*
X147065786Y-126563381D02*
X146494357Y-126563381D01*
X146780071Y-126563381D02*
X146780071Y-125563381D01*
X146684833Y-125706238D01*
X146589595Y-125801476D01*
X146494357Y-125849095D01*
X189253762Y-103266500D02*
X189301381Y-103123643D01*
X189301381Y-102885547D01*
X189253762Y-102790309D01*
X189206143Y-102742690D01*
X189110905Y-102695071D01*
X189015667Y-102695071D01*
X188920429Y-102742690D01*
X188872810Y-102790309D01*
X188825190Y-102885547D01*
X188777571Y-103076024D01*
X188729952Y-103171262D01*
X188682333Y-103218881D01*
X188587095Y-103266500D01*
X188491857Y-103266500D01*
X188396619Y-103218881D01*
X188349000Y-103171262D01*
X188301381Y-103076024D01*
X188301381Y-102837928D01*
X188349000Y-102695071D01*
X189301381Y-102266500D02*
X188301381Y-102266500D01*
X188301381Y-101885547D01*
X188349000Y-101790309D01*
X188396619Y-101742690D01*
X188491857Y-101695071D01*
X188634714Y-101695071D01*
X188729952Y-101742690D01*
X188777571Y-101790309D01*
X188825190Y-101885547D01*
X188825190Y-102266500D01*
X189301381Y-101266500D02*
X188301381Y-101266500D01*
X188777571Y-100456976D02*
X188825190Y-100314119D01*
X188872810Y-100266500D01*
X188968048Y-100218881D01*
X189110905Y-100218881D01*
X189206143Y-100266500D01*
X189253762Y-100314119D01*
X189301381Y-100409357D01*
X189301381Y-100790310D01*
X188301381Y-100790310D01*
X188301381Y-100456976D01*
X188349000Y-100361738D01*
X188396619Y-100314119D01*
X188491857Y-100266500D01*
X188587095Y-100266500D01*
X188682333Y-100314119D01*
X188729952Y-100361738D01*
X188777571Y-100456976D01*
X188777571Y-100790310D01*
X188301381Y-99790310D02*
X189110905Y-99790310D01*
X189206143Y-99742691D01*
X189253762Y-99695072D01*
X189301381Y-99599834D01*
X189301381Y-99409357D01*
X189253762Y-99314119D01*
X189206143Y-99266500D01*
X189110905Y-99218881D01*
X188301381Y-99218881D01*
X189253762Y-98790310D02*
X189301381Y-98647453D01*
X189301381Y-98409357D01*
X189253762Y-98314119D01*
X189206143Y-98266500D01*
X189110905Y-98218881D01*
X189015667Y-98218881D01*
X188920429Y-98266500D01*
X188872810Y-98314119D01*
X188825190Y-98409357D01*
X188777571Y-98599834D01*
X188729952Y-98695072D01*
X188682333Y-98742691D01*
X188587095Y-98790310D01*
X188491857Y-98790310D01*
X188396619Y-98742691D01*
X188349000Y-98695072D01*
X188301381Y-98599834D01*
X188301381Y-98361738D01*
X188349000Y-98218881D01*
X189301381Y-97266500D02*
X189301381Y-97837929D01*
X189301381Y-97552215D02*
X188301381Y-97552215D01*
X188444238Y-97647453D01*
X188539476Y-97742691D01*
X188587095Y-97837929D01*
M02*
