G04 #@! TF.FileFunction,Copper,L1,Top,Signal*
%FSLAX46Y46*%
G04 Gerber Fmt 4.6, Leading zero omitted, Abs format (unit mm)*
G04 Created by KiCad (PCBNEW (2015-04-17 BZR 5609)-product) date Friday, 04 September 2015 01:48:52 pm*
%MOMM*%
G01*
G04 APERTURE LIST*
%ADD10C,0.100000*%
%ADD11C,2.235200*%
%ADD12R,1.250000X1.500000*%
%ADD13R,1.500000X1.250000*%
%ADD14R,1.198880X1.198880*%
%ADD15R,1.727200X2.032000*%
%ADD16O,1.727200X2.032000*%
%ADD17R,2.235200X2.235200*%
%ADD18R,1.300000X1.500000*%
%ADD19R,1.500000X1.300000*%
%ADD20R,0.600000X1.200000*%
%ADD21R,1.200000X0.600000*%
%ADD22R,2.032000X1.727200*%
%ADD23O,2.032000X1.727200*%
%ADD24R,1.500000X2.200000*%
%ADD25R,2.200000X1.500000*%
%ADD26C,0.600000*%
%ADD27C,0.250000*%
%ADD28C,0.500000*%
%ADD29C,0.254000*%
G04 APERTURE END LIST*
D10*
D11*
X137769600Y-126187200D03*
D12*
X155181300Y-102166100D03*
X155181300Y-104666100D03*
X148259800Y-120339800D03*
X148259800Y-122839800D03*
X152857200Y-102229600D03*
X152857200Y-104729600D03*
D13*
X142347000Y-119888000D03*
X139847000Y-119888000D03*
D14*
X153255980Y-92710000D03*
X155354020Y-92710000D03*
X153255980Y-90678000D03*
X155354020Y-90678000D03*
X153255980Y-88646000D03*
X155354020Y-88646000D03*
D15*
X130606800Y-89509600D03*
D16*
X133146800Y-89509600D03*
X135686800Y-89509600D03*
X138226800Y-89509600D03*
X140766800Y-89509600D03*
X143306800Y-89509600D03*
D17*
X160020000Y-119329200D03*
X163525200Y-119329200D03*
X167030400Y-119329200D03*
X170535600Y-119329200D03*
X159000000Y-91600000D03*
X156400000Y-84800000D03*
X148200000Y-84200000D03*
X144600000Y-84200000D03*
X141000000Y-84200000D03*
X159004000Y-95504000D03*
D18*
X188976000Y-106981000D03*
X188976000Y-109681000D03*
D19*
X148256000Y-92710000D03*
X150956000Y-92710000D03*
X148294100Y-90754200D03*
X150994100Y-90754200D03*
X148256000Y-88646000D03*
X150956000Y-88646000D03*
D20*
X145028000Y-117153000D03*
X145828000Y-117153000D03*
X146628000Y-117153000D03*
X147428000Y-117153000D03*
X148228000Y-117153000D03*
X149028000Y-117153000D03*
X149828000Y-117153000D03*
X150628000Y-117153000D03*
D21*
X152078000Y-115703000D03*
X152078000Y-114903000D03*
X152078000Y-114103000D03*
X152078000Y-113303000D03*
X152078000Y-112503000D03*
X152078000Y-111703000D03*
X152078000Y-110903000D03*
X152078000Y-110103000D03*
D20*
X150628000Y-108653000D03*
X149828000Y-108653000D03*
X149028000Y-108653000D03*
X148228000Y-108653000D03*
X147428000Y-108653000D03*
X146628000Y-108653000D03*
X145828000Y-108653000D03*
X145028000Y-108653000D03*
D21*
X143578000Y-110103000D03*
X143578000Y-110903000D03*
X143578000Y-111703000D03*
X143578000Y-112503000D03*
X143578000Y-113303000D03*
X143578000Y-114103000D03*
X143578000Y-114903000D03*
X143578000Y-115703000D03*
D15*
X151000000Y-131400000D03*
D16*
X148460000Y-131400000D03*
X145920000Y-131400000D03*
X143380000Y-131400000D03*
D18*
X137769600Y-119960400D03*
X137769600Y-122660400D03*
D17*
X141274800Y-126187200D03*
D22*
X191800000Y-92400000D03*
D23*
X191800000Y-94940000D03*
X191800000Y-97480000D03*
X191800000Y-100020000D03*
X191800000Y-102560000D03*
X191800000Y-105100000D03*
X191800000Y-107640000D03*
D17*
X153314400Y-96774000D03*
D24*
X119548000Y-117428400D03*
X115148000Y-117428400D03*
X115148000Y-108428400D03*
X119548000Y-108428400D03*
D25*
X122906400Y-114518800D03*
X122906400Y-110118800D03*
X131906400Y-110118800D03*
X131906400Y-114518800D03*
X122906400Y-121834000D03*
X122906400Y-117434000D03*
X131906400Y-117434000D03*
X131906400Y-121834000D03*
X123058800Y-107051200D03*
X123058800Y-102651200D03*
X132058800Y-102651200D03*
X132058800Y-107051200D03*
D24*
X139512400Y-117428400D03*
X135112400Y-117428400D03*
X135112400Y-108428400D03*
X139512400Y-108428400D03*
D26*
X157734000Y-101346000D03*
X157276800Y-88544400D03*
X146939000Y-103124000D03*
X146050000Y-134112000D03*
X146621500Y-114427000D03*
X143002000Y-100965000D03*
X119481600Y-120548400D03*
X137160000Y-113284000D03*
X152400000Y-106680000D03*
X149961600Y-112471200D03*
X143891000Y-107010200D03*
X145313400Y-110337600D03*
D27*
X137769600Y-126187200D02*
X137769600Y-122660400D01*
X138538200Y-114903000D02*
X137312400Y-116128800D01*
X137312400Y-116128800D02*
X137312400Y-117805200D01*
X137312400Y-117805200D02*
X135788400Y-119329200D01*
X135788400Y-119329200D02*
X135788400Y-120679200D01*
X135788400Y-120679200D02*
X137769600Y-122660400D01*
X143578000Y-114903000D02*
X138538200Y-114903000D01*
D28*
X155181300Y-102166100D02*
X156913900Y-102166100D01*
X156913900Y-102166100D02*
X157734000Y-101346000D01*
X157175200Y-88646000D02*
X155354020Y-88646000D01*
X157276800Y-88544400D02*
X157175200Y-88646000D01*
D27*
X150622000Y-108647000D02*
X150628000Y-108653000D01*
D28*
X148228000Y-117153000D02*
X148228000Y-120308000D01*
D27*
X148228000Y-120308000D02*
X148259800Y-120339800D01*
D28*
X142347000Y-119888000D02*
X142347000Y-118511000D01*
X143705000Y-117153000D02*
X145028000Y-117153000D01*
X142347000Y-118511000D02*
X143705000Y-117153000D01*
X150628000Y-104032400D02*
X150628000Y-108653000D01*
X152430800Y-102229600D02*
X150628000Y-104032400D01*
D27*
X152857200Y-102229600D02*
X152430800Y-102229600D01*
D28*
X148228000Y-112223600D02*
X150628000Y-109823600D01*
D27*
X150628000Y-109823600D02*
X150628000Y-108653000D01*
D28*
X148228000Y-117153000D02*
X148228000Y-112223600D01*
X141274800Y-123596400D02*
X142347000Y-122524200D01*
X142347000Y-122524200D02*
X142347000Y-119888000D01*
X141274800Y-126187200D02*
X141274800Y-123596400D01*
X151000000Y-122196400D02*
X149143400Y-120339800D01*
D27*
X149143400Y-120339800D02*
X148259800Y-120339800D01*
D28*
X151000000Y-131400000D02*
X151000000Y-122196400D01*
D27*
X155354020Y-88646000D02*
X155354020Y-92710000D01*
D28*
X151000000Y-133226000D02*
X150114000Y-134112000D01*
X150114000Y-134112000D02*
X146050000Y-134112000D01*
X151000000Y-131400000D02*
X151000000Y-133226000D01*
D27*
X155117800Y-102229600D02*
X155181300Y-102166100D01*
D28*
X152857200Y-102229600D02*
X155117800Y-102229600D01*
D27*
X155354020Y-88646000D02*
X155354020Y-90678000D01*
X155354020Y-92710000D02*
X155354020Y-90678000D01*
D28*
X146621500Y-114427000D02*
X146050000Y-114998500D01*
X146050000Y-114998500D02*
X145351500Y-114998500D01*
X145351500Y-114998500D02*
X145028000Y-115322000D01*
X145028000Y-115322000D02*
X145028000Y-117153000D01*
X143306800Y-91389200D02*
X143002000Y-91694000D01*
X143002000Y-91694000D02*
X143002000Y-100965000D01*
X143306800Y-89509600D02*
X143306800Y-91389200D01*
X155181300Y-107099100D02*
X155181300Y-104666100D01*
X152177400Y-110103000D02*
X155181300Y-107099100D01*
D27*
X152078000Y-110103000D02*
X152177400Y-110103000D01*
D28*
X140584800Y-117428400D02*
X142310200Y-115703000D01*
X142310200Y-115703000D02*
X143578000Y-115703000D01*
X139512400Y-117428400D02*
X140584800Y-117428400D01*
X139105400Y-119960400D02*
X137769600Y-119960400D01*
D27*
X139512400Y-119553400D02*
X139105400Y-119960400D01*
D28*
X139512400Y-117428400D02*
X139512400Y-119553400D01*
X148460000Y-127428800D02*
X148259800Y-127228600D01*
X148259800Y-127228600D02*
X148259800Y-122839800D01*
X148460000Y-131400000D02*
X148460000Y-127428800D01*
X115148000Y-117428400D02*
X119548000Y-117428400D01*
X122906400Y-117434000D02*
X122906400Y-121834000D01*
D27*
X122906400Y-102803600D02*
X123058800Y-102651200D01*
D28*
X122906400Y-117434000D02*
X122906400Y-102803600D01*
X120767200Y-121834000D02*
X119481600Y-120548400D01*
X122906400Y-121834000D02*
X120767200Y-121834000D01*
X135112400Y-115331600D02*
X137160000Y-113284000D01*
X135112400Y-117428400D02*
X135112400Y-115331600D01*
X152857200Y-106222800D02*
X152400000Y-106680000D01*
X152857200Y-104729600D02*
X152857200Y-106222800D01*
D27*
X152920700Y-104666100D02*
X152857200Y-104729600D01*
D28*
X155181300Y-104666100D02*
X152920700Y-104666100D01*
X196875400Y-107289600D02*
X194484000Y-109681000D01*
X194484000Y-109681000D02*
X188976000Y-109681000D01*
X191800000Y-94940000D02*
X194914400Y-94940000D01*
X197205600Y-97231200D02*
X197205600Y-107289600D01*
X194914400Y-94940000D02*
X197205600Y-97231200D01*
X197205600Y-107289600D02*
X196875400Y-107289600D01*
X122900800Y-117428400D02*
X122906400Y-117434000D01*
X119548000Y-117428400D02*
X122900800Y-117428400D01*
D27*
X150956000Y-92710000D02*
X153255980Y-92710000D01*
X150994100Y-90754200D02*
X153179780Y-90754200D01*
X153179780Y-90754200D02*
X153255980Y-90678000D01*
X150956000Y-88646000D02*
X153255980Y-88646000D01*
X145973800Y-130479800D02*
X145973800Y-120815100D01*
X146628000Y-120160900D02*
X146628000Y-117153000D01*
X145973800Y-120815100D02*
X146628000Y-120160900D01*
X146685000Y-117210000D02*
X146628000Y-117153000D01*
X143433800Y-130479800D02*
X143433800Y-122351800D01*
X143433800Y-122351800D02*
X145828000Y-119957600D01*
X145828000Y-119957600D02*
X145828000Y-117153000D01*
X145923000Y-117248000D02*
X145828000Y-117153000D01*
X191800000Y-102560000D02*
X189640000Y-102560000D01*
X181697000Y-114103000D02*
X152078000Y-114103000D01*
X184000000Y-111800000D02*
X181697000Y-114103000D01*
X184000000Y-108200000D02*
X184000000Y-111800000D01*
X189640000Y-102560000D02*
X184000000Y-108200000D01*
X191800000Y-97480000D02*
X190120000Y-97480000D01*
X180897000Y-112503000D02*
X152078000Y-112503000D01*
X182400000Y-111000000D02*
X180897000Y-112503000D01*
X182400000Y-108200000D02*
X182400000Y-111000000D01*
X188800000Y-101800000D02*
X182400000Y-108200000D01*
X188800000Y-98800000D02*
X188800000Y-101800000D01*
X190120000Y-97480000D02*
X188800000Y-98800000D01*
X191800000Y-105100000D02*
X188500000Y-105100000D01*
X182297000Y-114903000D02*
X152078000Y-114903000D01*
X185000000Y-112200000D02*
X182297000Y-114903000D01*
X185000000Y-108600000D02*
X185000000Y-112200000D01*
X188500000Y-105100000D02*
X185000000Y-108600000D01*
X149028000Y-118395600D02*
X149961600Y-119329200D01*
X149961600Y-119329200D02*
X160020000Y-119329200D01*
X149028000Y-117153000D02*
X149028000Y-118395600D01*
X149828000Y-118281200D02*
X150266400Y-118719600D01*
X150266400Y-118719600D02*
X153924000Y-118719600D01*
X153924000Y-118719600D02*
X155448000Y-117195600D01*
X155448000Y-117195600D02*
X163220400Y-117195600D01*
X163220400Y-117195600D02*
X163525200Y-117500400D01*
X163525200Y-117500400D02*
X163525200Y-119329200D01*
X149828000Y-117153000D02*
X149828000Y-118281200D01*
X153966600Y-117153000D02*
X154686000Y-116433600D01*
X154686000Y-116433600D02*
X166573200Y-116433600D01*
X166573200Y-116433600D02*
X167030400Y-116890800D01*
X167030400Y-116890800D02*
X167030400Y-119329200D01*
X150628000Y-117153000D02*
X153966600Y-117153000D01*
X169195400Y-115703000D02*
X170535600Y-117043200D01*
X170535600Y-117043200D02*
X170535600Y-119329200D01*
X152078000Y-115703000D02*
X169195400Y-115703000D01*
X148256000Y-92710000D02*
X148256000Y-93056000D01*
X148256000Y-93056000D02*
X149800000Y-94600000D01*
X156000000Y-94600000D02*
X159000000Y-91600000D01*
X149800000Y-94600000D02*
X156000000Y-94600000D01*
X149828000Y-108653000D02*
X149828000Y-100171000D01*
X146265900Y-93103700D02*
X146659600Y-92710000D01*
X146265900Y-96608900D02*
X146265900Y-93103700D01*
X149828000Y-100171000D02*
X146265900Y-96608900D01*
X148256000Y-92710000D02*
X146659600Y-92710000D01*
X146659600Y-92710000D02*
X146634200Y-92710000D01*
X149600000Y-86800000D02*
X149600000Y-86200000D01*
X149245800Y-90754200D02*
X149600000Y-90400000D01*
X149600000Y-90400000D02*
X149600000Y-86800000D01*
X149600000Y-86200000D02*
X151000000Y-84800000D01*
X148294100Y-90754200D02*
X149245800Y-90754200D01*
X151000000Y-84800000D02*
X156400000Y-84800000D01*
X149028000Y-108653000D02*
X149028000Y-100260000D01*
X145669000Y-91795600D02*
X146710400Y-90754200D01*
X145669000Y-96901000D02*
X145669000Y-91795600D01*
X149028000Y-100260000D02*
X145669000Y-96901000D01*
X148294100Y-90754200D02*
X146710400Y-90754200D01*
X146710400Y-90754200D02*
X146659600Y-90805000D01*
X148256000Y-88646000D02*
X148256000Y-84256000D01*
X148256000Y-84256000D02*
X148200000Y-84200000D01*
X148228000Y-108653000D02*
X148228000Y-100374400D01*
X145000000Y-91600000D02*
X145920213Y-90716863D01*
X145046700Y-97193100D02*
X145000000Y-91600000D01*
X148228000Y-100374400D02*
X145046700Y-97193100D01*
X148256000Y-88646000D02*
X145920213Y-90716863D01*
X143941800Y-102679500D02*
X143941800Y-91858200D01*
X147428000Y-106165700D02*
X143941800Y-102679500D01*
X147428000Y-108653000D02*
X147428000Y-106165700D01*
X144600000Y-86600000D02*
X144600000Y-84200000D01*
X145600000Y-87600000D02*
X144600000Y-86600000D01*
X145600000Y-90200000D02*
X145600000Y-87600000D01*
X143941800Y-91858200D02*
X145600000Y-90200000D01*
X141732000Y-101346000D02*
X141732000Y-99314000D01*
X141732000Y-99314000D02*
X141732000Y-99314000D01*
X146628000Y-108653000D02*
X146628000Y-106305500D01*
X146628000Y-106305500D02*
X141732000Y-101346000D01*
X141732000Y-101346000D02*
X141726750Y-101340750D01*
X142240000Y-91040000D02*
X142000000Y-90800000D01*
X141732000Y-96774000D02*
X141732000Y-99314000D01*
X142240000Y-96266000D02*
X142240000Y-94996000D01*
X141732000Y-96774000D02*
X142240000Y-96266000D01*
X142000000Y-90800000D02*
X142000000Y-87200000D01*
X142000000Y-87200000D02*
X141000000Y-86200000D01*
X141000000Y-84200000D02*
X141000000Y-86200000D01*
X142240000Y-94996000D02*
X142240000Y-91040000D01*
X153625400Y-111703000D02*
X156972000Y-108356400D01*
X156972000Y-108356400D02*
X156972000Y-105918000D01*
X156972000Y-105918000D02*
X159400000Y-103490000D01*
X159400000Y-103490000D02*
X159400000Y-95600000D01*
X152078000Y-111703000D02*
X153625400Y-111703000D01*
X152078000Y-110903000D02*
X150920200Y-110903000D01*
X149961600Y-111861600D02*
X149961600Y-112471200D01*
X150920200Y-110903000D02*
X149961600Y-111861600D01*
X135382000Y-100457000D02*
X140843000Y-105918000D01*
X142780000Y-110903000D02*
X143578000Y-110903000D01*
X142240000Y-110363000D02*
X142780000Y-110903000D01*
X142240000Y-107061000D02*
X142240000Y-110363000D01*
X141097000Y-105918000D02*
X142240000Y-107061000D01*
X140843000Y-105918000D02*
X141097000Y-105918000D01*
X119548000Y-108428400D02*
X119548000Y-102956000D01*
X122047000Y-100457000D02*
X135382000Y-100457000D01*
X135382000Y-100457000D02*
X135382000Y-100457000D01*
X119548000Y-102956000D02*
X122047000Y-100457000D01*
X115148000Y-108428400D02*
X119548000Y-108428400D01*
X137541000Y-103505000D02*
X140462000Y-106426000D01*
X135128000Y-101092000D02*
X137541000Y-103505000D01*
X131906400Y-117434000D02*
X127721000Y-117434000D01*
X124714000Y-103124000D02*
X126746000Y-101092000D01*
X124714000Y-114427000D02*
X124714000Y-103124000D01*
X127721000Y-117434000D02*
X124714000Y-114427000D01*
X126746000Y-101092000D02*
X135128000Y-101092000D01*
X142564000Y-111703000D02*
X143578000Y-111703000D01*
X141605000Y-110744000D02*
X142564000Y-111703000D01*
X141605000Y-107315000D02*
X141605000Y-110744000D01*
X140716000Y-106426000D02*
X141605000Y-107315000D01*
X140462000Y-106426000D02*
X140716000Y-106426000D01*
X131906400Y-121834000D02*
X131906400Y-117434000D01*
X132058800Y-102651200D02*
X132058800Y-107051200D01*
X132058800Y-102651200D02*
X132058800Y-104245800D01*
X142132000Y-113303000D02*
X143578000Y-113303000D01*
X139827000Y-110998000D02*
X142132000Y-113303000D01*
X134874000Y-110998000D02*
X139827000Y-110998000D01*
X133731000Y-109855000D02*
X134874000Y-110998000D01*
X133731000Y-105918000D02*
X133731000Y-109855000D01*
X132058800Y-104245800D02*
X133731000Y-105918000D01*
X131906400Y-110118800D02*
X133105800Y-110118800D01*
X141916000Y-114103000D02*
X143578000Y-114103000D01*
X139446000Y-111633000D02*
X141916000Y-114103000D01*
X134620000Y-111633000D02*
X139446000Y-111633000D01*
X133105800Y-110118800D02*
X134620000Y-111633000D01*
X131906400Y-110118800D02*
X131906400Y-114518800D01*
X139512400Y-108428400D02*
X140051400Y-108428400D01*
X140051400Y-108428400D02*
X141097000Y-109474000D01*
X141097000Y-109474000D02*
X141097000Y-111379000D01*
X141097000Y-111379000D02*
X142221000Y-112503000D01*
X142221000Y-112503000D02*
X143578000Y-112503000D01*
X135112400Y-108428400D02*
X139512400Y-108428400D01*
X138201400Y-95097600D02*
X138201400Y-92350600D01*
X138201400Y-92350600D02*
X138226800Y-92325200D01*
X138226800Y-89509600D02*
X138226800Y-92325200D01*
X138226800Y-92325200D02*
X138201400Y-92350600D01*
X138201400Y-95050600D02*
X138201400Y-95097600D01*
X138201400Y-95097600D02*
X138201400Y-100139500D01*
X145028000Y-106966100D02*
X145028000Y-108653000D01*
X138201400Y-100139500D02*
X145028000Y-106966100D01*
X135610600Y-92350600D02*
X135610600Y-95050600D01*
X135610600Y-98729800D02*
X143891000Y-107010200D01*
X145313400Y-110337600D02*
X147428000Y-112452200D01*
X147428000Y-112452200D02*
X147428000Y-117153000D01*
X135610600Y-95050600D02*
X135610600Y-98729800D01*
X135610600Y-92350600D02*
X135686800Y-92274400D01*
X135686800Y-89509600D02*
X135686800Y-92274400D01*
X135686800Y-92274400D02*
X135610600Y-92350600D01*
X192000000Y-107640000D02*
X188990000Y-107640000D01*
X188990000Y-107640000D02*
X188950000Y-107600000D01*
X191800000Y-100020000D02*
X191380000Y-100020000D01*
X191380000Y-100020000D02*
X183400000Y-108000000D01*
X183400000Y-108000000D02*
X183400000Y-111200000D01*
X183400000Y-111200000D02*
X181297000Y-113303000D01*
X181297000Y-113303000D02*
X152078000Y-113303000D01*
X133045200Y-95097600D02*
X133045200Y-92376000D01*
X133045200Y-92376000D02*
X133146800Y-92274400D01*
X133146800Y-89509600D02*
X133146800Y-92274400D01*
X133146800Y-92274400D02*
X133045200Y-92376000D01*
X133045200Y-97167700D02*
X141185900Y-105308400D01*
X141185900Y-105308400D02*
X141211300Y-105308400D01*
X133045200Y-95076000D02*
X133045200Y-95097600D01*
X133045200Y-95097600D02*
X133045200Y-97167700D01*
X142887700Y-106984800D02*
X142887700Y-109412700D01*
X141211300Y-105308400D02*
X142887700Y-106984800D01*
X142887700Y-109412700D02*
X143578000Y-110103000D01*
X140716000Y-95097600D02*
X140716000Y-92376000D01*
X140716000Y-92376000D02*
X140766800Y-92325200D01*
X140766800Y-89509600D02*
X140766800Y-92325200D01*
X140766800Y-92325200D02*
X140716000Y-92376000D01*
X140716000Y-95076000D02*
X140716000Y-95097600D01*
X140716000Y-95097600D02*
X140716000Y-101320600D01*
X140716000Y-101320600D02*
X145828000Y-106432600D01*
X145828000Y-106432600D02*
X145828000Y-108653000D01*
D29*
G36*
X142968420Y-116638000D02*
X141721210Y-117885210D01*
X141529367Y-118172325D01*
X141518189Y-118228515D01*
X141461999Y-118511000D01*
X141462000Y-118511005D01*
X141462000Y-118641752D01*
X141354877Y-118662537D01*
X141142073Y-118802327D01*
X141098662Y-118866637D01*
X140956698Y-118724673D01*
X140881347Y-118693461D01*
X140897400Y-118654709D01*
X140897400Y-117714150D01*
X140897400Y-117142650D01*
X140897400Y-116202091D01*
X140800727Y-115968702D01*
X140622099Y-115790073D01*
X140388710Y-115693400D01*
X140136091Y-115693400D01*
X139798150Y-115693400D01*
X139639400Y-115852150D01*
X139639400Y-117301400D01*
X140738650Y-117301400D01*
X140897400Y-117142650D01*
X140897400Y-117714150D01*
X140738650Y-117555400D01*
X139639400Y-117555400D01*
X139639400Y-117575400D01*
X139385400Y-117575400D01*
X139385400Y-117555400D01*
X138286150Y-117555400D01*
X138127400Y-117714150D01*
X138127400Y-118575400D01*
X138055350Y-118575400D01*
X137896600Y-118734150D01*
X137896600Y-119833400D01*
X138895850Y-119833400D01*
X138968250Y-119761000D01*
X139720000Y-119761000D01*
X139720000Y-119741000D01*
X139974000Y-119741000D01*
X139974000Y-119761000D01*
X139994000Y-119761000D01*
X139994000Y-120015000D01*
X139974000Y-120015000D01*
X139974000Y-120989250D01*
X140132750Y-121148000D01*
X140723309Y-121148000D01*
X140956698Y-121051327D01*
X141098176Y-120909849D01*
X141136327Y-120967927D01*
X141347360Y-121110377D01*
X141462000Y-121133366D01*
X141462000Y-122157620D01*
X140649010Y-122970610D01*
X140457167Y-123257725D01*
X140445989Y-123313915D01*
X140389799Y-123596400D01*
X140389800Y-123596405D01*
X140389800Y-124422160D01*
X140157200Y-124422160D01*
X139915077Y-124469137D01*
X139702273Y-124608927D01*
X139559823Y-124819960D01*
X139509760Y-125069600D01*
X139509760Y-125809275D01*
X139256248Y-125195729D01*
X138763664Y-124702285D01*
X138529600Y-124605092D01*
X138529600Y-124036497D01*
X138661723Y-124010863D01*
X138874527Y-123871073D01*
X139016977Y-123660040D01*
X139067040Y-123410400D01*
X139067040Y-121910400D01*
X139020063Y-121668277D01*
X138880273Y-121455473D01*
X138669240Y-121313023D01*
X138638808Y-121306920D01*
X138779299Y-121248727D01*
X138906580Y-121121444D01*
X138970691Y-121148000D01*
X139561250Y-121148000D01*
X139720000Y-120989250D01*
X139720000Y-120015000D01*
X138620750Y-120015000D01*
X138548350Y-120087400D01*
X137896600Y-120087400D01*
X137896600Y-120107400D01*
X137642600Y-120107400D01*
X137642600Y-120087400D01*
X137622600Y-120087400D01*
X137622600Y-119833400D01*
X137642600Y-119833400D01*
X137642600Y-118734150D01*
X137550426Y-118641976D01*
X137849801Y-118342601D01*
X138014548Y-118096040D01*
X138014548Y-118096039D01*
X138024146Y-118047786D01*
X138072399Y-117805200D01*
X138072400Y-117805200D01*
X138072400Y-116443602D01*
X138127400Y-116388602D01*
X138127400Y-117142650D01*
X138286150Y-117301400D01*
X139385400Y-117301400D01*
X139385400Y-115852150D01*
X139226650Y-115693400D01*
X138888709Y-115693400D01*
X138822602Y-115693400D01*
X138853002Y-115663000D01*
X142524842Y-115663000D01*
X142728360Y-115800377D01*
X142876075Y-115830000D01*
X142501750Y-115830000D01*
X142343000Y-115988750D01*
X142343000Y-116129310D01*
X142439673Y-116362699D01*
X142618302Y-116541327D01*
X142851691Y-116638000D01*
X142968420Y-116638000D01*
X142968420Y-116638000D01*
G37*
X142968420Y-116638000D02*
X141721210Y-117885210D01*
X141529367Y-118172325D01*
X141518189Y-118228515D01*
X141461999Y-118511000D01*
X141462000Y-118511005D01*
X141462000Y-118641752D01*
X141354877Y-118662537D01*
X141142073Y-118802327D01*
X141098662Y-118866637D01*
X140956698Y-118724673D01*
X140881347Y-118693461D01*
X140897400Y-118654709D01*
X140897400Y-117714150D01*
X140897400Y-117142650D01*
X140897400Y-116202091D01*
X140800727Y-115968702D01*
X140622099Y-115790073D01*
X140388710Y-115693400D01*
X140136091Y-115693400D01*
X139798150Y-115693400D01*
X139639400Y-115852150D01*
X139639400Y-117301400D01*
X140738650Y-117301400D01*
X140897400Y-117142650D01*
X140897400Y-117714150D01*
X140738650Y-117555400D01*
X139639400Y-117555400D01*
X139639400Y-117575400D01*
X139385400Y-117575400D01*
X139385400Y-117555400D01*
X138286150Y-117555400D01*
X138127400Y-117714150D01*
X138127400Y-118575400D01*
X138055350Y-118575400D01*
X137896600Y-118734150D01*
X137896600Y-119833400D01*
X138895850Y-119833400D01*
X138968250Y-119761000D01*
X139720000Y-119761000D01*
X139720000Y-119741000D01*
X139974000Y-119741000D01*
X139974000Y-119761000D01*
X139994000Y-119761000D01*
X139994000Y-120015000D01*
X139974000Y-120015000D01*
X139974000Y-120989250D01*
X140132750Y-121148000D01*
X140723309Y-121148000D01*
X140956698Y-121051327D01*
X141098176Y-120909849D01*
X141136327Y-120967927D01*
X141347360Y-121110377D01*
X141462000Y-121133366D01*
X141462000Y-122157620D01*
X140649010Y-122970610D01*
X140457167Y-123257725D01*
X140445989Y-123313915D01*
X140389799Y-123596400D01*
X140389800Y-123596405D01*
X140389800Y-124422160D01*
X140157200Y-124422160D01*
X139915077Y-124469137D01*
X139702273Y-124608927D01*
X139559823Y-124819960D01*
X139509760Y-125069600D01*
X139509760Y-125809275D01*
X139256248Y-125195729D01*
X138763664Y-124702285D01*
X138529600Y-124605092D01*
X138529600Y-124036497D01*
X138661723Y-124010863D01*
X138874527Y-123871073D01*
X139016977Y-123660040D01*
X139067040Y-123410400D01*
X139067040Y-121910400D01*
X139020063Y-121668277D01*
X138880273Y-121455473D01*
X138669240Y-121313023D01*
X138638808Y-121306920D01*
X138779299Y-121248727D01*
X138906580Y-121121444D01*
X138970691Y-121148000D01*
X139561250Y-121148000D01*
X139720000Y-120989250D01*
X139720000Y-120015000D01*
X138620750Y-120015000D01*
X138548350Y-120087400D01*
X137896600Y-120087400D01*
X137896600Y-120107400D01*
X137642600Y-120107400D01*
X137642600Y-120087400D01*
X137622600Y-120087400D01*
X137622600Y-119833400D01*
X137642600Y-119833400D01*
X137642600Y-118734150D01*
X137550426Y-118641976D01*
X137849801Y-118342601D01*
X138014548Y-118096040D01*
X138014548Y-118096039D01*
X138024146Y-118047786D01*
X138072399Y-117805200D01*
X138072400Y-117805200D01*
X138072400Y-116443602D01*
X138127400Y-116388602D01*
X138127400Y-117142650D01*
X138286150Y-117301400D01*
X139385400Y-117301400D01*
X139385400Y-115852150D01*
X139226650Y-115693400D01*
X138888709Y-115693400D01*
X138822602Y-115693400D01*
X138853002Y-115663000D01*
X142524842Y-115663000D01*
X142728360Y-115800377D01*
X142876075Y-115830000D01*
X142501750Y-115830000D01*
X142343000Y-115988750D01*
X142343000Y-116129310D01*
X142439673Y-116362699D01*
X142618302Y-116541327D01*
X142851691Y-116638000D01*
X142968420Y-116638000D01*
G36*
X150115000Y-129740712D02*
X149894277Y-129783537D01*
X149681473Y-129923327D01*
X149539023Y-130134360D01*
X149520516Y-130226645D01*
X149519800Y-130225843D01*
X149519800Y-123716109D01*
X149519800Y-123125550D01*
X149361050Y-122966800D01*
X148386800Y-122966800D01*
X148386800Y-124066050D01*
X148545550Y-124224800D01*
X148758491Y-124224800D01*
X149011110Y-124224800D01*
X149244499Y-124128127D01*
X149423127Y-123949498D01*
X149519800Y-123716109D01*
X149519800Y-130225843D01*
X149362036Y-130049268D01*
X148834791Y-129795291D01*
X148819026Y-129792642D01*
X148587000Y-129913783D01*
X148587000Y-131273000D01*
X148607000Y-131273000D01*
X148607000Y-131527000D01*
X148587000Y-131527000D01*
X148587000Y-132886217D01*
X148819026Y-133007358D01*
X148834791Y-133004709D01*
X149362036Y-132750732D01*
X149519673Y-132574298D01*
X149535937Y-132658123D01*
X149675727Y-132870927D01*
X149886760Y-133013377D01*
X149948635Y-133025785D01*
X149747420Y-133227000D01*
X146356821Y-133227000D01*
X146236799Y-133177162D01*
X145864833Y-133176838D01*
X145521057Y-133318883D01*
X145257808Y-133581673D01*
X145115162Y-133925201D01*
X145114838Y-134296890D01*
X144721910Y-134206808D01*
X144084650Y-134017416D01*
X143443541Y-133783268D01*
X142796868Y-133503300D01*
X142143064Y-133176440D01*
X141480711Y-132801648D01*
X140808565Y-132377987D01*
X140121058Y-131901544D01*
X139953509Y-131779260D01*
X139772847Y-131644745D01*
X139591331Y-131506521D01*
X139402024Y-131359147D01*
X139198272Y-131197363D01*
X138973797Y-131016190D01*
X138722543Y-130810835D01*
X138437727Y-130575915D01*
X138437472Y-130575704D01*
X138437165Y-130575451D01*
X138225131Y-130400183D01*
X138224542Y-130399865D01*
X138224119Y-130399348D01*
X137996260Y-130211732D01*
X137995298Y-130211215D01*
X137994601Y-130210369D01*
X137799709Y-130050921D01*
X137798262Y-130050150D01*
X137797214Y-130048889D01*
X137632051Y-129915053D01*
X137629904Y-129913922D01*
X137628340Y-129912067D01*
X137489667Y-129801286D01*
X137486497Y-129799645D01*
X137484167Y-129796937D01*
X137368746Y-129706651D01*
X137364070Y-129704291D01*
X137360595Y-129700373D01*
X137265189Y-129628026D01*
X137258343Y-129624698D01*
X137253172Y-129619119D01*
X137174543Y-129562154D01*
X137164712Y-129557638D01*
X137157117Y-129549938D01*
X137155504Y-129548844D01*
X137099401Y-129389824D01*
X137081767Y-129360107D01*
X137073464Y-129326563D01*
X136955180Y-129074678D01*
X136938171Y-129051612D01*
X136929012Y-129024461D01*
X136779532Y-128764426D01*
X136762710Y-128745172D01*
X136752776Y-128721614D01*
X136578013Y-128463646D01*
X136559924Y-128445787D01*
X136548359Y-128423152D01*
X136354222Y-128177466D01*
X136335876Y-128161833D01*
X136323446Y-128141183D01*
X136175810Y-127978907D01*
X136152558Y-127961730D01*
X136135638Y-127938291D01*
X135825388Y-127649737D01*
X135796352Y-127631822D01*
X135773758Y-127606259D01*
X135509000Y-127404736D01*
X135509000Y-126111000D01*
X134985400Y-126111000D01*
X127056036Y-126111000D01*
X126885326Y-126109020D01*
X126885324Y-126109020D01*
X126480705Y-126104243D01*
X126480703Y-126104243D01*
X126090441Y-126099550D01*
X126090437Y-126099550D01*
X125718123Y-126094987D01*
X125718118Y-126094987D01*
X125368516Y-126090615D01*
X125368514Y-126090615D01*
X125045182Y-126086477D01*
X124752403Y-126082628D01*
X124641400Y-126081118D01*
X124641400Y-122710310D01*
X124641400Y-122457691D01*
X124641400Y-122119750D01*
X124641400Y-121548250D01*
X124641400Y-121210309D01*
X124641400Y-120957690D01*
X124641400Y-118310310D01*
X124641400Y-118057691D01*
X124641400Y-117719750D01*
X124641400Y-117148250D01*
X124641400Y-116810309D01*
X124641400Y-116557690D01*
X124544727Y-116324301D01*
X124366098Y-116145673D01*
X124132709Y-116049000D01*
X123192150Y-116049000D01*
X123033400Y-116207750D01*
X123033400Y-117307000D01*
X124482650Y-117307000D01*
X124641400Y-117148250D01*
X124641400Y-117719750D01*
X124482650Y-117561000D01*
X123033400Y-117561000D01*
X123033400Y-118660250D01*
X123192150Y-118819000D01*
X124132709Y-118819000D01*
X124366098Y-118722327D01*
X124544727Y-118543699D01*
X124641400Y-118310310D01*
X124641400Y-120957690D01*
X124544727Y-120724301D01*
X124366098Y-120545673D01*
X124132709Y-120449000D01*
X123192150Y-120449000D01*
X123033400Y-120607750D01*
X123033400Y-121707000D01*
X124482650Y-121707000D01*
X124641400Y-121548250D01*
X124641400Y-122119750D01*
X124482650Y-121961000D01*
X123033400Y-121961000D01*
X123033400Y-123060250D01*
X123192150Y-123219000D01*
X124132709Y-123219000D01*
X124366098Y-123122327D01*
X124544727Y-122943699D01*
X124641400Y-122710310D01*
X124641400Y-126081118D01*
X124493867Y-126079112D01*
X124493866Y-126079112D01*
X124274381Y-126075992D01*
X124274379Y-126075992D01*
X124098570Y-126073327D01*
X123969340Y-126071152D01*
X123267105Y-126058315D01*
X122971178Y-125944547D01*
X122931800Y-125918985D01*
X122931800Y-108277450D01*
X122931800Y-107178200D01*
X122931800Y-106924200D01*
X122931800Y-105824950D01*
X122931800Y-103877450D01*
X122931800Y-102778200D01*
X121482550Y-102778200D01*
X121323800Y-102936950D01*
X121323800Y-103274891D01*
X121323800Y-103527510D01*
X121420473Y-103760899D01*
X121599102Y-103939527D01*
X121832491Y-104036200D01*
X122773050Y-104036200D01*
X122931800Y-103877450D01*
X122931800Y-105824950D01*
X122773050Y-105666200D01*
X121832491Y-105666200D01*
X121599102Y-105762873D01*
X121420473Y-105941501D01*
X121323800Y-106174890D01*
X121323800Y-106427509D01*
X121323800Y-106765450D01*
X121482550Y-106924200D01*
X122931800Y-106924200D01*
X122931800Y-107178200D01*
X121482550Y-107178200D01*
X121323800Y-107336950D01*
X121323800Y-107674891D01*
X121323800Y-107927510D01*
X121420473Y-108160899D01*
X121599102Y-108339527D01*
X121832491Y-108436200D01*
X122773050Y-108436200D01*
X122931800Y-108277450D01*
X122931800Y-125918985D01*
X122779400Y-125820059D01*
X122779400Y-123060250D01*
X122779400Y-121961000D01*
X122779400Y-121707000D01*
X122779400Y-120607750D01*
X122779400Y-118660250D01*
X122779400Y-117561000D01*
X122779400Y-117307000D01*
X122779400Y-116207750D01*
X122779400Y-115745050D01*
X122779400Y-114645800D01*
X122779400Y-114391800D01*
X122779400Y-113292550D01*
X122779400Y-111345050D01*
X122779400Y-110245800D01*
X122779400Y-109991800D01*
X122779400Y-108892550D01*
X122620650Y-108733800D01*
X121680091Y-108733800D01*
X121446702Y-108830473D01*
X121268073Y-109009101D01*
X121171400Y-109242490D01*
X121171400Y-109495109D01*
X121171400Y-109833050D01*
X121330150Y-109991800D01*
X122779400Y-109991800D01*
X122779400Y-110245800D01*
X121330150Y-110245800D01*
X121171400Y-110404550D01*
X121171400Y-110742491D01*
X121171400Y-110995110D01*
X121268073Y-111228499D01*
X121446702Y-111407127D01*
X121680091Y-111503800D01*
X122620650Y-111503800D01*
X122779400Y-111345050D01*
X122779400Y-113292550D01*
X122620650Y-113133800D01*
X121680091Y-113133800D01*
X121446702Y-113230473D01*
X121268073Y-113409101D01*
X121171400Y-113642490D01*
X121171400Y-113895109D01*
X121171400Y-114233050D01*
X121330150Y-114391800D01*
X122779400Y-114391800D01*
X122779400Y-114645800D01*
X121330150Y-114645800D01*
X121171400Y-114804550D01*
X121171400Y-115142491D01*
X121171400Y-115395110D01*
X121268073Y-115628499D01*
X121446702Y-115807127D01*
X121680091Y-115903800D01*
X122620650Y-115903800D01*
X122779400Y-115745050D01*
X122779400Y-116207750D01*
X122620650Y-116049000D01*
X121680091Y-116049000D01*
X121446702Y-116145673D01*
X121268073Y-116324301D01*
X121171400Y-116557690D01*
X121171400Y-116810309D01*
X121171400Y-117148250D01*
X121330150Y-117307000D01*
X122779400Y-117307000D01*
X122779400Y-117561000D01*
X121330150Y-117561000D01*
X121171400Y-117719750D01*
X121171400Y-118057691D01*
X121171400Y-118310310D01*
X121268073Y-118543699D01*
X121446702Y-118722327D01*
X121680091Y-118819000D01*
X122620650Y-118819000D01*
X122779400Y-118660250D01*
X122779400Y-120607750D01*
X122620650Y-120449000D01*
X121680091Y-120449000D01*
X121446702Y-120545673D01*
X121268073Y-120724301D01*
X121171400Y-120957690D01*
X121171400Y-121210309D01*
X121171400Y-121548250D01*
X121330150Y-121707000D01*
X122779400Y-121707000D01*
X122779400Y-121961000D01*
X121330150Y-121961000D01*
X121171400Y-122119750D01*
X121171400Y-122457691D01*
X121171400Y-122710310D01*
X121268073Y-122943699D01*
X121446702Y-123122327D01*
X121680091Y-123219000D01*
X122620650Y-123219000D01*
X122779400Y-123060250D01*
X122779400Y-125820059D01*
X120933000Y-124621519D01*
X120933000Y-118654709D01*
X120933000Y-117714150D01*
X120933000Y-117142650D01*
X120933000Y-116202091D01*
X120836327Y-115968702D01*
X120657699Y-115790073D01*
X120424310Y-115693400D01*
X120171691Y-115693400D01*
X119833750Y-115693400D01*
X119675000Y-115852150D01*
X119675000Y-117301400D01*
X120774250Y-117301400D01*
X120933000Y-117142650D01*
X120933000Y-117714150D01*
X120774250Y-117555400D01*
X119675000Y-117555400D01*
X119675000Y-119004650D01*
X119833750Y-119163400D01*
X120171691Y-119163400D01*
X120424310Y-119163400D01*
X120657699Y-119066727D01*
X120836327Y-118888098D01*
X120933000Y-118654709D01*
X120933000Y-124621519D01*
X119421000Y-123640045D01*
X119421000Y-119004650D01*
X119421000Y-117555400D01*
X119421000Y-117301400D01*
X119421000Y-115852150D01*
X119262250Y-115693400D01*
X118924309Y-115693400D01*
X118671690Y-115693400D01*
X118438301Y-115790073D01*
X118259673Y-115968702D01*
X118163000Y-116202091D01*
X118163000Y-117142650D01*
X118321750Y-117301400D01*
X119421000Y-117301400D01*
X119421000Y-117555400D01*
X118321750Y-117555400D01*
X118163000Y-117714150D01*
X118163000Y-118654709D01*
X118259673Y-118888098D01*
X118438301Y-119066727D01*
X118671690Y-119163400D01*
X118924309Y-119163400D01*
X119262250Y-119163400D01*
X119421000Y-119004650D01*
X119421000Y-123640045D01*
X116533000Y-121765378D01*
X116533000Y-118654709D01*
X116533000Y-117714150D01*
X116533000Y-117142650D01*
X116533000Y-116202091D01*
X116436327Y-115968702D01*
X116257699Y-115790073D01*
X116024310Y-115693400D01*
X115771691Y-115693400D01*
X115433750Y-115693400D01*
X115275000Y-115852150D01*
X115275000Y-117301400D01*
X116374250Y-117301400D01*
X116533000Y-117142650D01*
X116533000Y-117714150D01*
X116374250Y-117555400D01*
X115275000Y-117555400D01*
X115275000Y-119004650D01*
X115433750Y-119163400D01*
X115771691Y-119163400D01*
X116024310Y-119163400D01*
X116257699Y-119066727D01*
X116436327Y-118888098D01*
X116533000Y-118654709D01*
X116533000Y-121765378D01*
X115985171Y-121409770D01*
X115955134Y-121411536D01*
X115920617Y-121390413D01*
X115904163Y-121384354D01*
X115888488Y-121381881D01*
X115877597Y-121376169D01*
X115870887Y-121375561D01*
X115859515Y-121369633D01*
X115749374Y-121359933D01*
X115640155Y-121342702D01*
X115617000Y-121348275D01*
X115593272Y-121346186D01*
X115530587Y-121353015D01*
X115494406Y-121364400D01*
X115456485Y-121365229D01*
X115348713Y-121389126D01*
X115334604Y-121395334D01*
X115319225Y-121396354D01*
X115167879Y-121437026D01*
X115164718Y-121438587D01*
X115161205Y-121438856D01*
X115073410Y-121463403D01*
X115021000Y-121466485D01*
X115021000Y-119004650D01*
X115021000Y-117555400D01*
X115021000Y-117301400D01*
X115021000Y-115852150D01*
X114862250Y-115693400D01*
X114524309Y-115693400D01*
X114271690Y-115693400D01*
X114038301Y-115790073D01*
X113859673Y-115968702D01*
X113763000Y-116202091D01*
X113763000Y-117142650D01*
X113921750Y-117301400D01*
X115021000Y-117301400D01*
X115021000Y-117555400D01*
X113921750Y-117555400D01*
X113763000Y-117714150D01*
X113763000Y-118654709D01*
X113859673Y-118888098D01*
X114038301Y-119066727D01*
X114271690Y-119163400D01*
X114524309Y-119163400D01*
X114862250Y-119163400D01*
X115021000Y-119004650D01*
X115021000Y-121466485D01*
X113903389Y-121532228D01*
X112009531Y-106255110D01*
X109676597Y-102571530D01*
X114377931Y-101458056D01*
X119251992Y-94146964D01*
X119373906Y-89514239D01*
X122680388Y-91718560D01*
X126988603Y-88976969D01*
X127627769Y-85269810D01*
X130531400Y-81527352D01*
X130531400Y-81838800D01*
X130583543Y-82100938D01*
X130732032Y-82323168D01*
X130954262Y-82471657D01*
X131216400Y-82523800D01*
X139576548Y-82523800D01*
X139427473Y-82621727D01*
X139285023Y-82832760D01*
X139234960Y-83082400D01*
X139234960Y-85317600D01*
X139281937Y-85559723D01*
X139421727Y-85772527D01*
X139632760Y-85914977D01*
X139882400Y-85965040D01*
X140240000Y-85965040D01*
X140240000Y-86200000D01*
X140297852Y-86490839D01*
X140462599Y-86737401D01*
X141240000Y-87514802D01*
X141240000Y-87920380D01*
X140766800Y-87826255D01*
X140193311Y-87940329D01*
X139707130Y-88265185D01*
X139496800Y-88579965D01*
X139286470Y-88265185D01*
X138800289Y-87940329D01*
X138226800Y-87826255D01*
X137653311Y-87940329D01*
X137167130Y-88265185D01*
X136956800Y-88579965D01*
X136746470Y-88265185D01*
X136260289Y-87940329D01*
X135686800Y-87826255D01*
X135113311Y-87940329D01*
X134627130Y-88265185D01*
X134416800Y-88579965D01*
X134206470Y-88265185D01*
X133720289Y-87940329D01*
X133146800Y-87826255D01*
X132573311Y-87940329D01*
X132087130Y-88265185D01*
X132072300Y-88287379D01*
X132008727Y-88133901D01*
X131830098Y-87955273D01*
X131596709Y-87858600D01*
X130892550Y-87858600D01*
X130733800Y-88017350D01*
X130733800Y-89382600D01*
X130753800Y-89382600D01*
X130753800Y-89636600D01*
X130733800Y-89636600D01*
X130733800Y-91001850D01*
X130892550Y-91160600D01*
X131596709Y-91160600D01*
X131830098Y-91063927D01*
X132008727Y-90885299D01*
X132072300Y-90731820D01*
X132087130Y-90754015D01*
X132386800Y-90954248D01*
X132386800Y-92019687D01*
X132343052Y-92085161D01*
X132285200Y-92376000D01*
X132285200Y-95076000D01*
X132285200Y-95097600D01*
X132285200Y-97167700D01*
X132343052Y-97458539D01*
X132507799Y-97705101D01*
X134499698Y-99697000D01*
X130479800Y-99697000D01*
X130479800Y-91001850D01*
X130479800Y-89636600D01*
X130479800Y-89382600D01*
X130479800Y-88017350D01*
X130321050Y-87858600D01*
X129616891Y-87858600D01*
X129383502Y-87955273D01*
X129204873Y-88133901D01*
X129108200Y-88367290D01*
X129108200Y-88619909D01*
X129108200Y-89223850D01*
X129266950Y-89382600D01*
X130479800Y-89382600D01*
X130479800Y-89636600D01*
X129266950Y-89636600D01*
X129108200Y-89795350D01*
X129108200Y-90399291D01*
X129108200Y-90651910D01*
X129204873Y-90885299D01*
X129383502Y-91063927D01*
X129616891Y-91160600D01*
X130321050Y-91160600D01*
X130479800Y-91001850D01*
X130479800Y-99697000D01*
X122047000Y-99697000D01*
X121756161Y-99754852D01*
X121509599Y-99919599D01*
X119010599Y-102418599D01*
X118845852Y-102665161D01*
X118788000Y-102956000D01*
X118788000Y-106682900D01*
X118555877Y-106727937D01*
X118343073Y-106867727D01*
X118200623Y-107078760D01*
X118150560Y-107328400D01*
X118150560Y-107668400D01*
X116545440Y-107668400D01*
X116545440Y-107328400D01*
X116498463Y-107086277D01*
X116358673Y-106873473D01*
X116147640Y-106731023D01*
X115898000Y-106680960D01*
X114398000Y-106680960D01*
X114155877Y-106727937D01*
X113943073Y-106867727D01*
X113800623Y-107078760D01*
X113750560Y-107328400D01*
X113750560Y-109528400D01*
X113797537Y-109770523D01*
X113937327Y-109983327D01*
X114148360Y-110125777D01*
X114398000Y-110175840D01*
X115898000Y-110175840D01*
X116140123Y-110128863D01*
X116352927Y-109989073D01*
X116495377Y-109778040D01*
X116545440Y-109528400D01*
X116545440Y-109188400D01*
X118150560Y-109188400D01*
X118150560Y-109528400D01*
X118197537Y-109770523D01*
X118337327Y-109983327D01*
X118548360Y-110125777D01*
X118798000Y-110175840D01*
X120298000Y-110175840D01*
X120540123Y-110128863D01*
X120752927Y-109989073D01*
X120895377Y-109778040D01*
X120945440Y-109528400D01*
X120945440Y-107328400D01*
X120898463Y-107086277D01*
X120758673Y-106873473D01*
X120547640Y-106731023D01*
X120308000Y-106682965D01*
X120308000Y-103270802D01*
X121323800Y-102255002D01*
X121323800Y-102365450D01*
X121482550Y-102524200D01*
X122931800Y-102524200D01*
X122931800Y-101424950D01*
X122773050Y-101266200D01*
X122312601Y-101266200D01*
X122361801Y-101217000D01*
X125546198Y-101217000D01*
X124793800Y-101969398D01*
X124793800Y-101774890D01*
X124697127Y-101541501D01*
X124518498Y-101362873D01*
X124285109Y-101266200D01*
X123344550Y-101266200D01*
X123185800Y-101424950D01*
X123185800Y-102524200D01*
X123205800Y-102524200D01*
X123205800Y-102778200D01*
X123185800Y-102778200D01*
X123185800Y-103877450D01*
X123344550Y-104036200D01*
X123954000Y-104036200D01*
X123954000Y-105666200D01*
X123344550Y-105666200D01*
X123185800Y-105824950D01*
X123185800Y-106924200D01*
X123205800Y-106924200D01*
X123205800Y-107178200D01*
X123185800Y-107178200D01*
X123185800Y-108277450D01*
X123344550Y-108436200D01*
X123954000Y-108436200D01*
X123954000Y-108733800D01*
X123192150Y-108733800D01*
X123033400Y-108892550D01*
X123033400Y-109991800D01*
X123053400Y-109991800D01*
X123053400Y-110245800D01*
X123033400Y-110245800D01*
X123033400Y-111345050D01*
X123192150Y-111503800D01*
X123954000Y-111503800D01*
X123954000Y-113133800D01*
X123192150Y-113133800D01*
X123033400Y-113292550D01*
X123033400Y-114391800D01*
X123053400Y-114391800D01*
X123053400Y-114645800D01*
X123033400Y-114645800D01*
X123033400Y-115745050D01*
X123192150Y-115903800D01*
X124132709Y-115903800D01*
X124366098Y-115807127D01*
X124544727Y-115628499D01*
X124631414Y-115419216D01*
X127183599Y-117971401D01*
X127430160Y-118136148D01*
X127430161Y-118136148D01*
X127721000Y-118194000D01*
X130160900Y-118194000D01*
X130205937Y-118426123D01*
X130345727Y-118638927D01*
X130556760Y-118781377D01*
X130806400Y-118831440D01*
X131146400Y-118831440D01*
X131146400Y-120436560D01*
X130806400Y-120436560D01*
X130564277Y-120483537D01*
X130351473Y-120623327D01*
X130209023Y-120834360D01*
X130158960Y-121084000D01*
X130158960Y-122584000D01*
X130205937Y-122826123D01*
X130345727Y-123038927D01*
X130556760Y-123181377D01*
X130806400Y-123231440D01*
X133006400Y-123231440D01*
X133248523Y-123184463D01*
X133461327Y-123044673D01*
X133603777Y-122833640D01*
X133653840Y-122584000D01*
X133653840Y-121084000D01*
X133606863Y-120841877D01*
X133467073Y-120629073D01*
X133256040Y-120486623D01*
X133006400Y-120436560D01*
X132666400Y-120436560D01*
X132666400Y-118831440D01*
X133006400Y-118831440D01*
X133248523Y-118784463D01*
X133461327Y-118644673D01*
X133603777Y-118433640D01*
X133653840Y-118184000D01*
X133653840Y-116684000D01*
X133606863Y-116441877D01*
X133467073Y-116229073D01*
X133256040Y-116086623D01*
X133006400Y-116036560D01*
X130806400Y-116036560D01*
X130564277Y-116083537D01*
X130351473Y-116223327D01*
X130209023Y-116434360D01*
X130160965Y-116674000D01*
X128035801Y-116674000D01*
X125474000Y-114112198D01*
X125474000Y-103438802D01*
X127060802Y-101852000D01*
X130321226Y-101852000D01*
X130311360Y-101901200D01*
X130311360Y-103401200D01*
X130358337Y-103643323D01*
X130498127Y-103856127D01*
X130709160Y-103998577D01*
X130958800Y-104048640D01*
X131298800Y-104048640D01*
X131298800Y-104245800D01*
X131298800Y-105653760D01*
X130958800Y-105653760D01*
X130716677Y-105700737D01*
X130503873Y-105840527D01*
X130361423Y-106051560D01*
X130311360Y-106301200D01*
X130311360Y-107801200D01*
X130358337Y-108043323D01*
X130498127Y-108256127D01*
X130709160Y-108398577D01*
X130958800Y-108448640D01*
X132971000Y-108448640D01*
X132971000Y-108721360D01*
X130806400Y-108721360D01*
X130564277Y-108768337D01*
X130351473Y-108908127D01*
X130209023Y-109119160D01*
X130158960Y-109368800D01*
X130158960Y-110868800D01*
X130205937Y-111110923D01*
X130345727Y-111323727D01*
X130556760Y-111466177D01*
X130806400Y-111516240D01*
X131146400Y-111516240D01*
X131146400Y-113121360D01*
X130806400Y-113121360D01*
X130564277Y-113168337D01*
X130351473Y-113308127D01*
X130209023Y-113519160D01*
X130158960Y-113768800D01*
X130158960Y-115268800D01*
X130205937Y-115510923D01*
X130345727Y-115723727D01*
X130556760Y-115866177D01*
X130806400Y-115916240D01*
X133006400Y-115916240D01*
X133248523Y-115869263D01*
X133461327Y-115729473D01*
X133603777Y-115518440D01*
X133653840Y-115268800D01*
X133653840Y-113768800D01*
X133606863Y-113526677D01*
X133467073Y-113313873D01*
X133256040Y-113171423D01*
X133006400Y-113121360D01*
X132666400Y-113121360D01*
X132666400Y-111516240D01*
X133006400Y-111516240D01*
X133248523Y-111469263D01*
X133328756Y-111416558D01*
X134082599Y-112170401D01*
X134329160Y-112335148D01*
X134329161Y-112335148D01*
X134620000Y-112393000D01*
X139131197Y-112393000D01*
X140881197Y-114143000D01*
X138538200Y-114143000D01*
X138247361Y-114200852D01*
X138000799Y-114365599D01*
X136774999Y-115591399D01*
X136610252Y-115837961D01*
X136552400Y-116128800D01*
X136552400Y-117490398D01*
X136497400Y-117545398D01*
X136497400Y-117142650D01*
X136497400Y-116202091D01*
X136400727Y-115968702D01*
X136222099Y-115790073D01*
X135988710Y-115693400D01*
X135736091Y-115693400D01*
X135398150Y-115693400D01*
X135239400Y-115852150D01*
X135239400Y-117301400D01*
X136338650Y-117301400D01*
X136497400Y-117142650D01*
X136497400Y-117545398D01*
X136413024Y-117629774D01*
X136338650Y-117555400D01*
X135239400Y-117555400D01*
X135239400Y-117575400D01*
X134985400Y-117575400D01*
X134985400Y-117555400D01*
X134985400Y-117301400D01*
X134985400Y-115852150D01*
X134826650Y-115693400D01*
X134488709Y-115693400D01*
X134236090Y-115693400D01*
X134002701Y-115790073D01*
X133824073Y-115968702D01*
X133727400Y-116202091D01*
X133727400Y-117142650D01*
X133886150Y-117301400D01*
X134985400Y-117301400D01*
X134985400Y-117555400D01*
X133886150Y-117555400D01*
X133727400Y-117714150D01*
X133727400Y-118654709D01*
X133824073Y-118888098D01*
X134002701Y-119066727D01*
X134236090Y-119163400D01*
X134488709Y-119163400D01*
X134826650Y-119163400D01*
X134985398Y-119004652D01*
X134985398Y-119163400D01*
X134985400Y-119163400D01*
X135061379Y-119163400D01*
X135028400Y-119329200D01*
X135028400Y-120679200D01*
X135086252Y-120970039D01*
X135250999Y-121216601D01*
X136472160Y-122437762D01*
X136472160Y-123410400D01*
X136519137Y-123652523D01*
X136658927Y-123865327D01*
X136869960Y-124007777D01*
X137009600Y-124035780D01*
X137009600Y-124604910D01*
X136778129Y-124700552D01*
X136284685Y-125193136D01*
X136017305Y-125837057D01*
X136016697Y-126534284D01*
X136282952Y-127178671D01*
X136775536Y-127672115D01*
X137419457Y-127939495D01*
X138116684Y-127940103D01*
X138761071Y-127673848D01*
X139254515Y-127181264D01*
X139509760Y-126566567D01*
X139509760Y-127304800D01*
X139556737Y-127546923D01*
X139696527Y-127759727D01*
X139907560Y-127902177D01*
X140157200Y-127952240D01*
X142392400Y-127952240D01*
X142634523Y-127905263D01*
X142673800Y-127879462D01*
X142673800Y-129919403D01*
X142320330Y-130155585D01*
X141995474Y-130641766D01*
X141881400Y-131215255D01*
X141881400Y-131584745D01*
X141995474Y-132158234D01*
X142320330Y-132644415D01*
X142806511Y-132969271D01*
X143380000Y-133083345D01*
X143953489Y-132969271D01*
X144439670Y-132644415D01*
X144650000Y-132329634D01*
X144860330Y-132644415D01*
X145346511Y-132969271D01*
X145920000Y-133083345D01*
X146493489Y-132969271D01*
X146979670Y-132644415D01*
X147186460Y-132334930D01*
X147557964Y-132750732D01*
X148085209Y-133004709D01*
X148100974Y-133007358D01*
X148333000Y-132886217D01*
X148333000Y-131527000D01*
X148313000Y-131527000D01*
X148313000Y-131273000D01*
X148333000Y-131273000D01*
X148333000Y-129913783D01*
X148132800Y-129809258D01*
X148132800Y-124066050D01*
X148132800Y-122966800D01*
X147158550Y-122966800D01*
X146999800Y-123125550D01*
X146999800Y-123716109D01*
X147096473Y-123949498D01*
X147275101Y-124128127D01*
X147508490Y-124224800D01*
X147761109Y-124224800D01*
X147974050Y-124224800D01*
X148132800Y-124066050D01*
X148132800Y-129809258D01*
X148100974Y-129792642D01*
X148085209Y-129795291D01*
X147557964Y-130049268D01*
X147186460Y-130465069D01*
X146979670Y-130155585D01*
X146733800Y-129991299D01*
X146733800Y-121129902D01*
X146987360Y-120876342D01*
X146987360Y-121089800D01*
X147034337Y-121331923D01*
X147174127Y-121544727D01*
X147238437Y-121588137D01*
X147096473Y-121730102D01*
X146999800Y-121963491D01*
X146999800Y-122554050D01*
X147158550Y-122712800D01*
X148132800Y-122712800D01*
X148132800Y-122692800D01*
X148386800Y-122692800D01*
X148386800Y-122712800D01*
X149361050Y-122712800D01*
X149519800Y-122554050D01*
X149519800Y-121967779D01*
X150115000Y-122562979D01*
X150115000Y-129740712D01*
X150115000Y-129740712D01*
G37*
X150115000Y-129740712D02*
X149894277Y-129783537D01*
X149681473Y-129923327D01*
X149539023Y-130134360D01*
X149520516Y-130226645D01*
X149519800Y-130225843D01*
X149519800Y-123716109D01*
X149519800Y-123125550D01*
X149361050Y-122966800D01*
X148386800Y-122966800D01*
X148386800Y-124066050D01*
X148545550Y-124224800D01*
X148758491Y-124224800D01*
X149011110Y-124224800D01*
X149244499Y-124128127D01*
X149423127Y-123949498D01*
X149519800Y-123716109D01*
X149519800Y-130225843D01*
X149362036Y-130049268D01*
X148834791Y-129795291D01*
X148819026Y-129792642D01*
X148587000Y-129913783D01*
X148587000Y-131273000D01*
X148607000Y-131273000D01*
X148607000Y-131527000D01*
X148587000Y-131527000D01*
X148587000Y-132886217D01*
X148819026Y-133007358D01*
X148834791Y-133004709D01*
X149362036Y-132750732D01*
X149519673Y-132574298D01*
X149535937Y-132658123D01*
X149675727Y-132870927D01*
X149886760Y-133013377D01*
X149948635Y-133025785D01*
X149747420Y-133227000D01*
X146356821Y-133227000D01*
X146236799Y-133177162D01*
X145864833Y-133176838D01*
X145521057Y-133318883D01*
X145257808Y-133581673D01*
X145115162Y-133925201D01*
X145114838Y-134296890D01*
X144721910Y-134206808D01*
X144084650Y-134017416D01*
X143443541Y-133783268D01*
X142796868Y-133503300D01*
X142143064Y-133176440D01*
X141480711Y-132801648D01*
X140808565Y-132377987D01*
X140121058Y-131901544D01*
X139953509Y-131779260D01*
X139772847Y-131644745D01*
X139591331Y-131506521D01*
X139402024Y-131359147D01*
X139198272Y-131197363D01*
X138973797Y-131016190D01*
X138722543Y-130810835D01*
X138437727Y-130575915D01*
X138437472Y-130575704D01*
X138437165Y-130575451D01*
X138225131Y-130400183D01*
X138224542Y-130399865D01*
X138224119Y-130399348D01*
X137996260Y-130211732D01*
X137995298Y-130211215D01*
X137994601Y-130210369D01*
X137799709Y-130050921D01*
X137798262Y-130050150D01*
X137797214Y-130048889D01*
X137632051Y-129915053D01*
X137629904Y-129913922D01*
X137628340Y-129912067D01*
X137489667Y-129801286D01*
X137486497Y-129799645D01*
X137484167Y-129796937D01*
X137368746Y-129706651D01*
X137364070Y-129704291D01*
X137360595Y-129700373D01*
X137265189Y-129628026D01*
X137258343Y-129624698D01*
X137253172Y-129619119D01*
X137174543Y-129562154D01*
X137164712Y-129557638D01*
X137157117Y-129549938D01*
X137155504Y-129548844D01*
X137099401Y-129389824D01*
X137081767Y-129360107D01*
X137073464Y-129326563D01*
X136955180Y-129074678D01*
X136938171Y-129051612D01*
X136929012Y-129024461D01*
X136779532Y-128764426D01*
X136762710Y-128745172D01*
X136752776Y-128721614D01*
X136578013Y-128463646D01*
X136559924Y-128445787D01*
X136548359Y-128423152D01*
X136354222Y-128177466D01*
X136335876Y-128161833D01*
X136323446Y-128141183D01*
X136175810Y-127978907D01*
X136152558Y-127961730D01*
X136135638Y-127938291D01*
X135825388Y-127649737D01*
X135796352Y-127631822D01*
X135773758Y-127606259D01*
X135509000Y-127404736D01*
X135509000Y-126111000D01*
X134985400Y-126111000D01*
X127056036Y-126111000D01*
X126885326Y-126109020D01*
X126885324Y-126109020D01*
X126480705Y-126104243D01*
X126480703Y-126104243D01*
X126090441Y-126099550D01*
X126090437Y-126099550D01*
X125718123Y-126094987D01*
X125718118Y-126094987D01*
X125368516Y-126090615D01*
X125368514Y-126090615D01*
X125045182Y-126086477D01*
X124752403Y-126082628D01*
X124641400Y-126081118D01*
X124641400Y-122710310D01*
X124641400Y-122457691D01*
X124641400Y-122119750D01*
X124641400Y-121548250D01*
X124641400Y-121210309D01*
X124641400Y-120957690D01*
X124641400Y-118310310D01*
X124641400Y-118057691D01*
X124641400Y-117719750D01*
X124641400Y-117148250D01*
X124641400Y-116810309D01*
X124641400Y-116557690D01*
X124544727Y-116324301D01*
X124366098Y-116145673D01*
X124132709Y-116049000D01*
X123192150Y-116049000D01*
X123033400Y-116207750D01*
X123033400Y-117307000D01*
X124482650Y-117307000D01*
X124641400Y-117148250D01*
X124641400Y-117719750D01*
X124482650Y-117561000D01*
X123033400Y-117561000D01*
X123033400Y-118660250D01*
X123192150Y-118819000D01*
X124132709Y-118819000D01*
X124366098Y-118722327D01*
X124544727Y-118543699D01*
X124641400Y-118310310D01*
X124641400Y-120957690D01*
X124544727Y-120724301D01*
X124366098Y-120545673D01*
X124132709Y-120449000D01*
X123192150Y-120449000D01*
X123033400Y-120607750D01*
X123033400Y-121707000D01*
X124482650Y-121707000D01*
X124641400Y-121548250D01*
X124641400Y-122119750D01*
X124482650Y-121961000D01*
X123033400Y-121961000D01*
X123033400Y-123060250D01*
X123192150Y-123219000D01*
X124132709Y-123219000D01*
X124366098Y-123122327D01*
X124544727Y-122943699D01*
X124641400Y-122710310D01*
X124641400Y-126081118D01*
X124493867Y-126079112D01*
X124493866Y-126079112D01*
X124274381Y-126075992D01*
X124274379Y-126075992D01*
X124098570Y-126073327D01*
X123969340Y-126071152D01*
X123267105Y-126058315D01*
X122971178Y-125944547D01*
X122931800Y-125918985D01*
X122931800Y-108277450D01*
X122931800Y-107178200D01*
X122931800Y-106924200D01*
X122931800Y-105824950D01*
X122931800Y-103877450D01*
X122931800Y-102778200D01*
X121482550Y-102778200D01*
X121323800Y-102936950D01*
X121323800Y-103274891D01*
X121323800Y-103527510D01*
X121420473Y-103760899D01*
X121599102Y-103939527D01*
X121832491Y-104036200D01*
X122773050Y-104036200D01*
X122931800Y-103877450D01*
X122931800Y-105824950D01*
X122773050Y-105666200D01*
X121832491Y-105666200D01*
X121599102Y-105762873D01*
X121420473Y-105941501D01*
X121323800Y-106174890D01*
X121323800Y-106427509D01*
X121323800Y-106765450D01*
X121482550Y-106924200D01*
X122931800Y-106924200D01*
X122931800Y-107178200D01*
X121482550Y-107178200D01*
X121323800Y-107336950D01*
X121323800Y-107674891D01*
X121323800Y-107927510D01*
X121420473Y-108160899D01*
X121599102Y-108339527D01*
X121832491Y-108436200D01*
X122773050Y-108436200D01*
X122931800Y-108277450D01*
X122931800Y-125918985D01*
X122779400Y-125820059D01*
X122779400Y-123060250D01*
X122779400Y-121961000D01*
X122779400Y-121707000D01*
X122779400Y-120607750D01*
X122779400Y-118660250D01*
X122779400Y-117561000D01*
X122779400Y-117307000D01*
X122779400Y-116207750D01*
X122779400Y-115745050D01*
X122779400Y-114645800D01*
X122779400Y-114391800D01*
X122779400Y-113292550D01*
X122779400Y-111345050D01*
X122779400Y-110245800D01*
X122779400Y-109991800D01*
X122779400Y-108892550D01*
X122620650Y-108733800D01*
X121680091Y-108733800D01*
X121446702Y-108830473D01*
X121268073Y-109009101D01*
X121171400Y-109242490D01*
X121171400Y-109495109D01*
X121171400Y-109833050D01*
X121330150Y-109991800D01*
X122779400Y-109991800D01*
X122779400Y-110245800D01*
X121330150Y-110245800D01*
X121171400Y-110404550D01*
X121171400Y-110742491D01*
X121171400Y-110995110D01*
X121268073Y-111228499D01*
X121446702Y-111407127D01*
X121680091Y-111503800D01*
X122620650Y-111503800D01*
X122779400Y-111345050D01*
X122779400Y-113292550D01*
X122620650Y-113133800D01*
X121680091Y-113133800D01*
X121446702Y-113230473D01*
X121268073Y-113409101D01*
X121171400Y-113642490D01*
X121171400Y-113895109D01*
X121171400Y-114233050D01*
X121330150Y-114391800D01*
X122779400Y-114391800D01*
X122779400Y-114645800D01*
X121330150Y-114645800D01*
X121171400Y-114804550D01*
X121171400Y-115142491D01*
X121171400Y-115395110D01*
X121268073Y-115628499D01*
X121446702Y-115807127D01*
X121680091Y-115903800D01*
X122620650Y-115903800D01*
X122779400Y-115745050D01*
X122779400Y-116207750D01*
X122620650Y-116049000D01*
X121680091Y-116049000D01*
X121446702Y-116145673D01*
X121268073Y-116324301D01*
X121171400Y-116557690D01*
X121171400Y-116810309D01*
X121171400Y-117148250D01*
X121330150Y-117307000D01*
X122779400Y-117307000D01*
X122779400Y-117561000D01*
X121330150Y-117561000D01*
X121171400Y-117719750D01*
X121171400Y-118057691D01*
X121171400Y-118310310D01*
X121268073Y-118543699D01*
X121446702Y-118722327D01*
X121680091Y-118819000D01*
X122620650Y-118819000D01*
X122779400Y-118660250D01*
X122779400Y-120607750D01*
X122620650Y-120449000D01*
X121680091Y-120449000D01*
X121446702Y-120545673D01*
X121268073Y-120724301D01*
X121171400Y-120957690D01*
X121171400Y-121210309D01*
X121171400Y-121548250D01*
X121330150Y-121707000D01*
X122779400Y-121707000D01*
X122779400Y-121961000D01*
X121330150Y-121961000D01*
X121171400Y-122119750D01*
X121171400Y-122457691D01*
X121171400Y-122710310D01*
X121268073Y-122943699D01*
X121446702Y-123122327D01*
X121680091Y-123219000D01*
X122620650Y-123219000D01*
X122779400Y-123060250D01*
X122779400Y-125820059D01*
X120933000Y-124621519D01*
X120933000Y-118654709D01*
X120933000Y-117714150D01*
X120933000Y-117142650D01*
X120933000Y-116202091D01*
X120836327Y-115968702D01*
X120657699Y-115790073D01*
X120424310Y-115693400D01*
X120171691Y-115693400D01*
X119833750Y-115693400D01*
X119675000Y-115852150D01*
X119675000Y-117301400D01*
X120774250Y-117301400D01*
X120933000Y-117142650D01*
X120933000Y-117714150D01*
X120774250Y-117555400D01*
X119675000Y-117555400D01*
X119675000Y-119004650D01*
X119833750Y-119163400D01*
X120171691Y-119163400D01*
X120424310Y-119163400D01*
X120657699Y-119066727D01*
X120836327Y-118888098D01*
X120933000Y-118654709D01*
X120933000Y-124621519D01*
X119421000Y-123640045D01*
X119421000Y-119004650D01*
X119421000Y-117555400D01*
X119421000Y-117301400D01*
X119421000Y-115852150D01*
X119262250Y-115693400D01*
X118924309Y-115693400D01*
X118671690Y-115693400D01*
X118438301Y-115790073D01*
X118259673Y-115968702D01*
X118163000Y-116202091D01*
X118163000Y-117142650D01*
X118321750Y-117301400D01*
X119421000Y-117301400D01*
X119421000Y-117555400D01*
X118321750Y-117555400D01*
X118163000Y-117714150D01*
X118163000Y-118654709D01*
X118259673Y-118888098D01*
X118438301Y-119066727D01*
X118671690Y-119163400D01*
X118924309Y-119163400D01*
X119262250Y-119163400D01*
X119421000Y-119004650D01*
X119421000Y-123640045D01*
X116533000Y-121765378D01*
X116533000Y-118654709D01*
X116533000Y-117714150D01*
X116533000Y-117142650D01*
X116533000Y-116202091D01*
X116436327Y-115968702D01*
X116257699Y-115790073D01*
X116024310Y-115693400D01*
X115771691Y-115693400D01*
X115433750Y-115693400D01*
X115275000Y-115852150D01*
X115275000Y-117301400D01*
X116374250Y-117301400D01*
X116533000Y-117142650D01*
X116533000Y-117714150D01*
X116374250Y-117555400D01*
X115275000Y-117555400D01*
X115275000Y-119004650D01*
X115433750Y-119163400D01*
X115771691Y-119163400D01*
X116024310Y-119163400D01*
X116257699Y-119066727D01*
X116436327Y-118888098D01*
X116533000Y-118654709D01*
X116533000Y-121765378D01*
X115985171Y-121409770D01*
X115955134Y-121411536D01*
X115920617Y-121390413D01*
X115904163Y-121384354D01*
X115888488Y-121381881D01*
X115877597Y-121376169D01*
X115870887Y-121375561D01*
X115859515Y-121369633D01*
X115749374Y-121359933D01*
X115640155Y-121342702D01*
X115617000Y-121348275D01*
X115593272Y-121346186D01*
X115530587Y-121353015D01*
X115494406Y-121364400D01*
X115456485Y-121365229D01*
X115348713Y-121389126D01*
X115334604Y-121395334D01*
X115319225Y-121396354D01*
X115167879Y-121437026D01*
X115164718Y-121438587D01*
X115161205Y-121438856D01*
X115073410Y-121463403D01*
X115021000Y-121466485D01*
X115021000Y-119004650D01*
X115021000Y-117555400D01*
X115021000Y-117301400D01*
X115021000Y-115852150D01*
X114862250Y-115693400D01*
X114524309Y-115693400D01*
X114271690Y-115693400D01*
X114038301Y-115790073D01*
X113859673Y-115968702D01*
X113763000Y-116202091D01*
X113763000Y-117142650D01*
X113921750Y-117301400D01*
X115021000Y-117301400D01*
X115021000Y-117555400D01*
X113921750Y-117555400D01*
X113763000Y-117714150D01*
X113763000Y-118654709D01*
X113859673Y-118888098D01*
X114038301Y-119066727D01*
X114271690Y-119163400D01*
X114524309Y-119163400D01*
X114862250Y-119163400D01*
X115021000Y-119004650D01*
X115021000Y-121466485D01*
X113903389Y-121532228D01*
X112009531Y-106255110D01*
X109676597Y-102571530D01*
X114377931Y-101458056D01*
X119251992Y-94146964D01*
X119373906Y-89514239D01*
X122680388Y-91718560D01*
X126988603Y-88976969D01*
X127627769Y-85269810D01*
X130531400Y-81527352D01*
X130531400Y-81838800D01*
X130583543Y-82100938D01*
X130732032Y-82323168D01*
X130954262Y-82471657D01*
X131216400Y-82523800D01*
X139576548Y-82523800D01*
X139427473Y-82621727D01*
X139285023Y-82832760D01*
X139234960Y-83082400D01*
X139234960Y-85317600D01*
X139281937Y-85559723D01*
X139421727Y-85772527D01*
X139632760Y-85914977D01*
X139882400Y-85965040D01*
X140240000Y-85965040D01*
X140240000Y-86200000D01*
X140297852Y-86490839D01*
X140462599Y-86737401D01*
X141240000Y-87514802D01*
X141240000Y-87920380D01*
X140766800Y-87826255D01*
X140193311Y-87940329D01*
X139707130Y-88265185D01*
X139496800Y-88579965D01*
X139286470Y-88265185D01*
X138800289Y-87940329D01*
X138226800Y-87826255D01*
X137653311Y-87940329D01*
X137167130Y-88265185D01*
X136956800Y-88579965D01*
X136746470Y-88265185D01*
X136260289Y-87940329D01*
X135686800Y-87826255D01*
X135113311Y-87940329D01*
X134627130Y-88265185D01*
X134416800Y-88579965D01*
X134206470Y-88265185D01*
X133720289Y-87940329D01*
X133146800Y-87826255D01*
X132573311Y-87940329D01*
X132087130Y-88265185D01*
X132072300Y-88287379D01*
X132008727Y-88133901D01*
X131830098Y-87955273D01*
X131596709Y-87858600D01*
X130892550Y-87858600D01*
X130733800Y-88017350D01*
X130733800Y-89382600D01*
X130753800Y-89382600D01*
X130753800Y-89636600D01*
X130733800Y-89636600D01*
X130733800Y-91001850D01*
X130892550Y-91160600D01*
X131596709Y-91160600D01*
X131830098Y-91063927D01*
X132008727Y-90885299D01*
X132072300Y-90731820D01*
X132087130Y-90754015D01*
X132386800Y-90954248D01*
X132386800Y-92019687D01*
X132343052Y-92085161D01*
X132285200Y-92376000D01*
X132285200Y-95076000D01*
X132285200Y-95097600D01*
X132285200Y-97167700D01*
X132343052Y-97458539D01*
X132507799Y-97705101D01*
X134499698Y-99697000D01*
X130479800Y-99697000D01*
X130479800Y-91001850D01*
X130479800Y-89636600D01*
X130479800Y-89382600D01*
X130479800Y-88017350D01*
X130321050Y-87858600D01*
X129616891Y-87858600D01*
X129383502Y-87955273D01*
X129204873Y-88133901D01*
X129108200Y-88367290D01*
X129108200Y-88619909D01*
X129108200Y-89223850D01*
X129266950Y-89382600D01*
X130479800Y-89382600D01*
X130479800Y-89636600D01*
X129266950Y-89636600D01*
X129108200Y-89795350D01*
X129108200Y-90399291D01*
X129108200Y-90651910D01*
X129204873Y-90885299D01*
X129383502Y-91063927D01*
X129616891Y-91160600D01*
X130321050Y-91160600D01*
X130479800Y-91001850D01*
X130479800Y-99697000D01*
X122047000Y-99697000D01*
X121756161Y-99754852D01*
X121509599Y-99919599D01*
X119010599Y-102418599D01*
X118845852Y-102665161D01*
X118788000Y-102956000D01*
X118788000Y-106682900D01*
X118555877Y-106727937D01*
X118343073Y-106867727D01*
X118200623Y-107078760D01*
X118150560Y-107328400D01*
X118150560Y-107668400D01*
X116545440Y-107668400D01*
X116545440Y-107328400D01*
X116498463Y-107086277D01*
X116358673Y-106873473D01*
X116147640Y-106731023D01*
X115898000Y-106680960D01*
X114398000Y-106680960D01*
X114155877Y-106727937D01*
X113943073Y-106867727D01*
X113800623Y-107078760D01*
X113750560Y-107328400D01*
X113750560Y-109528400D01*
X113797537Y-109770523D01*
X113937327Y-109983327D01*
X114148360Y-110125777D01*
X114398000Y-110175840D01*
X115898000Y-110175840D01*
X116140123Y-110128863D01*
X116352927Y-109989073D01*
X116495377Y-109778040D01*
X116545440Y-109528400D01*
X116545440Y-109188400D01*
X118150560Y-109188400D01*
X118150560Y-109528400D01*
X118197537Y-109770523D01*
X118337327Y-109983327D01*
X118548360Y-110125777D01*
X118798000Y-110175840D01*
X120298000Y-110175840D01*
X120540123Y-110128863D01*
X120752927Y-109989073D01*
X120895377Y-109778040D01*
X120945440Y-109528400D01*
X120945440Y-107328400D01*
X120898463Y-107086277D01*
X120758673Y-106873473D01*
X120547640Y-106731023D01*
X120308000Y-106682965D01*
X120308000Y-103270802D01*
X121323800Y-102255002D01*
X121323800Y-102365450D01*
X121482550Y-102524200D01*
X122931800Y-102524200D01*
X122931800Y-101424950D01*
X122773050Y-101266200D01*
X122312601Y-101266200D01*
X122361801Y-101217000D01*
X125546198Y-101217000D01*
X124793800Y-101969398D01*
X124793800Y-101774890D01*
X124697127Y-101541501D01*
X124518498Y-101362873D01*
X124285109Y-101266200D01*
X123344550Y-101266200D01*
X123185800Y-101424950D01*
X123185800Y-102524200D01*
X123205800Y-102524200D01*
X123205800Y-102778200D01*
X123185800Y-102778200D01*
X123185800Y-103877450D01*
X123344550Y-104036200D01*
X123954000Y-104036200D01*
X123954000Y-105666200D01*
X123344550Y-105666200D01*
X123185800Y-105824950D01*
X123185800Y-106924200D01*
X123205800Y-106924200D01*
X123205800Y-107178200D01*
X123185800Y-107178200D01*
X123185800Y-108277450D01*
X123344550Y-108436200D01*
X123954000Y-108436200D01*
X123954000Y-108733800D01*
X123192150Y-108733800D01*
X123033400Y-108892550D01*
X123033400Y-109991800D01*
X123053400Y-109991800D01*
X123053400Y-110245800D01*
X123033400Y-110245800D01*
X123033400Y-111345050D01*
X123192150Y-111503800D01*
X123954000Y-111503800D01*
X123954000Y-113133800D01*
X123192150Y-113133800D01*
X123033400Y-113292550D01*
X123033400Y-114391800D01*
X123053400Y-114391800D01*
X123053400Y-114645800D01*
X123033400Y-114645800D01*
X123033400Y-115745050D01*
X123192150Y-115903800D01*
X124132709Y-115903800D01*
X124366098Y-115807127D01*
X124544727Y-115628499D01*
X124631414Y-115419216D01*
X127183599Y-117971401D01*
X127430160Y-118136148D01*
X127430161Y-118136148D01*
X127721000Y-118194000D01*
X130160900Y-118194000D01*
X130205937Y-118426123D01*
X130345727Y-118638927D01*
X130556760Y-118781377D01*
X130806400Y-118831440D01*
X131146400Y-118831440D01*
X131146400Y-120436560D01*
X130806400Y-120436560D01*
X130564277Y-120483537D01*
X130351473Y-120623327D01*
X130209023Y-120834360D01*
X130158960Y-121084000D01*
X130158960Y-122584000D01*
X130205937Y-122826123D01*
X130345727Y-123038927D01*
X130556760Y-123181377D01*
X130806400Y-123231440D01*
X133006400Y-123231440D01*
X133248523Y-123184463D01*
X133461327Y-123044673D01*
X133603777Y-122833640D01*
X133653840Y-122584000D01*
X133653840Y-121084000D01*
X133606863Y-120841877D01*
X133467073Y-120629073D01*
X133256040Y-120486623D01*
X133006400Y-120436560D01*
X132666400Y-120436560D01*
X132666400Y-118831440D01*
X133006400Y-118831440D01*
X133248523Y-118784463D01*
X133461327Y-118644673D01*
X133603777Y-118433640D01*
X133653840Y-118184000D01*
X133653840Y-116684000D01*
X133606863Y-116441877D01*
X133467073Y-116229073D01*
X133256040Y-116086623D01*
X133006400Y-116036560D01*
X130806400Y-116036560D01*
X130564277Y-116083537D01*
X130351473Y-116223327D01*
X130209023Y-116434360D01*
X130160965Y-116674000D01*
X128035801Y-116674000D01*
X125474000Y-114112198D01*
X125474000Y-103438802D01*
X127060802Y-101852000D01*
X130321226Y-101852000D01*
X130311360Y-101901200D01*
X130311360Y-103401200D01*
X130358337Y-103643323D01*
X130498127Y-103856127D01*
X130709160Y-103998577D01*
X130958800Y-104048640D01*
X131298800Y-104048640D01*
X131298800Y-104245800D01*
X131298800Y-105653760D01*
X130958800Y-105653760D01*
X130716677Y-105700737D01*
X130503873Y-105840527D01*
X130361423Y-106051560D01*
X130311360Y-106301200D01*
X130311360Y-107801200D01*
X130358337Y-108043323D01*
X130498127Y-108256127D01*
X130709160Y-108398577D01*
X130958800Y-108448640D01*
X132971000Y-108448640D01*
X132971000Y-108721360D01*
X130806400Y-108721360D01*
X130564277Y-108768337D01*
X130351473Y-108908127D01*
X130209023Y-109119160D01*
X130158960Y-109368800D01*
X130158960Y-110868800D01*
X130205937Y-111110923D01*
X130345727Y-111323727D01*
X130556760Y-111466177D01*
X130806400Y-111516240D01*
X131146400Y-111516240D01*
X131146400Y-113121360D01*
X130806400Y-113121360D01*
X130564277Y-113168337D01*
X130351473Y-113308127D01*
X130209023Y-113519160D01*
X130158960Y-113768800D01*
X130158960Y-115268800D01*
X130205937Y-115510923D01*
X130345727Y-115723727D01*
X130556760Y-115866177D01*
X130806400Y-115916240D01*
X133006400Y-115916240D01*
X133248523Y-115869263D01*
X133461327Y-115729473D01*
X133603777Y-115518440D01*
X133653840Y-115268800D01*
X133653840Y-113768800D01*
X133606863Y-113526677D01*
X133467073Y-113313873D01*
X133256040Y-113171423D01*
X133006400Y-113121360D01*
X132666400Y-113121360D01*
X132666400Y-111516240D01*
X133006400Y-111516240D01*
X133248523Y-111469263D01*
X133328756Y-111416558D01*
X134082599Y-112170401D01*
X134329160Y-112335148D01*
X134329161Y-112335148D01*
X134620000Y-112393000D01*
X139131197Y-112393000D01*
X140881197Y-114143000D01*
X138538200Y-114143000D01*
X138247361Y-114200852D01*
X138000799Y-114365599D01*
X136774999Y-115591399D01*
X136610252Y-115837961D01*
X136552400Y-116128800D01*
X136552400Y-117490398D01*
X136497400Y-117545398D01*
X136497400Y-117142650D01*
X136497400Y-116202091D01*
X136400727Y-115968702D01*
X136222099Y-115790073D01*
X135988710Y-115693400D01*
X135736091Y-115693400D01*
X135398150Y-115693400D01*
X135239400Y-115852150D01*
X135239400Y-117301400D01*
X136338650Y-117301400D01*
X136497400Y-117142650D01*
X136497400Y-117545398D01*
X136413024Y-117629774D01*
X136338650Y-117555400D01*
X135239400Y-117555400D01*
X135239400Y-117575400D01*
X134985400Y-117575400D01*
X134985400Y-117555400D01*
X134985400Y-117301400D01*
X134985400Y-115852150D01*
X134826650Y-115693400D01*
X134488709Y-115693400D01*
X134236090Y-115693400D01*
X134002701Y-115790073D01*
X133824073Y-115968702D01*
X133727400Y-116202091D01*
X133727400Y-117142650D01*
X133886150Y-117301400D01*
X134985400Y-117301400D01*
X134985400Y-117555400D01*
X133886150Y-117555400D01*
X133727400Y-117714150D01*
X133727400Y-118654709D01*
X133824073Y-118888098D01*
X134002701Y-119066727D01*
X134236090Y-119163400D01*
X134488709Y-119163400D01*
X134826650Y-119163400D01*
X134985398Y-119004652D01*
X134985398Y-119163400D01*
X134985400Y-119163400D01*
X135061379Y-119163400D01*
X135028400Y-119329200D01*
X135028400Y-120679200D01*
X135086252Y-120970039D01*
X135250999Y-121216601D01*
X136472160Y-122437762D01*
X136472160Y-123410400D01*
X136519137Y-123652523D01*
X136658927Y-123865327D01*
X136869960Y-124007777D01*
X137009600Y-124035780D01*
X137009600Y-124604910D01*
X136778129Y-124700552D01*
X136284685Y-125193136D01*
X136017305Y-125837057D01*
X136016697Y-126534284D01*
X136282952Y-127178671D01*
X136775536Y-127672115D01*
X137419457Y-127939495D01*
X138116684Y-127940103D01*
X138761071Y-127673848D01*
X139254515Y-127181264D01*
X139509760Y-126566567D01*
X139509760Y-127304800D01*
X139556737Y-127546923D01*
X139696527Y-127759727D01*
X139907560Y-127902177D01*
X140157200Y-127952240D01*
X142392400Y-127952240D01*
X142634523Y-127905263D01*
X142673800Y-127879462D01*
X142673800Y-129919403D01*
X142320330Y-130155585D01*
X141995474Y-130641766D01*
X141881400Y-131215255D01*
X141881400Y-131584745D01*
X141995474Y-132158234D01*
X142320330Y-132644415D01*
X142806511Y-132969271D01*
X143380000Y-133083345D01*
X143953489Y-132969271D01*
X144439670Y-132644415D01*
X144650000Y-132329634D01*
X144860330Y-132644415D01*
X145346511Y-132969271D01*
X145920000Y-133083345D01*
X146493489Y-132969271D01*
X146979670Y-132644415D01*
X147186460Y-132334930D01*
X147557964Y-132750732D01*
X148085209Y-133004709D01*
X148100974Y-133007358D01*
X148333000Y-132886217D01*
X148333000Y-131527000D01*
X148313000Y-131527000D01*
X148313000Y-131273000D01*
X148333000Y-131273000D01*
X148333000Y-129913783D01*
X148132800Y-129809258D01*
X148132800Y-124066050D01*
X148132800Y-122966800D01*
X147158550Y-122966800D01*
X146999800Y-123125550D01*
X146999800Y-123716109D01*
X147096473Y-123949498D01*
X147275101Y-124128127D01*
X147508490Y-124224800D01*
X147761109Y-124224800D01*
X147974050Y-124224800D01*
X148132800Y-124066050D01*
X148132800Y-129809258D01*
X148100974Y-129792642D01*
X148085209Y-129795291D01*
X147557964Y-130049268D01*
X147186460Y-130465069D01*
X146979670Y-130155585D01*
X146733800Y-129991299D01*
X146733800Y-121129902D01*
X146987360Y-120876342D01*
X146987360Y-121089800D01*
X147034337Y-121331923D01*
X147174127Y-121544727D01*
X147238437Y-121588137D01*
X147096473Y-121730102D01*
X146999800Y-121963491D01*
X146999800Y-122554050D01*
X147158550Y-122712800D01*
X148132800Y-122712800D01*
X148132800Y-122692800D01*
X148386800Y-122692800D01*
X148386800Y-122712800D01*
X149361050Y-122712800D01*
X149519800Y-122554050D01*
X149519800Y-121967779D01*
X150115000Y-122562979D01*
X150115000Y-129740712D01*
G36*
X158640000Y-103175198D02*
X156441300Y-105373898D01*
X156441300Y-104951850D01*
X156282550Y-104793100D01*
X155308300Y-104793100D01*
X155308300Y-105892350D01*
X155467050Y-106051100D01*
X155679991Y-106051100D01*
X155932610Y-106051100D01*
X156165999Y-105954427D01*
X156214377Y-105906048D01*
X156212000Y-105918000D01*
X156212000Y-108041598D01*
X155054300Y-109199298D01*
X155054300Y-105892350D01*
X155054300Y-104793100D01*
X154080050Y-104793100D01*
X153987500Y-104885650D01*
X153958450Y-104856600D01*
X152984200Y-104856600D01*
X152984200Y-105955850D01*
X153142950Y-106114600D01*
X153355891Y-106114600D01*
X153608510Y-106114600D01*
X153841899Y-106017927D01*
X154020527Y-105839298D01*
X154038377Y-105796202D01*
X154196601Y-105954427D01*
X154429990Y-106051100D01*
X154682609Y-106051100D01*
X154895550Y-106051100D01*
X155054300Y-105892350D01*
X155054300Y-109199298D01*
X153325440Y-110928158D01*
X153325440Y-110603000D01*
X153311735Y-110532363D01*
X153313000Y-110529310D01*
X153313000Y-110388750D01*
X153265704Y-110341454D01*
X153138673Y-110148073D01*
X152927640Y-110005623D01*
X152779924Y-109976000D01*
X153154250Y-109976000D01*
X153313000Y-109817250D01*
X153313000Y-109676690D01*
X153216327Y-109443301D01*
X153037698Y-109264673D01*
X152804309Y-109168000D01*
X152730200Y-109168000D01*
X152730200Y-105955850D01*
X152730200Y-104856600D01*
X151755950Y-104856600D01*
X151597200Y-105015350D01*
X151597200Y-105605909D01*
X151693873Y-105839298D01*
X151872501Y-106017927D01*
X152105890Y-106114600D01*
X152358509Y-106114600D01*
X152571450Y-106114600D01*
X152730200Y-105955850D01*
X152730200Y-109168000D01*
X152363750Y-109168000D01*
X152205000Y-109326750D01*
X152205000Y-109955560D01*
X151951000Y-109955560D01*
X151951000Y-109326750D01*
X151792250Y-109168000D01*
X151575440Y-109168000D01*
X151575440Y-108053000D01*
X151528463Y-107810877D01*
X151513000Y-107787337D01*
X151513000Y-104398979D01*
X151597200Y-104314779D01*
X151597200Y-104443850D01*
X151755950Y-104602600D01*
X152730200Y-104602600D01*
X152730200Y-104582600D01*
X152984200Y-104582600D01*
X152984200Y-104602600D01*
X153958450Y-104602600D01*
X154051000Y-104510050D01*
X154080050Y-104539100D01*
X155054300Y-104539100D01*
X155054300Y-104519100D01*
X155308300Y-104519100D01*
X155308300Y-104539100D01*
X156282550Y-104539100D01*
X156441300Y-104380350D01*
X156441300Y-103789791D01*
X156344627Y-103556402D01*
X156203149Y-103414923D01*
X156261227Y-103376773D01*
X156403677Y-103165740D01*
X156426666Y-103051100D01*
X156913894Y-103051100D01*
X156913900Y-103051101D01*
X156913900Y-103051100D01*
X157196384Y-102994910D01*
X157252574Y-102983733D01*
X157252575Y-102983733D01*
X157539690Y-102791890D01*
X158142834Y-102188744D01*
X158262943Y-102139117D01*
X158526192Y-101876327D01*
X158640000Y-101602248D01*
X158640000Y-103175198D01*
X158640000Y-103175198D01*
G37*
X158640000Y-103175198D02*
X156441300Y-105373898D01*
X156441300Y-104951850D01*
X156282550Y-104793100D01*
X155308300Y-104793100D01*
X155308300Y-105892350D01*
X155467050Y-106051100D01*
X155679991Y-106051100D01*
X155932610Y-106051100D01*
X156165999Y-105954427D01*
X156214377Y-105906048D01*
X156212000Y-105918000D01*
X156212000Y-108041598D01*
X155054300Y-109199298D01*
X155054300Y-105892350D01*
X155054300Y-104793100D01*
X154080050Y-104793100D01*
X153987500Y-104885650D01*
X153958450Y-104856600D01*
X152984200Y-104856600D01*
X152984200Y-105955850D01*
X153142950Y-106114600D01*
X153355891Y-106114600D01*
X153608510Y-106114600D01*
X153841899Y-106017927D01*
X154020527Y-105839298D01*
X154038377Y-105796202D01*
X154196601Y-105954427D01*
X154429990Y-106051100D01*
X154682609Y-106051100D01*
X154895550Y-106051100D01*
X155054300Y-105892350D01*
X155054300Y-109199298D01*
X153325440Y-110928158D01*
X153325440Y-110603000D01*
X153311735Y-110532363D01*
X153313000Y-110529310D01*
X153313000Y-110388750D01*
X153265704Y-110341454D01*
X153138673Y-110148073D01*
X152927640Y-110005623D01*
X152779924Y-109976000D01*
X153154250Y-109976000D01*
X153313000Y-109817250D01*
X153313000Y-109676690D01*
X153216327Y-109443301D01*
X153037698Y-109264673D01*
X152804309Y-109168000D01*
X152730200Y-109168000D01*
X152730200Y-105955850D01*
X152730200Y-104856600D01*
X151755950Y-104856600D01*
X151597200Y-105015350D01*
X151597200Y-105605909D01*
X151693873Y-105839298D01*
X151872501Y-106017927D01*
X152105890Y-106114600D01*
X152358509Y-106114600D01*
X152571450Y-106114600D01*
X152730200Y-105955850D01*
X152730200Y-109168000D01*
X152363750Y-109168000D01*
X152205000Y-109326750D01*
X152205000Y-109955560D01*
X151951000Y-109955560D01*
X151951000Y-109326750D01*
X151792250Y-109168000D01*
X151575440Y-109168000D01*
X151575440Y-108053000D01*
X151528463Y-107810877D01*
X151513000Y-107787337D01*
X151513000Y-104398979D01*
X151597200Y-104314779D01*
X151597200Y-104443850D01*
X151755950Y-104602600D01*
X152730200Y-104602600D01*
X152730200Y-104582600D01*
X152984200Y-104582600D01*
X152984200Y-104602600D01*
X153958450Y-104602600D01*
X154051000Y-104510050D01*
X154080050Y-104539100D01*
X155054300Y-104539100D01*
X155054300Y-104519100D01*
X155308300Y-104519100D01*
X155308300Y-104539100D01*
X156282550Y-104539100D01*
X156441300Y-104380350D01*
X156441300Y-103789791D01*
X156344627Y-103556402D01*
X156203149Y-103414923D01*
X156261227Y-103376773D01*
X156403677Y-103165740D01*
X156426666Y-103051100D01*
X156913894Y-103051100D01*
X156913900Y-103051101D01*
X156913900Y-103051100D01*
X157196384Y-102994910D01*
X157252574Y-102983733D01*
X157252575Y-102983733D01*
X157539690Y-102791890D01*
X158142834Y-102188744D01*
X158262943Y-102139117D01*
X158526192Y-101876327D01*
X158640000Y-101602248D01*
X158640000Y-103175198D01*
G36*
X206374525Y-95109264D02*
X205113831Y-100152041D01*
X201074011Y-106464260D01*
X197425204Y-109106499D01*
X193910570Y-110361726D01*
X190261000Y-110151173D01*
X190261000Y-109966750D01*
X190102250Y-109808000D01*
X189103000Y-109808000D01*
X189103000Y-109828000D01*
X188849000Y-109828000D01*
X188849000Y-109808000D01*
X187849750Y-109808000D01*
X187691000Y-109966750D01*
X187691000Y-110002903D01*
X187272991Y-109978788D01*
X187196327Y-110060562D01*
X187171760Y-110061727D01*
X187165074Y-110064874D01*
X187157705Y-110065381D01*
X187049344Y-110119239D01*
X187017825Y-110127208D01*
X186992283Y-110146236D01*
X186929952Y-110175587D01*
X186924981Y-110181052D01*
X186918365Y-110184341D01*
X186893349Y-110203661D01*
X186852886Y-110250091D01*
X186803496Y-110286889D01*
X186754294Y-110341414D01*
X186745434Y-110356269D01*
X186732094Y-110367281D01*
X186664189Y-110450506D01*
X186659710Y-110458943D01*
X186652514Y-110465223D01*
X186571210Y-110570647D01*
X186567945Y-110577225D01*
X186562511Y-110582174D01*
X186473112Y-110703291D01*
X186471904Y-110705858D01*
X186469823Y-110707785D01*
X186404478Y-110797836D01*
X185990858Y-111346396D01*
X185760000Y-111592644D01*
X185760000Y-108914802D01*
X187678560Y-106996242D01*
X187678560Y-107731000D01*
X187725537Y-107973123D01*
X187865327Y-108185927D01*
X188076360Y-108328377D01*
X188106791Y-108334479D01*
X187966301Y-108392673D01*
X187787673Y-108571302D01*
X187691000Y-108804691D01*
X187691000Y-109395250D01*
X187849750Y-109554000D01*
X188849000Y-109554000D01*
X188849000Y-109534000D01*
X189103000Y-109534000D01*
X189103000Y-109554000D01*
X190102250Y-109554000D01*
X190261000Y-109395250D01*
X190261000Y-108804691D01*
X190164327Y-108571302D01*
X189993025Y-108400000D01*
X190355351Y-108400000D01*
X190555585Y-108699670D01*
X191041766Y-109024526D01*
X191615255Y-109138600D01*
X191984745Y-109138600D01*
X192558234Y-109024526D01*
X193044415Y-108699670D01*
X193369271Y-108213489D01*
X193483345Y-107640000D01*
X193369271Y-107066511D01*
X193044415Y-106580330D01*
X192729634Y-106370000D01*
X193044415Y-106159670D01*
X193369271Y-105673489D01*
X193483345Y-105100000D01*
X193369271Y-104526511D01*
X193044415Y-104040330D01*
X192729634Y-103830000D01*
X193044415Y-103619670D01*
X193369271Y-103133489D01*
X193483345Y-102560000D01*
X193369271Y-101986511D01*
X193044415Y-101500330D01*
X192729634Y-101290000D01*
X193044415Y-101079670D01*
X193369271Y-100593489D01*
X193483345Y-100020000D01*
X193369271Y-99446511D01*
X193044415Y-98960330D01*
X192729634Y-98750000D01*
X193044415Y-98539670D01*
X193369271Y-98053489D01*
X193483345Y-97480000D01*
X193463440Y-97379930D01*
X193463440Y-93263600D01*
X193463440Y-91536400D01*
X193416463Y-91294277D01*
X193276673Y-91081473D01*
X193065640Y-90939023D01*
X192816000Y-90888960D01*
X190784000Y-90888960D01*
X190541877Y-90935937D01*
X190329073Y-91075727D01*
X190186623Y-91286760D01*
X190136560Y-91536400D01*
X190136560Y-93263600D01*
X190183537Y-93505723D01*
X190323327Y-93718527D01*
X190534360Y-93860977D01*
X190626645Y-93879483D01*
X190449268Y-94037964D01*
X190195291Y-94565209D01*
X190192642Y-94580974D01*
X190313783Y-94813000D01*
X191673000Y-94813000D01*
X191673000Y-94793000D01*
X191927000Y-94793000D01*
X191927000Y-94813000D01*
X193286217Y-94813000D01*
X193407358Y-94580974D01*
X193404709Y-94565209D01*
X193150732Y-94037964D01*
X192974298Y-93880326D01*
X193058123Y-93864063D01*
X193270927Y-93724273D01*
X193413377Y-93513240D01*
X193463440Y-93263600D01*
X193463440Y-97379930D01*
X193369271Y-96906511D01*
X193044415Y-96420330D01*
X192734930Y-96213539D01*
X193150732Y-95842036D01*
X193404709Y-95314791D01*
X193407358Y-95299026D01*
X193286217Y-95067000D01*
X191927000Y-95067000D01*
X191927000Y-95087000D01*
X191673000Y-95087000D01*
X191673000Y-95067000D01*
X190313783Y-95067000D01*
X190192642Y-95299026D01*
X190195291Y-95314791D01*
X190449268Y-95842036D01*
X190865069Y-96213539D01*
X190555585Y-96420330D01*
X190355351Y-96720000D01*
X190120000Y-96720000D01*
X189829161Y-96777852D01*
X189582599Y-96942599D01*
X188262599Y-98262599D01*
X188097852Y-98509161D01*
X188040000Y-98800000D01*
X188040000Y-101485198D01*
X181862599Y-107662599D01*
X181697852Y-107909161D01*
X181640000Y-108200000D01*
X181640000Y-110685198D01*
X180582197Y-111743000D01*
X154660202Y-111743000D01*
X157509401Y-108893801D01*
X157674148Y-108647239D01*
X157732000Y-108356400D01*
X157732000Y-106232802D01*
X159937401Y-104027401D01*
X160102148Y-103780839D01*
X160160000Y-103490000D01*
X160160000Y-97261589D01*
X160363723Y-97222063D01*
X160576527Y-97082273D01*
X160718977Y-96871240D01*
X160769040Y-96621600D01*
X160769040Y-94386400D01*
X160722063Y-94144277D01*
X160582273Y-93931473D01*
X160371240Y-93789023D01*
X160121600Y-93738960D01*
X157935842Y-93738960D01*
X158309762Y-93365040D01*
X160117600Y-93365040D01*
X160359723Y-93318063D01*
X160572527Y-93178273D01*
X160714977Y-92967240D01*
X160765040Y-92717600D01*
X160765040Y-90482400D01*
X160742281Y-90365102D01*
X161132836Y-90817323D01*
X161160091Y-90927522D01*
X161163000Y-90943993D01*
X161163000Y-93713556D01*
X161152258Y-93842811D01*
X161152509Y-93845020D01*
X161151911Y-93847159D01*
X161139617Y-94007447D01*
X161139914Y-94009916D01*
X161139261Y-94012316D01*
X161129206Y-94156921D01*
X161129634Y-94160275D01*
X161128778Y-94163545D01*
X161121765Y-94280814D01*
X161122682Y-94287485D01*
X161121102Y-94294034D01*
X161117937Y-94372317D01*
X161119165Y-94380127D01*
X161117486Y-94387851D01*
X161114607Y-94550302D01*
X161119144Y-94575434D01*
X161115570Y-94600722D01*
X161142748Y-94706163D01*
X161162096Y-94813323D01*
X161163000Y-94814729D01*
X161163000Y-94940906D01*
X161295041Y-95020130D01*
X161306624Y-95038149D01*
X161327604Y-95052712D01*
X161342958Y-95073121D01*
X161436734Y-95128461D01*
X161526188Y-95190553D01*
X161551144Y-95195978D01*
X161573139Y-95208958D01*
X161661053Y-95239738D01*
X161889392Y-95376742D01*
X162203921Y-95379054D01*
X162366369Y-95407281D01*
X162381145Y-95406921D01*
X162395152Y-95411655D01*
X162684961Y-95449408D01*
X162695866Y-95448678D01*
X162706323Y-95451850D01*
X163041836Y-95484886D01*
X163050174Y-95484064D01*
X163058249Y-95486303D01*
X163439844Y-95514630D01*
X163446400Y-95513824D01*
X163452802Y-95515469D01*
X163880860Y-95539096D01*
X163886134Y-95538346D01*
X163891315Y-95539593D01*
X164366214Y-95558532D01*
X164370540Y-95557849D01*
X164374812Y-95558821D01*
X164896936Y-95573079D01*
X164900538Y-95572464D01*
X164904108Y-95573237D01*
X165473834Y-95582825D01*
X165476872Y-95582273D01*
X165479896Y-95582900D01*
X166097605Y-95587827D01*
X166100196Y-95587332D01*
X166102785Y-95587849D01*
X166768857Y-95588124D01*
X166771089Y-95587680D01*
X166773324Y-95588111D01*
X167488137Y-95583745D01*
X167490076Y-95583346D01*
X167492022Y-95583710D01*
X168255958Y-95574712D01*
X168257652Y-95574354D01*
X168259359Y-95574664D01*
X169072799Y-95561043D01*
X169074291Y-95560720D01*
X169075794Y-95560986D01*
X169939118Y-95542752D01*
X169940438Y-95542460D01*
X169941771Y-95542691D01*
X170855356Y-95519853D01*
X170855948Y-95519719D01*
X170856545Y-95519822D01*
X170957571Y-95517121D01*
X170957647Y-95517119D01*
X170957647Y-95517118D01*
X171235696Y-95509716D01*
X171235775Y-95509714D01*
X171235775Y-95509713D01*
X171543246Y-95501562D01*
X171543248Y-95501563D01*
X171543314Y-95501561D01*
X171864985Y-95493064D01*
X171864987Y-95493065D01*
X171865049Y-95493063D01*
X172185675Y-95484623D01*
X172185739Y-95484622D01*
X172185742Y-95484621D01*
X172490054Y-95476639D01*
X172490058Y-95476640D01*
X172490147Y-95476637D01*
X172763017Y-95469516D01*
X172763025Y-95469514D01*
X172763030Y-95469515D01*
X172923342Y-95465328D01*
X172923408Y-95465312D01*
X172923479Y-95465325D01*
X173144746Y-95459501D01*
X179257227Y-95504446D01*
X181442875Y-92804528D01*
X184965250Y-90414345D01*
X190238033Y-89035309D01*
X190348076Y-89019103D01*
X190348710Y-89018876D01*
X190349383Y-89018909D01*
X190504168Y-88995808D01*
X190505270Y-88995412D01*
X190506443Y-88995465D01*
X190620793Y-88978006D01*
X190621805Y-88977639D01*
X190622882Y-88977684D01*
X190966012Y-88924211D01*
X191089043Y-88879168D01*
X191212384Y-88835110D01*
X191374435Y-88738096D01*
X193217138Y-88256159D01*
X196135257Y-86479912D01*
X199771429Y-85727601D01*
X202877495Y-86348814D01*
X204874654Y-88720440D01*
X206249078Y-90969497D01*
X206374525Y-95109264D01*
X206374525Y-95109264D01*
G37*
X206374525Y-95109264D02*
X205113831Y-100152041D01*
X201074011Y-106464260D01*
X197425204Y-109106499D01*
X193910570Y-110361726D01*
X190261000Y-110151173D01*
X190261000Y-109966750D01*
X190102250Y-109808000D01*
X189103000Y-109808000D01*
X189103000Y-109828000D01*
X188849000Y-109828000D01*
X188849000Y-109808000D01*
X187849750Y-109808000D01*
X187691000Y-109966750D01*
X187691000Y-110002903D01*
X187272991Y-109978788D01*
X187196327Y-110060562D01*
X187171760Y-110061727D01*
X187165074Y-110064874D01*
X187157705Y-110065381D01*
X187049344Y-110119239D01*
X187017825Y-110127208D01*
X186992283Y-110146236D01*
X186929952Y-110175587D01*
X186924981Y-110181052D01*
X186918365Y-110184341D01*
X186893349Y-110203661D01*
X186852886Y-110250091D01*
X186803496Y-110286889D01*
X186754294Y-110341414D01*
X186745434Y-110356269D01*
X186732094Y-110367281D01*
X186664189Y-110450506D01*
X186659710Y-110458943D01*
X186652514Y-110465223D01*
X186571210Y-110570647D01*
X186567945Y-110577225D01*
X186562511Y-110582174D01*
X186473112Y-110703291D01*
X186471904Y-110705858D01*
X186469823Y-110707785D01*
X186404478Y-110797836D01*
X185990858Y-111346396D01*
X185760000Y-111592644D01*
X185760000Y-108914802D01*
X187678560Y-106996242D01*
X187678560Y-107731000D01*
X187725537Y-107973123D01*
X187865327Y-108185927D01*
X188076360Y-108328377D01*
X188106791Y-108334479D01*
X187966301Y-108392673D01*
X187787673Y-108571302D01*
X187691000Y-108804691D01*
X187691000Y-109395250D01*
X187849750Y-109554000D01*
X188849000Y-109554000D01*
X188849000Y-109534000D01*
X189103000Y-109534000D01*
X189103000Y-109554000D01*
X190102250Y-109554000D01*
X190261000Y-109395250D01*
X190261000Y-108804691D01*
X190164327Y-108571302D01*
X189993025Y-108400000D01*
X190355351Y-108400000D01*
X190555585Y-108699670D01*
X191041766Y-109024526D01*
X191615255Y-109138600D01*
X191984745Y-109138600D01*
X192558234Y-109024526D01*
X193044415Y-108699670D01*
X193369271Y-108213489D01*
X193483345Y-107640000D01*
X193369271Y-107066511D01*
X193044415Y-106580330D01*
X192729634Y-106370000D01*
X193044415Y-106159670D01*
X193369271Y-105673489D01*
X193483345Y-105100000D01*
X193369271Y-104526511D01*
X193044415Y-104040330D01*
X192729634Y-103830000D01*
X193044415Y-103619670D01*
X193369271Y-103133489D01*
X193483345Y-102560000D01*
X193369271Y-101986511D01*
X193044415Y-101500330D01*
X192729634Y-101290000D01*
X193044415Y-101079670D01*
X193369271Y-100593489D01*
X193483345Y-100020000D01*
X193369271Y-99446511D01*
X193044415Y-98960330D01*
X192729634Y-98750000D01*
X193044415Y-98539670D01*
X193369271Y-98053489D01*
X193483345Y-97480000D01*
X193463440Y-97379930D01*
X193463440Y-93263600D01*
X193463440Y-91536400D01*
X193416463Y-91294277D01*
X193276673Y-91081473D01*
X193065640Y-90939023D01*
X192816000Y-90888960D01*
X190784000Y-90888960D01*
X190541877Y-90935937D01*
X190329073Y-91075727D01*
X190186623Y-91286760D01*
X190136560Y-91536400D01*
X190136560Y-93263600D01*
X190183537Y-93505723D01*
X190323327Y-93718527D01*
X190534360Y-93860977D01*
X190626645Y-93879483D01*
X190449268Y-94037964D01*
X190195291Y-94565209D01*
X190192642Y-94580974D01*
X190313783Y-94813000D01*
X191673000Y-94813000D01*
X191673000Y-94793000D01*
X191927000Y-94793000D01*
X191927000Y-94813000D01*
X193286217Y-94813000D01*
X193407358Y-94580974D01*
X193404709Y-94565209D01*
X193150732Y-94037964D01*
X192974298Y-93880326D01*
X193058123Y-93864063D01*
X193270927Y-93724273D01*
X193413377Y-93513240D01*
X193463440Y-93263600D01*
X193463440Y-97379930D01*
X193369271Y-96906511D01*
X193044415Y-96420330D01*
X192734930Y-96213539D01*
X193150732Y-95842036D01*
X193404709Y-95314791D01*
X193407358Y-95299026D01*
X193286217Y-95067000D01*
X191927000Y-95067000D01*
X191927000Y-95087000D01*
X191673000Y-95087000D01*
X191673000Y-95067000D01*
X190313783Y-95067000D01*
X190192642Y-95299026D01*
X190195291Y-95314791D01*
X190449268Y-95842036D01*
X190865069Y-96213539D01*
X190555585Y-96420330D01*
X190355351Y-96720000D01*
X190120000Y-96720000D01*
X189829161Y-96777852D01*
X189582599Y-96942599D01*
X188262599Y-98262599D01*
X188097852Y-98509161D01*
X188040000Y-98800000D01*
X188040000Y-101485198D01*
X181862599Y-107662599D01*
X181697852Y-107909161D01*
X181640000Y-108200000D01*
X181640000Y-110685198D01*
X180582197Y-111743000D01*
X154660202Y-111743000D01*
X157509401Y-108893801D01*
X157674148Y-108647239D01*
X157732000Y-108356400D01*
X157732000Y-106232802D01*
X159937401Y-104027401D01*
X160102148Y-103780839D01*
X160160000Y-103490000D01*
X160160000Y-97261589D01*
X160363723Y-97222063D01*
X160576527Y-97082273D01*
X160718977Y-96871240D01*
X160769040Y-96621600D01*
X160769040Y-94386400D01*
X160722063Y-94144277D01*
X160582273Y-93931473D01*
X160371240Y-93789023D01*
X160121600Y-93738960D01*
X157935842Y-93738960D01*
X158309762Y-93365040D01*
X160117600Y-93365040D01*
X160359723Y-93318063D01*
X160572527Y-93178273D01*
X160714977Y-92967240D01*
X160765040Y-92717600D01*
X160765040Y-90482400D01*
X160742281Y-90365102D01*
X161132836Y-90817323D01*
X161160091Y-90927522D01*
X161163000Y-90943993D01*
X161163000Y-93713556D01*
X161152258Y-93842811D01*
X161152509Y-93845020D01*
X161151911Y-93847159D01*
X161139617Y-94007447D01*
X161139914Y-94009916D01*
X161139261Y-94012316D01*
X161129206Y-94156921D01*
X161129634Y-94160275D01*
X161128778Y-94163545D01*
X161121765Y-94280814D01*
X161122682Y-94287485D01*
X161121102Y-94294034D01*
X161117937Y-94372317D01*
X161119165Y-94380127D01*
X161117486Y-94387851D01*
X161114607Y-94550302D01*
X161119144Y-94575434D01*
X161115570Y-94600722D01*
X161142748Y-94706163D01*
X161162096Y-94813323D01*
X161163000Y-94814729D01*
X161163000Y-94940906D01*
X161295041Y-95020130D01*
X161306624Y-95038149D01*
X161327604Y-95052712D01*
X161342958Y-95073121D01*
X161436734Y-95128461D01*
X161526188Y-95190553D01*
X161551144Y-95195978D01*
X161573139Y-95208958D01*
X161661053Y-95239738D01*
X161889392Y-95376742D01*
X162203921Y-95379054D01*
X162366369Y-95407281D01*
X162381145Y-95406921D01*
X162395152Y-95411655D01*
X162684961Y-95449408D01*
X162695866Y-95448678D01*
X162706323Y-95451850D01*
X163041836Y-95484886D01*
X163050174Y-95484064D01*
X163058249Y-95486303D01*
X163439844Y-95514630D01*
X163446400Y-95513824D01*
X163452802Y-95515469D01*
X163880860Y-95539096D01*
X163886134Y-95538346D01*
X163891315Y-95539593D01*
X164366214Y-95558532D01*
X164370540Y-95557849D01*
X164374812Y-95558821D01*
X164896936Y-95573079D01*
X164900538Y-95572464D01*
X164904108Y-95573237D01*
X165473834Y-95582825D01*
X165476872Y-95582273D01*
X165479896Y-95582900D01*
X166097605Y-95587827D01*
X166100196Y-95587332D01*
X166102785Y-95587849D01*
X166768857Y-95588124D01*
X166771089Y-95587680D01*
X166773324Y-95588111D01*
X167488137Y-95583745D01*
X167490076Y-95583346D01*
X167492022Y-95583710D01*
X168255958Y-95574712D01*
X168257652Y-95574354D01*
X168259359Y-95574664D01*
X169072799Y-95561043D01*
X169074291Y-95560720D01*
X169075794Y-95560986D01*
X169939118Y-95542752D01*
X169940438Y-95542460D01*
X169941771Y-95542691D01*
X170855356Y-95519853D01*
X170855948Y-95519719D01*
X170856545Y-95519822D01*
X170957571Y-95517121D01*
X170957647Y-95517119D01*
X170957647Y-95517118D01*
X171235696Y-95509716D01*
X171235775Y-95509714D01*
X171235775Y-95509713D01*
X171543246Y-95501562D01*
X171543248Y-95501563D01*
X171543314Y-95501561D01*
X171864985Y-95493064D01*
X171864987Y-95493065D01*
X171865049Y-95493063D01*
X172185675Y-95484623D01*
X172185739Y-95484622D01*
X172185742Y-95484621D01*
X172490054Y-95476639D01*
X172490058Y-95476640D01*
X172490147Y-95476637D01*
X172763017Y-95469516D01*
X172763025Y-95469514D01*
X172763030Y-95469515D01*
X172923342Y-95465328D01*
X172923408Y-95465312D01*
X172923479Y-95465325D01*
X173144746Y-95459501D01*
X179257227Y-95504446D01*
X181442875Y-92804528D01*
X184965250Y-90414345D01*
X190238033Y-89035309D01*
X190348076Y-89019103D01*
X190348710Y-89018876D01*
X190349383Y-89018909D01*
X190504168Y-88995808D01*
X190505270Y-88995412D01*
X190506443Y-88995465D01*
X190620793Y-88978006D01*
X190621805Y-88977639D01*
X190622882Y-88977684D01*
X190966012Y-88924211D01*
X191089043Y-88879168D01*
X191212384Y-88835110D01*
X191374435Y-88738096D01*
X193217138Y-88256159D01*
X196135257Y-86479912D01*
X199771429Y-85727601D01*
X202877495Y-86348814D01*
X204874654Y-88720440D01*
X206249078Y-90969497D01*
X206374525Y-95109264D01*
M02*
